0
SECTION
2
HEADER
9
$INSUNITS
70
4
9
$ACADVER
1
AC1014
9
$HANDSEED
5
FFFF
0
ENDSEC
0
SECTION
2
TABLES
0
TABLE
2
VPORT
5
8
100
AcDbSymbolTable
0
ENDTAB
0
TABLE
2
LTYPE
5
5
100
AcDbSymbolTable
0
LTYPE
5
14
100
AcDbSymbolTableRecord
100
AcDbLinetypeTableRecord
2
BYBLOCK
70
0
0
LTYPE
5
15
100
AcDbSymbolTableRecord
100
AcDbLinetypeTableRecord
2
BYLAYER
70
0
0
LTYPE
5
16
100
AcDbSymbolTableRecord
100
AcDbLinetypeTableRecord
2
DASHED
70
0
3
Dashed __ __ __ __ __ __ __ __ __ __ __ __ __ _
72
65
73
2
40
0.75
49
0.5
74
0
49
-0.25
74
0
0
ENDTAB
0
TABLE
2
LAYER
5
2
100
AcDbSymbolTable
70
3
0
LAYER
5
50
100
AcDbSymbolTableRecord
100
AcDbLayerTableRecord
2
1
70
0
62
7
6
DASHED
0
LAYER
5
51
100
AcDbSymbolTableRecord
100
AcDbLayerTableRecord
2
0
70
0
62
7
6
CONTINUOUS
0
ENDTAB
0
TABLE
2
STYLE
5
3
100
AcDbSymbolTable
70
1
0
STYLE
5
11
100
AcDbSymbolTableRecord
100
AcDbTextStyleTableRecord
2
STANDARD
70
0
0
ENDTAB
0
TABLE
2
VIEW
5
6
100
AcDbSymbolTable
70
0
0
ENDTAB
0
TABLE
2
UCS
5
7
100
AcDbSymbolTable
70
0
0
ENDTAB
0
TABLE
2
APPID
5
9
100
AcDbSymbolTable
70
2
0
APPID
5
12
100
AcDbSymbolTableRecord
100
AcDbRegAppTableRecord
2
ACAD
70
0
0
ENDTAB
0
TABLE
2
DIMSTYLE
5
A
100
AcDbSymbolTable
70
1
0
ENDTAB
0
TABLE
2
BLOCK_RECORD
5
1
100
AcDbSymbolTable
70
1
0
BLOCK_RECORD
5
1F
100
AcDbSymbolTableRecord
100
AcDbBlockTableRecord
2
*MODEL_SPACE
0
BLOCK_RECORD
5
1B
100
AcDbSymbolTableRecord
100
AcDbBlockTableRecord
2
*PAPER_SPACE
0
ENDTAB
0
ENDSEC
0
SECTION
2
BLOCKS
0
BLOCK
5
20
100
AcDbEntity
100
AcDbBlockBegin
2
*MODEL_SPACE
0
ENDBLK
5
21
100
AcDbEntity
100
AcDbBlockEnd
0
BLOCK
5
1C
100
AcDbEntity
100
AcDbBlockBegin
2
*PAPER_SPACE
0
ENDBLK
5
1D
100
AcDbEntity
100
AcDbBlockEnd
0
ENDSEC
0
SECTION
2
ENTITIES
0
CIRCLE
5
100
100
AcDbEntity
8
0
100
AcDbCircle
10
104.85568491977027
20
68.184312476163583
30
0
40
0.81000000000000016
210
0
220
0
230
1
0
CIRCLE
5
101
100
AcDbEntity
8
0
100
AcDbCircle
10
28.89664616275229
20
40.845785642854196
30
0
40
0.81000000000000016
210
0
220
0
230
1
0
CIRCLE
5
102
100
AcDbEntity
8
0
100
AcDbCircle
10
52.741111797788925
20
47.574435554544777
30
0
40
0.81000000000000016
210
0
220
0
230
1
0
CIRCLE
5
103
100
AcDbEntity
8
0
100
AcDbCircle
10
133.80987372990381
20
79.634895911729828
30
0
40
0.81000000000000016
210
0
220
0
230
1
0
CIRCLE
5
104
100
AcDbEntity
8
0
100
AcDbCircle
10
138.06842152166087
20
87.464777411881371
30
0
40
5.7500000000000009
210
0
220
0
230
1
0
CIRCLE
5
105
100
AcDbEntity
8
0
100
AcDbCircle
10
111.33811081595729
20
76.893676456459474
30
-4.4408920985006262e-15
40
5.7500000000000009
210
0
220
0
230
1
0
CIRCLE
5
106
100
AcDbEntity
8
0
100
AcDbCircle
10
61.115948095900492
20
57.032195676886495
30
0
40
5.7500000000000009
210
0
220
0
230
1
0
CIRCLE
5
107
100
AcDbEntity
8
0
100
AcDbCircle
10
17.630536879900493
20
48.745785642848844
30
0
40
5.7500000000000009
210
0
220
0
230
1
0
CIRCLE
5
108
100
AcDbEntity
8
0
100
AcDbCircle
10
40.162755445604077
20
48.745785642848759
30
0
40
5.7500000000000009
210
0
220
0
230
1
0
CIRCLE
5
109
100
AcDbEntity
8
0
100
AcDbCircle
10
94.169738969509851
20
70.104058706513527
30
0
40
5.7500000000000009
210
0
220
0
230
1
0
CIRCLE
5
110
100
AcDbEntity
8
0
100
AcDbCircle
10
125.34780588407338
20
82.434124622224019
30
4.4408920985006262e-15
40
5.7500000000000009
210
0
220
0
230
1
0
CIRCLE
5
111
100
AcDbEntity
8
0
100
AcDbCircle
10
163.97672095384476
20
91.466138571038158
30
4.4408920985006262e-15
40
5.7500000000000009
210
0
220
0
230
1
0
CIRCLE
5
112
100
AcDbEntity
8
0
100
AcDbCircle
10
184.72835946868275
20
86.514842201997681
30
0
40
1.7250000000000001
210
0
220
0
230
1
0
CIRCLE
5
113
100
AcDbEntity
8
0
100
AcDbCircle
10
155.02672911850416
20
96.416330352948165
30
4.4408920985006262e-15
40
1.7250000000000001
210
0
220
0
230
1
0
CIRCLE
5
114
100
AcDbEntity
8
0
100
AcDbCircle
10
-6.499996202937516
20
46.745785642843536
30
4.4408920985006262e-15
40
1.7250000000000001
210
0
220
0
230
1
0
CIRCLE
5
115
100
AcDbEntity
8
0
100
AcDbCircle
10
-6.4999962029377931
20
54.745785642843458
30
0
40
1.7250000000000001
210
0
220
0
230
1
0
CIRCLE
5
116
100
AcDbEntity
8
0
100
AcDbCircle
10
6.5000037970624271
20
54.745785642843444
30
-4.4408920985006262e-15
40
1.7250000000000001
210
0
220
0
230
1
0
CIRCLE
5
117
100
AcDbEntity
8
0
100
AcDbCircle
10
6.5000037970621252
20
46.745785642843458
30
0
40
1.7250000000000001
210
0
220
0
230
1
0
CIRCLE
5
118
100
AcDbEntity
8
0
100
AcDbCircle
10
184.72510308063158
20
96.419584696992189
30
4.4408920985006262e-15
40
1.7250000000000001
210
0
220
0
230
1
0
CIRCLE
5
119
100
AcDbEntity
8
0
100
AcDbCircle
10
155.02673182643417
20
86.508333187407942
30
0
40
1.7250000000000001
210
0
220
0
230
1
0
LWPOLYLINE
5
120
100
AcDbEntity
8
0
100
AcDbPolyline
90
16
70
1
43
0.0
10
42.292877650355081
20
58.745785642843416
42
0.094428476855128424
10
45.970460490178283
20
59.446571457965327
10
146.40509257935287
20
99.165699564051181
42
-0.094407956720763048
10
150.08186186646188
20
99.866485346079671
10
188.17835946868286
20
99.869584696992391
10
188.17835946868283
20
83.064842201997863
10
150.08144026799761
20
83.05864312061891
42
0.09438743460674491
10
146.40548461520871
20
82.357857437883894
10
95.476565232450938
20
62.216873882806865
42
0.25701520023544205
10
91.788743290896534
20
57.758230247920004
42
-0.55038722666390483
10
72.933330232977184
20
50.301434208923155
42
0.257015200235444
10
67.193445645571856
20
51.031679824311581
10
37.89909423437301
20
39.446571457976283
42
-0.094428476855126453
10
34.22151139454985
20
38.745785642854393
10
-12.999996202937599
20
38.745785642854386
10
-12.999996202937593
20
58.745785642843501
0
CIRCLE
5
121
100
AcDbEntity
8
0
100
AcDbCircle
10
79.999999999999986
20
59.999999999999964
30
0
40
8.4900000000000198
210
0
220
-0
230
1
0
ENDSEC
0
SECTION
2
OBJECTS
0
DICTIONARY
5
C
100
AcDbDictionary
3
ACAD_GROUP
350
D
3
ACAD_MLINESTYLE
350
17
0
DICTIONARY
5
D
100
AcDbDictionary
0
DICTIONARY
5
1A
330
C
100
AcDbDictionary
0
DICTIONARY
5
17
100
AcDbDictionary
0
ENDSEC
0
EOF
