%TF.GenerationSoftware,KiCad,Pcbnew,7.0.2*%
%TF.CreationDate,2024-12-03T13:42:34-08:00*%
%TF.ProjectId,AA_P_CtrlBd,41415f50-5f43-4747-926c-42642e6b6963,1.0*%
%TF.SameCoordinates,Original*%
%TF.FileFunction,Legend,Bot*%
%TF.FilePolarity,Positive*%
%FSLAX46Y46*%
G04 Gerber Fmt 4.6, Leading zero omitted, Abs format (unit mm)*
G04 Created by KiCad (PCBNEW 7.0.2) date 2024-12-03 13:42:34*
%MOMM*%
%LPD*%
G01*
G04 APERTURE LIST*
%ADD10C,0.150000*%
%ADD11C,0.120000*%
G04 APERTURE END LIST*
D10*
%TO.C,J29*%
X135551819Y-136604476D02*
X136266104Y-136604476D01*
X136266104Y-136604476D02*
X136408961Y-136556857D01*
X136408961Y-136556857D02*
X136504200Y-136461619D01*
X136504200Y-136461619D02*
X136551819Y-136318762D01*
X136551819Y-136318762D02*
X136551819Y-136223524D01*
X135647057Y-137033048D02*
X135599438Y-137080667D01*
X135599438Y-137080667D02*
X135551819Y-137175905D01*
X135551819Y-137175905D02*
X135551819Y-137414000D01*
X135551819Y-137414000D02*
X135599438Y-137509238D01*
X135599438Y-137509238D02*
X135647057Y-137556857D01*
X135647057Y-137556857D02*
X135742295Y-137604476D01*
X135742295Y-137604476D02*
X135837533Y-137604476D01*
X135837533Y-137604476D02*
X135980390Y-137556857D01*
X135980390Y-137556857D02*
X136551819Y-136985429D01*
X136551819Y-136985429D02*
X136551819Y-137604476D01*
X136551819Y-138080667D02*
X136551819Y-138271143D01*
X136551819Y-138271143D02*
X136504200Y-138366381D01*
X136504200Y-138366381D02*
X136456580Y-138414000D01*
X136456580Y-138414000D02*
X136313723Y-138509238D01*
X136313723Y-138509238D02*
X136123247Y-138556857D01*
X136123247Y-138556857D02*
X135742295Y-138556857D01*
X135742295Y-138556857D02*
X135647057Y-138509238D01*
X135647057Y-138509238D02*
X135599438Y-138461619D01*
X135599438Y-138461619D02*
X135551819Y-138366381D01*
X135551819Y-138366381D02*
X135551819Y-138175905D01*
X135551819Y-138175905D02*
X135599438Y-138080667D01*
X135599438Y-138080667D02*
X135647057Y-138033048D01*
X135647057Y-138033048D02*
X135742295Y-137985429D01*
X135742295Y-137985429D02*
X135980390Y-137985429D01*
X135980390Y-137985429D02*
X136075628Y-138033048D01*
X136075628Y-138033048D02*
X136123247Y-138080667D01*
X136123247Y-138080667D02*
X136170866Y-138175905D01*
X136170866Y-138175905D02*
X136170866Y-138366381D01*
X136170866Y-138366381D02*
X136123247Y-138461619D01*
X136123247Y-138461619D02*
X136075628Y-138509238D01*
X136075628Y-138509238D02*
X135980390Y-138556857D01*
%TO.C,U5*%
X154452761Y-82974000D02*
X154567047Y-83012095D01*
X154567047Y-83012095D02*
X154757523Y-83012095D01*
X154757523Y-83012095D02*
X154833714Y-82974000D01*
X154833714Y-82974000D02*
X154871809Y-82935904D01*
X154871809Y-82935904D02*
X154909904Y-82859714D01*
X154909904Y-82859714D02*
X154909904Y-82783523D01*
X154909904Y-82783523D02*
X154871809Y-82707333D01*
X154871809Y-82707333D02*
X154833714Y-82669238D01*
X154833714Y-82669238D02*
X154757523Y-82631142D01*
X154757523Y-82631142D02*
X154605142Y-82593047D01*
X154605142Y-82593047D02*
X154528952Y-82554952D01*
X154528952Y-82554952D02*
X154490857Y-82516857D01*
X154490857Y-82516857D02*
X154452761Y-82440666D01*
X154452761Y-82440666D02*
X154452761Y-82364476D01*
X154452761Y-82364476D02*
X154490857Y-82288285D01*
X154490857Y-82288285D02*
X154528952Y-82250190D01*
X154528952Y-82250190D02*
X154605142Y-82212095D01*
X154605142Y-82212095D02*
X154795619Y-82212095D01*
X154795619Y-82212095D02*
X154909904Y-82250190D01*
X155176571Y-82212095D02*
X155367047Y-83012095D01*
X155367047Y-83012095D02*
X155519428Y-82440666D01*
X155519428Y-82440666D02*
X155671809Y-83012095D01*
X155671809Y-83012095D02*
X155862286Y-82212095D01*
X156167048Y-83012095D02*
X156167048Y-82212095D01*
X156167048Y-82212095D02*
X156357524Y-82212095D01*
X156357524Y-82212095D02*
X156471810Y-82250190D01*
X156471810Y-82250190D02*
X156548000Y-82326380D01*
X156548000Y-82326380D02*
X156586095Y-82402571D01*
X156586095Y-82402571D02*
X156624191Y-82554952D01*
X156624191Y-82554952D02*
X156624191Y-82669238D01*
X156624191Y-82669238D02*
X156586095Y-82821619D01*
X156586095Y-82821619D02*
X156548000Y-82897809D01*
X156548000Y-82897809D02*
X156471810Y-82974000D01*
X156471810Y-82974000D02*
X156357524Y-83012095D01*
X156357524Y-83012095D02*
X156167048Y-83012095D01*
X156967048Y-83012095D02*
X156967048Y-82212095D01*
X157500381Y-82212095D02*
X157652762Y-82212095D01*
X157652762Y-82212095D02*
X157728952Y-82250190D01*
X157728952Y-82250190D02*
X157805143Y-82326380D01*
X157805143Y-82326380D02*
X157843238Y-82478761D01*
X157843238Y-82478761D02*
X157843238Y-82745428D01*
X157843238Y-82745428D02*
X157805143Y-82897809D01*
X157805143Y-82897809D02*
X157728952Y-82974000D01*
X157728952Y-82974000D02*
X157652762Y-83012095D01*
X157652762Y-83012095D02*
X157500381Y-83012095D01*
X157500381Y-83012095D02*
X157424190Y-82974000D01*
X157424190Y-82974000D02*
X157348000Y-82897809D01*
X157348000Y-82897809D02*
X157309904Y-82745428D01*
X157309904Y-82745428D02*
X157309904Y-82478761D01*
X157309904Y-82478761D02*
X157348000Y-82326380D01*
X157348000Y-82326380D02*
X157424190Y-82250190D01*
X157424190Y-82250190D02*
X157500381Y-82212095D01*
X146678475Y-82994000D02*
X146792761Y-83032095D01*
X146792761Y-83032095D02*
X146983237Y-83032095D01*
X146983237Y-83032095D02*
X147059428Y-82994000D01*
X147059428Y-82994000D02*
X147097523Y-82955904D01*
X147097523Y-82955904D02*
X147135618Y-82879714D01*
X147135618Y-82879714D02*
X147135618Y-82803523D01*
X147135618Y-82803523D02*
X147097523Y-82727333D01*
X147097523Y-82727333D02*
X147059428Y-82689238D01*
X147059428Y-82689238D02*
X146983237Y-82651142D01*
X146983237Y-82651142D02*
X146830856Y-82613047D01*
X146830856Y-82613047D02*
X146754666Y-82574952D01*
X146754666Y-82574952D02*
X146716571Y-82536857D01*
X146716571Y-82536857D02*
X146678475Y-82460666D01*
X146678475Y-82460666D02*
X146678475Y-82384476D01*
X146678475Y-82384476D02*
X146716571Y-82308285D01*
X146716571Y-82308285D02*
X146754666Y-82270190D01*
X146754666Y-82270190D02*
X146830856Y-82232095D01*
X146830856Y-82232095D02*
X147021333Y-82232095D01*
X147021333Y-82232095D02*
X147135618Y-82270190D01*
X147402285Y-82232095D02*
X147592761Y-83032095D01*
X147592761Y-83032095D02*
X147745142Y-82460666D01*
X147745142Y-82460666D02*
X147897523Y-83032095D01*
X147897523Y-83032095D02*
X148088000Y-82232095D01*
X148849905Y-82955904D02*
X148811809Y-82994000D01*
X148811809Y-82994000D02*
X148697524Y-83032095D01*
X148697524Y-83032095D02*
X148621333Y-83032095D01*
X148621333Y-83032095D02*
X148507047Y-82994000D01*
X148507047Y-82994000D02*
X148430857Y-82917809D01*
X148430857Y-82917809D02*
X148392762Y-82841619D01*
X148392762Y-82841619D02*
X148354666Y-82689238D01*
X148354666Y-82689238D02*
X148354666Y-82574952D01*
X148354666Y-82574952D02*
X148392762Y-82422571D01*
X148392762Y-82422571D02*
X148430857Y-82346380D01*
X148430857Y-82346380D02*
X148507047Y-82270190D01*
X148507047Y-82270190D02*
X148621333Y-82232095D01*
X148621333Y-82232095D02*
X148697524Y-82232095D01*
X148697524Y-82232095D02*
X148811809Y-82270190D01*
X148811809Y-82270190D02*
X148849905Y-82308285D01*
X149573714Y-83032095D02*
X149192762Y-83032095D01*
X149192762Y-83032095D02*
X149192762Y-82232095D01*
X149840381Y-83032095D02*
X149840381Y-82232095D01*
X150297524Y-83032095D02*
X149954666Y-82574952D01*
X150297524Y-82232095D02*
X149840381Y-82689238D01*
D11*
%TO.C,J29*%
X137089200Y-140014000D02*
X162609200Y-140014000D01*
X139689200Y-134814000D02*
X139689200Y-137414000D01*
X138419200Y-134814000D02*
X137089200Y-134814000D01*
X137089200Y-137414000D02*
X137089200Y-140014000D01*
X162609200Y-134814000D02*
X162609200Y-140014000D01*
X137089200Y-134814000D02*
X137089200Y-136144000D01*
X139689200Y-134814000D02*
X162609200Y-134814000D01*
X139689200Y-137414000D02*
X137089200Y-137414000D01*
%TO.C,G1*%
G36*
X155985505Y-115298157D02*
G01*
X155985505Y-115702248D01*
X155560422Y-115702248D01*
X155135339Y-115702248D01*
X155135339Y-115298157D01*
X155135339Y-114894066D01*
X155560422Y-114894066D01*
X155985505Y-114894066D01*
X155985505Y-115298157D01*
G37*
G36*
X154386634Y-117029975D02*
G01*
X154386634Y-119242854D01*
X153989540Y-119242854D01*
X153592447Y-119242854D01*
X153592447Y-117029975D01*
X153592447Y-114817097D01*
X153989540Y-114817097D01*
X154386634Y-114817097D01*
X154386634Y-117029975D01*
G37*
G36*
X155961014Y-117687133D02*
G01*
X155961013Y-117735113D01*
X155961003Y-117838147D01*
X155960983Y-117939310D01*
X155960954Y-118038380D01*
X155960915Y-118135133D01*
X155960866Y-118229348D01*
X155960810Y-118320800D01*
X155960745Y-118409268D01*
X155960671Y-118494527D01*
X155960591Y-118576356D01*
X155960502Y-118654531D01*
X155960407Y-118728830D01*
X155960305Y-118799029D01*
X155960197Y-118864906D01*
X155960082Y-118926237D01*
X155959962Y-118982800D01*
X155959837Y-119034372D01*
X155959707Y-119080731D01*
X155959572Y-119121652D01*
X155959432Y-119156913D01*
X155959289Y-119186292D01*
X155959142Y-119209565D01*
X155958991Y-119226510D01*
X155958838Y-119236903D01*
X155958682Y-119240522D01*
X155958190Y-119240625D01*
X155952216Y-119240929D01*
X155939838Y-119241219D01*
X155921500Y-119241495D01*
X155897646Y-119241752D01*
X155868721Y-119241989D01*
X155835169Y-119242203D01*
X155797435Y-119242391D01*
X155755964Y-119242551D01*
X155711199Y-119242680D01*
X155663585Y-119242775D01*
X155613567Y-119242834D01*
X155561588Y-119242854D01*
X155166827Y-119242854D01*
X155166827Y-117689466D01*
X155166827Y-116136077D01*
X155563921Y-116136077D01*
X155961014Y-116136077D01*
X155961014Y-117687133D01*
G37*
G36*
X152808755Y-117029975D02*
G01*
X152808755Y-119242854D01*
X152416910Y-119242854D01*
X152025064Y-119242854D01*
X152024932Y-118745175D01*
X152024799Y-118247496D01*
X151852624Y-118057965D01*
X151826562Y-118029277D01*
X151799756Y-117999778D01*
X151774662Y-117972169D01*
X151751655Y-117946861D01*
X151731107Y-117924265D01*
X151713393Y-117904793D01*
X151698887Y-117888855D01*
X151687964Y-117876864D01*
X151680996Y-117869230D01*
X151678359Y-117866365D01*
X151678177Y-117866551D01*
X151675497Y-117871088D01*
X151669757Y-117881467D01*
X151661104Y-117897410D01*
X151649686Y-117918639D01*
X151635650Y-117944877D01*
X151619144Y-117975845D01*
X151600314Y-118011265D01*
X151579307Y-118050860D01*
X151556272Y-118094351D01*
X151531355Y-118141461D01*
X151504703Y-118191912D01*
X151476464Y-118245425D01*
X151446785Y-118301722D01*
X151415813Y-118360527D01*
X151383696Y-118421561D01*
X151350580Y-118484545D01*
X151316613Y-118549202D01*
X151307573Y-118566417D01*
X151273777Y-118630761D01*
X151240862Y-118693411D01*
X151208975Y-118754084D01*
X151178265Y-118812500D01*
X151148880Y-118868377D01*
X151120968Y-118921434D01*
X151094677Y-118971390D01*
X151070156Y-119017963D01*
X151047552Y-119060872D01*
X151027015Y-119099836D01*
X151008691Y-119134573D01*
X150992730Y-119164802D01*
X150979279Y-119190242D01*
X150968487Y-119210611D01*
X150960501Y-119225628D01*
X150955471Y-119235012D01*
X150953544Y-119238481D01*
X150952457Y-119238978D01*
X150948611Y-119239598D01*
X150941757Y-119240153D01*
X150931589Y-119240645D01*
X150917801Y-119241080D01*
X150900084Y-119241458D01*
X150878132Y-119241783D01*
X150851638Y-119242059D01*
X150820296Y-119242288D01*
X150783798Y-119242474D01*
X150741837Y-119242619D01*
X150694107Y-119242726D01*
X150640301Y-119242799D01*
X150580111Y-119242841D01*
X150513231Y-119242854D01*
X150459416Y-119242845D01*
X150406682Y-119242817D01*
X150356334Y-119242771D01*
X150308792Y-119242709D01*
X150264475Y-119242633D01*
X150223802Y-119242542D01*
X150187192Y-119242438D01*
X150155064Y-119242323D01*
X150127838Y-119242198D01*
X150105932Y-119242064D01*
X150089767Y-119241921D01*
X150079760Y-119241772D01*
X150076331Y-119241617D01*
X150076977Y-119240409D01*
X150080725Y-119233662D01*
X150087698Y-119221190D01*
X150097767Y-119203225D01*
X150110804Y-119179997D01*
X150126677Y-119151737D01*
X150145258Y-119118674D01*
X150166417Y-119081039D01*
X150190024Y-119039063D01*
X150215950Y-118992975D01*
X150244065Y-118943006D01*
X150274239Y-118889387D01*
X150306344Y-118832348D01*
X150340248Y-118772119D01*
X150375824Y-118708930D01*
X150412940Y-118643011D01*
X150451468Y-118574594D01*
X150491278Y-118503909D01*
X150532240Y-118431185D01*
X150574224Y-118356654D01*
X150617102Y-118280544D01*
X150643478Y-118233726D01*
X150685835Y-118158536D01*
X150727222Y-118085058D01*
X150767511Y-118013521D01*
X150806571Y-117944157D01*
X150844273Y-117877196D01*
X150880486Y-117812870D01*
X150915082Y-117751409D01*
X150947929Y-117693043D01*
X150978899Y-117638005D01*
X151007862Y-117586523D01*
X151034687Y-117538830D01*
X151059245Y-117495155D01*
X151081406Y-117455731D01*
X151101040Y-117420786D01*
X151118018Y-117390553D01*
X151132209Y-117365262D01*
X151143484Y-117345144D01*
X151151713Y-117330429D01*
X151156766Y-117321348D01*
X151158514Y-117318133D01*
X151158119Y-117317559D01*
X151153957Y-117312600D01*
X151145424Y-117302761D01*
X151132728Y-117288276D01*
X151116077Y-117269380D01*
X151095679Y-117246306D01*
X151071742Y-117219288D01*
X151044474Y-117188561D01*
X151014083Y-117154357D01*
X150980778Y-117116912D01*
X150944765Y-117076458D01*
X150906254Y-117033230D01*
X150865452Y-116987462D01*
X150822567Y-116939388D01*
X150777808Y-116889242D01*
X150731382Y-116837256D01*
X150683497Y-116783667D01*
X150634361Y-116728707D01*
X150613474Y-116705348D01*
X150564817Y-116650925D01*
X150517484Y-116597969D01*
X150471684Y-116546714D01*
X150427626Y-116497395D01*
X150385518Y-116450247D01*
X150345570Y-116405502D01*
X150307990Y-116363396D01*
X150272987Y-116324162D01*
X150240771Y-116288036D01*
X150211549Y-116255250D01*
X150185531Y-116226039D01*
X150162926Y-116200637D01*
X150143943Y-116179279D01*
X150128790Y-116162199D01*
X150117676Y-116149631D01*
X150110810Y-116141809D01*
X150108402Y-116138967D01*
X150108614Y-116138871D01*
X150113707Y-116138523D01*
X150125280Y-116138191D01*
X150142922Y-116137879D01*
X150166225Y-116137588D01*
X150194780Y-116137320D01*
X150228178Y-116137079D01*
X150266010Y-116136866D01*
X150307868Y-116136684D01*
X150353341Y-116136536D01*
X150402023Y-116136423D01*
X150453503Y-116136348D01*
X150507372Y-116136313D01*
X150563223Y-116136321D01*
X151019210Y-116136565D01*
X151521262Y-116744858D01*
X152023315Y-117353150D01*
X152024194Y-116085123D01*
X152025073Y-114817097D01*
X152416914Y-114817097D01*
X152808755Y-114817097D01*
X152808755Y-117029975D01*
G37*
G36*
X158870956Y-119808524D02*
G01*
X158870932Y-119852391D01*
X158870838Y-119897128D01*
X158870675Y-119942081D01*
X158870445Y-119986594D01*
X158870152Y-120030011D01*
X158869798Y-120071675D01*
X158869384Y-120110933D01*
X158868915Y-120147127D01*
X158868391Y-120179603D01*
X158867817Y-120207704D01*
X158867193Y-120230775D01*
X158866523Y-120248160D01*
X158865809Y-120259204D01*
X158863122Y-120287193D01*
X158819389Y-120291577D01*
X158816759Y-120291837D01*
X158795561Y-120293753D01*
X158770684Y-120295764D01*
X158745011Y-120297645D01*
X158721427Y-120299174D01*
X158701125Y-120300094D01*
X158673735Y-120300810D01*
X158641977Y-120301242D01*
X158606986Y-120301403D01*
X158569900Y-120301307D01*
X158531854Y-120300967D01*
X158493986Y-120300398D01*
X158457431Y-120299614D01*
X158423326Y-120298629D01*
X158392807Y-120297455D01*
X158367011Y-120296108D01*
X158347075Y-120294601D01*
X158290409Y-120288432D01*
X158232100Y-120280068D01*
X158178658Y-120269987D01*
X158129018Y-120257956D01*
X158082114Y-120243744D01*
X158036880Y-120227118D01*
X158014721Y-120217765D01*
X157962706Y-120191402D01*
X157916409Y-120161163D01*
X157875881Y-120127102D01*
X157841173Y-120089271D01*
X157812337Y-120047723D01*
X157789424Y-120002511D01*
X157772484Y-119953688D01*
X157771688Y-119950734D01*
X157768918Y-119938758D01*
X157767026Y-119926446D01*
X157765865Y-119912134D01*
X157765285Y-119894159D01*
X157765141Y-119870857D01*
X157765141Y-119870642D01*
X157765144Y-119870067D01*
X157829279Y-119870067D01*
X157830185Y-119896575D01*
X157836669Y-119943192D01*
X157849484Y-119986968D01*
X157868736Y-120028159D01*
X157894531Y-120067017D01*
X157926974Y-120103797D01*
X157944884Y-120120587D01*
X157979888Y-120147955D01*
X158019231Y-120172270D01*
X158063195Y-120193622D01*
X158112062Y-120212098D01*
X158166113Y-120227787D01*
X158225629Y-120240777D01*
X158290893Y-120251156D01*
X158362185Y-120259012D01*
X158439788Y-120264434D01*
X158446686Y-120264775D01*
X158476687Y-120265879D01*
X158509887Y-120266587D01*
X158545264Y-120266918D01*
X158581800Y-120266890D01*
X158618477Y-120266521D01*
X158654274Y-120265831D01*
X158688173Y-120264837D01*
X158719155Y-120263558D01*
X158746199Y-120262012D01*
X158768289Y-120260218D01*
X158784403Y-120258194D01*
X158800147Y-120255569D01*
X158802357Y-120222400D01*
X158802766Y-120215410D01*
X158803588Y-120195842D01*
X158804350Y-120170427D01*
X158805047Y-120139948D01*
X158805675Y-120105185D01*
X158806229Y-120066921D01*
X158806706Y-120025935D01*
X158807101Y-119983010D01*
X158807410Y-119938928D01*
X158807629Y-119894469D01*
X158807754Y-119850414D01*
X158807779Y-119807546D01*
X158807702Y-119766646D01*
X158807518Y-119728495D01*
X158807222Y-119693875D01*
X158806811Y-119663566D01*
X158806279Y-119638351D01*
X158805624Y-119619010D01*
X158805593Y-119618301D01*
X158804429Y-119593386D01*
X158803279Y-119570863D01*
X158802197Y-119551652D01*
X158801238Y-119536673D01*
X158800457Y-119526845D01*
X158799909Y-119523089D01*
X158796999Y-119522005D01*
X158787455Y-119520607D01*
X158772144Y-119519325D01*
X158751779Y-119518165D01*
X158727071Y-119517134D01*
X158698734Y-119516239D01*
X158667478Y-119515487D01*
X158634018Y-119514886D01*
X158599064Y-119514440D01*
X158563330Y-119514159D01*
X158527527Y-119514047D01*
X158492368Y-119514113D01*
X158458566Y-119514363D01*
X158426832Y-119514804D01*
X158397879Y-119515443D01*
X158372420Y-119516287D01*
X158351166Y-119517342D01*
X158334830Y-119518615D01*
X158281659Y-119524727D01*
X158216698Y-119534528D01*
X158157831Y-119546373D01*
X158104677Y-119560396D01*
X158056857Y-119576730D01*
X158013992Y-119595510D01*
X157975701Y-119616869D01*
X157941604Y-119640942D01*
X157911322Y-119667861D01*
X157902748Y-119676707D01*
X157875711Y-119710016D01*
X157855066Y-119745462D01*
X157840593Y-119783590D01*
X157832070Y-119824944D01*
X157829279Y-119870067D01*
X157765144Y-119870067D01*
X157765268Y-119848679D01*
X157765725Y-119831999D01*
X157766694Y-119818903D01*
X157768361Y-119807692D01*
X157770907Y-119796668D01*
X157774517Y-119784132D01*
X157786199Y-119751279D01*
X157806246Y-119711105D01*
X157831644Y-119674976D01*
X157862838Y-119642175D01*
X157880911Y-119626536D01*
X157920318Y-119597821D01*
X157964415Y-119572336D01*
X158013457Y-119549996D01*
X158067702Y-119530716D01*
X158127405Y-119514410D01*
X158192823Y-119500993D01*
X158264212Y-119490379D01*
X158341827Y-119482482D01*
X158358511Y-119481322D01*
X158388017Y-119479868D01*
X158422447Y-119478711D01*
X158460574Y-119477858D01*
X158501168Y-119477314D01*
X158543002Y-119477083D01*
X158584848Y-119477170D01*
X158625476Y-119477582D01*
X158663660Y-119478324D01*
X158698170Y-119479400D01*
X158727778Y-119480817D01*
X158759607Y-119482769D01*
X158791017Y-119484873D01*
X158816133Y-119486795D01*
X158835334Y-119488570D01*
X158848997Y-119490236D01*
X158857502Y-119491826D01*
X158861227Y-119493377D01*
X158861521Y-119493986D01*
X158862681Y-119500175D01*
X158864053Y-119511947D01*
X158865535Y-119528224D01*
X158867026Y-119547926D01*
X158868425Y-119569975D01*
X158868914Y-119580919D01*
X158869459Y-119600330D01*
X158869916Y-119625202D01*
X158870286Y-119654879D01*
X158870573Y-119688706D01*
X158870778Y-119726026D01*
X158870905Y-119766184D01*
X158870955Y-119807546D01*
X158870956Y-119808524D01*
G37*
G36*
X148197416Y-116861167D02*
G01*
X148204941Y-116888351D01*
X148228552Y-116973647D01*
X148250429Y-117052689D01*
X148270676Y-117125853D01*
X148289396Y-117193514D01*
X148306691Y-117256049D01*
X148322665Y-117313833D01*
X148337420Y-117367241D01*
X148351060Y-117416650D01*
X148363686Y-117462435D01*
X148375402Y-117504972D01*
X148386311Y-117544637D01*
X148396516Y-117581804D01*
X148406120Y-117616851D01*
X148415224Y-117650152D01*
X148423933Y-117682084D01*
X148432349Y-117713022D01*
X148440575Y-117743341D01*
X148448714Y-117773418D01*
X148456869Y-117803628D01*
X148465143Y-117834347D01*
X148473638Y-117865950D01*
X148482457Y-117898814D01*
X148491703Y-117933314D01*
X148501480Y-117969825D01*
X148511890Y-118008724D01*
X148523035Y-118050386D01*
X148525071Y-118057995D01*
X148536132Y-118099292D01*
X148546691Y-118138646D01*
X148556604Y-118175520D01*
X148565726Y-118209380D01*
X148573913Y-118239690D01*
X148581019Y-118265916D01*
X148586901Y-118287521D01*
X148591412Y-118303972D01*
X148594409Y-118314732D01*
X148595747Y-118319267D01*
X148596631Y-118319188D01*
X148598554Y-118315053D01*
X148601512Y-118306310D01*
X148605579Y-118292686D01*
X148610832Y-118273905D01*
X148617344Y-118249693D01*
X148625191Y-118219775D01*
X148634447Y-118183877D01*
X148645188Y-118141725D01*
X148657488Y-118093044D01*
X148660333Y-118081751D01*
X148673315Y-118030325D01*
X148686645Y-117977685D01*
X148700174Y-117924401D01*
X148713757Y-117871046D01*
X148727246Y-117818190D01*
X148740494Y-117766404D01*
X148753355Y-117716261D01*
X148765681Y-117668332D01*
X148777326Y-117623188D01*
X148788143Y-117581401D01*
X148797985Y-117543541D01*
X148806704Y-117510182D01*
X148814155Y-117481892D01*
X148820190Y-117459246D01*
X148824661Y-117442813D01*
X148826266Y-117437085D01*
X148829901Y-117424208D01*
X148835268Y-117405250D01*
X148842266Y-117380570D01*
X148850794Y-117350526D01*
X148860748Y-117315476D01*
X148872027Y-117275778D01*
X148884529Y-117231791D01*
X148898153Y-117183873D01*
X148912797Y-117132382D01*
X148928358Y-117077678D01*
X148944735Y-117020117D01*
X148961826Y-116960058D01*
X148979529Y-116897861D01*
X148997742Y-116833882D01*
X149016364Y-116768480D01*
X149196427Y-116136131D01*
X149615388Y-116136104D01*
X149653820Y-116136114D01*
X149705967Y-116136166D01*
X149755825Y-116136262D01*
X149802966Y-116136398D01*
X149846962Y-116136571D01*
X149887385Y-116136779D01*
X149923807Y-116137018D01*
X149955800Y-116137285D01*
X149982935Y-116137578D01*
X150004786Y-116137894D01*
X150020924Y-116138230D01*
X150030920Y-116138583D01*
X150034348Y-116138949D01*
X150033756Y-116140798D01*
X150031019Y-116148905D01*
X150026119Y-116163267D01*
X150019127Y-116183674D01*
X150010117Y-116209918D01*
X149999160Y-116241790D01*
X149986328Y-116279082D01*
X149971692Y-116321585D01*
X149955326Y-116369091D01*
X149937300Y-116421391D01*
X149917687Y-116478277D01*
X149896558Y-116539540D01*
X149873986Y-116604971D01*
X149850043Y-116674363D01*
X149824800Y-116747506D01*
X149798329Y-116824191D01*
X149770703Y-116904212D01*
X149741993Y-116987358D01*
X149712272Y-117073421D01*
X149681610Y-117162193D01*
X149650081Y-117253465D01*
X149617755Y-117347029D01*
X149584706Y-117442676D01*
X149551005Y-117540198D01*
X149516723Y-117639385D01*
X148999099Y-119136949D01*
X149023701Y-119211768D01*
X149034980Y-119245607D01*
X149045001Y-119274477D01*
X149054185Y-119299365D01*
X149063082Y-119321649D01*
X149072245Y-119342709D01*
X149082223Y-119363921D01*
X149093567Y-119386666D01*
X149098818Y-119396795D01*
X149131247Y-119452204D01*
X149166840Y-119501415D01*
X149205720Y-119544527D01*
X149248014Y-119581639D01*
X149293844Y-119612851D01*
X149343337Y-119638260D01*
X149396617Y-119657967D01*
X149453809Y-119672069D01*
X149460700Y-119673309D01*
X149473128Y-119675096D01*
X149486877Y-119676419D01*
X149503082Y-119677337D01*
X149522877Y-119677904D01*
X149547397Y-119678176D01*
X149577777Y-119678211D01*
X149580059Y-119678206D01*
X149637185Y-119677180D01*
X149693568Y-119674363D01*
X149750661Y-119669610D01*
X149809921Y-119662776D01*
X149872802Y-119653720D01*
X149940759Y-119642295D01*
X149995863Y-119632469D01*
X149995878Y-119646704D01*
X149995861Y-119647943D01*
X149995579Y-119656252D01*
X149994974Y-119670692D01*
X149994080Y-119690610D01*
X149992929Y-119715353D01*
X149991554Y-119744270D01*
X149989987Y-119776706D01*
X149988263Y-119812010D01*
X149986413Y-119849530D01*
X149984470Y-119888611D01*
X149982468Y-119928603D01*
X149980439Y-119968852D01*
X149978416Y-120008705D01*
X149976432Y-120047510D01*
X149974520Y-120084615D01*
X149972712Y-120119367D01*
X149971042Y-120151112D01*
X149969542Y-120179199D01*
X149968246Y-120202976D01*
X149967186Y-120221788D01*
X149966394Y-120234985D01*
X149965905Y-120241912D01*
X149963962Y-120263105D01*
X149912564Y-120270916D01*
X149879908Y-120275741D01*
X149838772Y-120281301D01*
X149800666Y-120285741D01*
X149763384Y-120289314D01*
X149724720Y-120292269D01*
X149714621Y-120292958D01*
X149694278Y-120294355D01*
X149675797Y-120295636D01*
X149660885Y-120296682D01*
X149651248Y-120297374D01*
X149641445Y-120297861D01*
X149623387Y-120298231D01*
X149600392Y-120298329D01*
X149573619Y-120298179D01*
X149544228Y-120297806D01*
X149513379Y-120297237D01*
X149482231Y-120296495D01*
X149451945Y-120295607D01*
X149423680Y-120294597D01*
X149398596Y-120293492D01*
X149377854Y-120292315D01*
X149362612Y-120291093D01*
X149358417Y-120290659D01*
X149267658Y-120278743D01*
X149182052Y-120262441D01*
X149101210Y-120241625D01*
X149024743Y-120216166D01*
X148952264Y-120185935D01*
X148883385Y-120150805D01*
X148817717Y-120110646D01*
X148798051Y-120097322D01*
X148767068Y-120075055D01*
X148738450Y-120052549D01*
X148710583Y-120028444D01*
X148681852Y-120001382D01*
X148650642Y-119970004D01*
X148640663Y-119959609D01*
X148596497Y-119910568D01*
X148555247Y-119859372D01*
X148516249Y-119805054D01*
X148478841Y-119746648D01*
X148442360Y-119683188D01*
X148406143Y-119613708D01*
X148388837Y-119578536D01*
X148373334Y-119545836D01*
X148359232Y-119514557D01*
X148345645Y-119482678D01*
X148331688Y-119448179D01*
X148316476Y-119409039D01*
X148315569Y-119406580D01*
X148312075Y-119396735D01*
X148306434Y-119380578D01*
X148298720Y-119358320D01*
X148289003Y-119330171D01*
X148277356Y-119296342D01*
X148263850Y-119257043D01*
X148248557Y-119212484D01*
X148231550Y-119162876D01*
X148212899Y-119108428D01*
X148192677Y-119049351D01*
X148170956Y-118985855D01*
X148147808Y-118918151D01*
X148123303Y-118846449D01*
X148097516Y-118770958D01*
X148070516Y-118691890D01*
X148042376Y-118609454D01*
X148013169Y-118523862D01*
X147982965Y-118435322D01*
X147951836Y-118344045D01*
X147919855Y-118250242D01*
X147887094Y-118154124D01*
X147853623Y-118055899D01*
X147819516Y-117955778D01*
X147784844Y-117853972D01*
X147749678Y-117750692D01*
X147729419Y-117691182D01*
X147694726Y-117589277D01*
X147660636Y-117489146D01*
X147627218Y-117390991D01*
X147594541Y-117295013D01*
X147562674Y-117201415D01*
X147531685Y-117110398D01*
X147501644Y-117022166D01*
X147472618Y-116936920D01*
X147444678Y-116854862D01*
X147417891Y-116776195D01*
X147392327Y-116701120D01*
X147368055Y-116629839D01*
X147345143Y-116562555D01*
X147323659Y-116499470D01*
X147303674Y-116440786D01*
X147285255Y-116386704D01*
X147268472Y-116337428D01*
X147253394Y-116293159D01*
X147240088Y-116254099D01*
X147228625Y-116220450D01*
X147219072Y-116192415D01*
X147211499Y-116170195D01*
X147205974Y-116153993D01*
X147202567Y-116144011D01*
X147201346Y-116140450D01*
X147201351Y-116140276D01*
X147202979Y-116139598D01*
X147207434Y-116138992D01*
X147215038Y-116138456D01*
X147226111Y-116137984D01*
X147240974Y-116137574D01*
X147259947Y-116137222D01*
X147283352Y-116136925D01*
X147311510Y-116136679D01*
X147344739Y-116136480D01*
X147383363Y-116136326D01*
X147427701Y-116136212D01*
X147478074Y-116136135D01*
X147534802Y-116136091D01*
X147598208Y-116136077D01*
X147996700Y-116136077D01*
X148197416Y-116861167D01*
G37*
G36*
X159299013Y-119483957D02*
G01*
X159285406Y-119490899D01*
X159279609Y-119493373D01*
X159271972Y-119495465D01*
X159261664Y-119497188D01*
X159247605Y-119498684D01*
X159228713Y-119500095D01*
X159203907Y-119501561D01*
X159201724Y-119501681D01*
X159174106Y-119503262D01*
X159152577Y-119504691D01*
X159136294Y-119506104D01*
X159124414Y-119507639D01*
X159116094Y-119509431D01*
X159110490Y-119511616D01*
X159106760Y-119514332D01*
X159104061Y-119517715D01*
X159102170Y-119521297D01*
X159100230Y-119527027D01*
X159098546Y-119534846D01*
X159097105Y-119545164D01*
X159095897Y-119558388D01*
X159094908Y-119574929D01*
X159094127Y-119595194D01*
X159093541Y-119619593D01*
X159093138Y-119648535D01*
X159092907Y-119682429D01*
X159092834Y-119721684D01*
X159092909Y-119766708D01*
X159093118Y-119817910D01*
X159093450Y-119875700D01*
X159093513Y-119885270D01*
X159093852Y-119929629D01*
X159094259Y-119972589D01*
X159094721Y-120013530D01*
X159095230Y-120051828D01*
X159095775Y-120086861D01*
X159096346Y-120118008D01*
X159096931Y-120144647D01*
X159097522Y-120166154D01*
X159098107Y-120181909D01*
X159098677Y-120191288D01*
X159099203Y-120196899D01*
X159101645Y-120221684D01*
X159103759Y-120240493D01*
X159105680Y-120254167D01*
X159107539Y-120263547D01*
X159109472Y-120269473D01*
X159111611Y-120272785D01*
X159113220Y-120273894D01*
X159120921Y-120277248D01*
X159132803Y-120281278D01*
X159147047Y-120285341D01*
X159152482Y-120286824D01*
X159167670Y-120291591D01*
X159180742Y-120296536D01*
X159189344Y-120300799D01*
X159193267Y-120303489D01*
X159198175Y-120308466D01*
X159200266Y-120315170D01*
X159200715Y-120326230D01*
X159200632Y-120332827D01*
X159199538Y-120341092D01*
X159196270Y-120346222D01*
X159189700Y-120350721D01*
X159187941Y-120351633D01*
X159185557Y-120352514D01*
X159182287Y-120353295D01*
X159177750Y-120353983D01*
X159171563Y-120354585D01*
X159163345Y-120355104D01*
X159152714Y-120355548D01*
X159139287Y-120355922D01*
X159122684Y-120356232D01*
X159102520Y-120356483D01*
X159078416Y-120356682D01*
X159049988Y-120356833D01*
X159016855Y-120356944D01*
X158978635Y-120357018D01*
X158934945Y-120357063D01*
X158885405Y-120357084D01*
X158829631Y-120357087D01*
X158767241Y-120357077D01*
X158735801Y-120357069D01*
X158674071Y-120357040D01*
X158618659Y-120356985D01*
X158569101Y-120356891D01*
X158524936Y-120356748D01*
X158485703Y-120356542D01*
X158450938Y-120356262D01*
X158420180Y-120355896D01*
X158392966Y-120355432D01*
X158368836Y-120354859D01*
X158347325Y-120354164D01*
X158327973Y-120353334D01*
X158310317Y-120352360D01*
X158293896Y-120351227D01*
X158278246Y-120349925D01*
X158262907Y-120348442D01*
X158247415Y-120346765D01*
X158231309Y-120344883D01*
X158214127Y-120342783D01*
X158201486Y-120341140D01*
X158144264Y-120331936D01*
X158085039Y-120319791D01*
X158026052Y-120305246D01*
X157969540Y-120288842D01*
X157917744Y-120271122D01*
X157899698Y-120264203D01*
X157835238Y-120236380D01*
X157775924Y-120205705D01*
X157721973Y-120172365D01*
X157673597Y-120136546D01*
X157631013Y-120098437D01*
X157594435Y-120058224D01*
X157564077Y-120016094D01*
X157540155Y-119972235D01*
X157522883Y-119926835D01*
X157519976Y-119916749D01*
X157516624Y-119902562D01*
X157514564Y-119888575D01*
X157513483Y-119872391D01*
X157513283Y-119862363D01*
X157578069Y-119862363D01*
X157581296Y-119894450D01*
X157587944Y-119923336D01*
X157598022Y-119950949D01*
X157619843Y-119994695D01*
X157647997Y-120036338D01*
X157682231Y-120075739D01*
X157722292Y-120112760D01*
X157767928Y-120147261D01*
X157818885Y-120179103D01*
X157874910Y-120208149D01*
X157935752Y-120234259D01*
X158001156Y-120257294D01*
X158070870Y-120277116D01*
X158144641Y-120293586D01*
X158222216Y-120306565D01*
X158303342Y-120315914D01*
X158306601Y-120316204D01*
X158318115Y-120317142D01*
X158330231Y-120317975D01*
X158343405Y-120318709D01*
X158358095Y-120319349D01*
X158374757Y-120319903D01*
X158393848Y-120320376D01*
X158415825Y-120320776D01*
X158441144Y-120321107D01*
X158470263Y-120321377D01*
X158503638Y-120321591D01*
X158541726Y-120321756D01*
X158584985Y-120321879D01*
X158633870Y-120321965D01*
X158688838Y-120322020D01*
X158750347Y-120322052D01*
X158757539Y-120322054D01*
X158808091Y-120322043D01*
X158856479Y-120321990D01*
X158902264Y-120321897D01*
X158945007Y-120321768D01*
X158984268Y-120321604D01*
X159019609Y-120321410D01*
X159050589Y-120321187D01*
X159076769Y-120320937D01*
X159097709Y-120320665D01*
X159112971Y-120320372D01*
X159122114Y-120320062D01*
X159124700Y-120319737D01*
X159122906Y-120319086D01*
X159114660Y-120316397D01*
X159102424Y-120312608D01*
X159088126Y-120308320D01*
X159081356Y-120306266D01*
X159065434Y-120300427D01*
X159054667Y-120293823D01*
X159047755Y-120285000D01*
X159043396Y-120272504D01*
X159040287Y-120254880D01*
X159038743Y-120243384D01*
X159036639Y-120225361D01*
X159034801Y-120206108D01*
X159033212Y-120185102D01*
X159031857Y-120161818D01*
X159030721Y-120135732D01*
X159029787Y-120106319D01*
X159029040Y-120073055D01*
X159028464Y-120035416D01*
X159028044Y-119992878D01*
X159027763Y-119944915D01*
X159027606Y-119891005D01*
X159027557Y-119830623D01*
X159027560Y-119798629D01*
X159027588Y-119749667D01*
X159027667Y-119706950D01*
X159027821Y-119670005D01*
X159028075Y-119638358D01*
X159028454Y-119611538D01*
X159028981Y-119589069D01*
X159029682Y-119570480D01*
X159030581Y-119555298D01*
X159031702Y-119543048D01*
X159033071Y-119533258D01*
X159034711Y-119525454D01*
X159036648Y-119519165D01*
X159038906Y-119513915D01*
X159041509Y-119509233D01*
X159044482Y-119504645D01*
X159046549Y-119501739D01*
X159054634Y-119492992D01*
X159064923Y-119485883D01*
X159078214Y-119480186D01*
X159095304Y-119475675D01*
X159116991Y-119472123D01*
X159144074Y-119469305D01*
X159177351Y-119466995D01*
X159185907Y-119466468D01*
X159203269Y-119465209D01*
X159217499Y-119463918D01*
X159227311Y-119462721D01*
X159231420Y-119461741D01*
X159230823Y-119461514D01*
X159224741Y-119461153D01*
X159212727Y-119460925D01*
X159195495Y-119460830D01*
X159173756Y-119460866D01*
X159148223Y-119461035D01*
X159119608Y-119461336D01*
X159088624Y-119461769D01*
X159069499Y-119462011D01*
X159037147Y-119462250D01*
X158999450Y-119462372D01*
X158957376Y-119462380D01*
X158911892Y-119462279D01*
X158863967Y-119462071D01*
X158814568Y-119461759D01*
X158764661Y-119461348D01*
X158715216Y-119460841D01*
X158667199Y-119460242D01*
X158641147Y-119459895D01*
X158571801Y-119459090D01*
X158509427Y-119458551D01*
X158454009Y-119458280D01*
X158405532Y-119458276D01*
X158363980Y-119458538D01*
X158329339Y-119459068D01*
X158301593Y-119459865D01*
X158261760Y-119461605D01*
X158193934Y-119465751D01*
X158131945Y-119471263D01*
X158075108Y-119478280D01*
X158022735Y-119486938D01*
X157974139Y-119497375D01*
X157928633Y-119509730D01*
X157885530Y-119524140D01*
X157844142Y-119540743D01*
X157803782Y-119559676D01*
X157762159Y-119582261D01*
X157716129Y-119612181D01*
X157676727Y-119644035D01*
X157643879Y-119677902D01*
X157617507Y-119713863D01*
X157597538Y-119751997D01*
X157583896Y-119792384D01*
X157582218Y-119799762D01*
X157578347Y-119829869D01*
X157578069Y-119862363D01*
X157513283Y-119862363D01*
X157513069Y-119851614D01*
X157513460Y-119826299D01*
X157515645Y-119802379D01*
X157520183Y-119780713D01*
X157527600Y-119758868D01*
X157538423Y-119734411D01*
X157557809Y-119699733D01*
X157586551Y-119661341D01*
X157621902Y-119625153D01*
X157663875Y-119591159D01*
X157712480Y-119559348D01*
X157767728Y-119529711D01*
X157787920Y-119520116D01*
X157833585Y-119500441D01*
X157879067Y-119483925D01*
X157926144Y-119470016D01*
X157976595Y-119458164D01*
X158032199Y-119447818D01*
X158036836Y-119447051D01*
X158063504Y-119442854D01*
X158089900Y-119439107D01*
X158116509Y-119435794D01*
X158143814Y-119432898D01*
X158172302Y-119430401D01*
X158202455Y-119428288D01*
X158234759Y-119426541D01*
X158269697Y-119425143D01*
X158307755Y-119424077D01*
X158349416Y-119423328D01*
X158395165Y-119422877D01*
X158445487Y-119422708D01*
X158500865Y-119422804D01*
X158561785Y-119423148D01*
X158628730Y-119423724D01*
X158702185Y-119424514D01*
X158727387Y-119424798D01*
X158791246Y-119425441D01*
X158852089Y-119425941D01*
X158909418Y-119426297D01*
X158962737Y-119426509D01*
X159011548Y-119426576D01*
X159055353Y-119426497D01*
X159093654Y-119426270D01*
X159125955Y-119425895D01*
X159151758Y-119425372D01*
X159173768Y-119424788D01*
X159200689Y-119424115D01*
X159221977Y-119423684D01*
X159238440Y-119423521D01*
X159250887Y-119423655D01*
X159260128Y-119424113D01*
X159266972Y-119424920D01*
X159272227Y-119426105D01*
X159276702Y-119427696D01*
X159281207Y-119429718D01*
X159296951Y-119437104D01*
X159297982Y-119460531D01*
X159298035Y-119461741D01*
X159299013Y-119483957D01*
G37*
G36*
X154694813Y-120344599D02*
G01*
X154682539Y-120350896D01*
X154681635Y-120351338D01*
X154679146Y-120352313D01*
X154675875Y-120353173D01*
X154671407Y-120353925D01*
X154665328Y-120354575D01*
X154657224Y-120355129D01*
X154646680Y-120355596D01*
X154633282Y-120355981D01*
X154616616Y-120356292D01*
X154596267Y-120356535D01*
X154571821Y-120356717D01*
X154542864Y-120356844D01*
X154508982Y-120356925D01*
X154469759Y-120356964D01*
X154424782Y-120356970D01*
X154373637Y-120356949D01*
X154315908Y-120356908D01*
X154277047Y-120356886D01*
X154221586Y-120356878D01*
X154172492Y-120356868D01*
X154129378Y-120356820D01*
X154091862Y-120356696D01*
X154059556Y-120356459D01*
X154032076Y-120356072D01*
X154009038Y-120355497D01*
X153990055Y-120354697D01*
X153974744Y-120353635D01*
X153962718Y-120352274D01*
X153953593Y-120350575D01*
X153946983Y-120348503D01*
X153942505Y-120346019D01*
X153939771Y-120343086D01*
X153938399Y-120339667D01*
X153938001Y-120335725D01*
X153938194Y-120331223D01*
X153938592Y-120326122D01*
X153938810Y-120320387D01*
X153938810Y-120319555D01*
X154005284Y-120319555D01*
X154008444Y-120319928D01*
X154018118Y-120320299D01*
X154033816Y-120320649D01*
X154055041Y-120320974D01*
X154081296Y-120321268D01*
X154112085Y-120321529D01*
X154146912Y-120321752D01*
X154185279Y-120321933D01*
X154226691Y-120322067D01*
X154270651Y-120322150D01*
X154316662Y-120322179D01*
X154360928Y-120322158D01*
X154404976Y-120322094D01*
X154446496Y-120321989D01*
X154484990Y-120321848D01*
X154519963Y-120321674D01*
X154550918Y-120321469D01*
X154577357Y-120321237D01*
X154598786Y-120320982D01*
X154614707Y-120320707D01*
X154624623Y-120320414D01*
X154628039Y-120320108D01*
X154624948Y-120319358D01*
X154615925Y-120318446D01*
X154602060Y-120317474D01*
X154584450Y-120316518D01*
X154564189Y-120315654D01*
X154539937Y-120314596D01*
X154506594Y-120312345D01*
X154479203Y-120309112D01*
X154457130Y-120304574D01*
X154439743Y-120298402D01*
X154426407Y-120290273D01*
X154416489Y-120279859D01*
X154409356Y-120266836D01*
X154404375Y-120250876D01*
X154400911Y-120231655D01*
X154400611Y-120228756D01*
X154399988Y-120217529D01*
X154399427Y-120200231D01*
X154398927Y-120177498D01*
X154398489Y-120149970D01*
X154398113Y-120118285D01*
X154397800Y-120083081D01*
X154397549Y-120044995D01*
X154397360Y-120004667D01*
X154397234Y-119962734D01*
X154397172Y-119919834D01*
X154397173Y-119876606D01*
X154397237Y-119833688D01*
X154397365Y-119791718D01*
X154397556Y-119751335D01*
X154397812Y-119713175D01*
X154398132Y-119677878D01*
X154398516Y-119646082D01*
X154398966Y-119618425D01*
X154399479Y-119595544D01*
X154400059Y-119578079D01*
X154400703Y-119566668D01*
X154400912Y-119564197D01*
X154403387Y-119541968D01*
X154407042Y-119523618D01*
X154412524Y-119508729D01*
X154420478Y-119496885D01*
X154431551Y-119487672D01*
X154446390Y-119480673D01*
X154465639Y-119475471D01*
X154489946Y-119471652D01*
X154519957Y-119468799D01*
X154556317Y-119466496D01*
X154560620Y-119466260D01*
X154581505Y-119465086D01*
X154599629Y-119464017D01*
X154613937Y-119463119D01*
X154623370Y-119462458D01*
X154626873Y-119462100D01*
X154623742Y-119462016D01*
X154614099Y-119461934D01*
X154598434Y-119461856D01*
X154577242Y-119461784D01*
X154551018Y-119461718D01*
X154520256Y-119461660D01*
X154485453Y-119461610D01*
X154447102Y-119461569D01*
X154405698Y-119461539D01*
X154361738Y-119461520D01*
X154315715Y-119461512D01*
X154270381Y-119461520D01*
X154226595Y-119461543D01*
X154185435Y-119461582D01*
X154147389Y-119461634D01*
X154112940Y-119461699D01*
X154082575Y-119461775D01*
X154056780Y-119461861D01*
X154036039Y-119461956D01*
X154020839Y-119462058D01*
X154011665Y-119462167D01*
X154009002Y-119462281D01*
X154009181Y-119462306D01*
X154014694Y-119462752D01*
X154025923Y-119463478D01*
X154041703Y-119464413D01*
X154060868Y-119465490D01*
X154082254Y-119466637D01*
X154104016Y-119467901D01*
X154135932Y-119470491D01*
X154161904Y-119473973D01*
X154182595Y-119478739D01*
X154198665Y-119485185D01*
X154210777Y-119493704D01*
X154219591Y-119504690D01*
X154225768Y-119518538D01*
X154229970Y-119535641D01*
X154232858Y-119556394D01*
X154233053Y-119558460D01*
X154233768Y-119571082D01*
X154234371Y-119590627D01*
X154234861Y-119617036D01*
X154235238Y-119650250D01*
X154235502Y-119690210D01*
X154235653Y-119736858D01*
X154235689Y-119790135D01*
X154235611Y-119849981D01*
X154235418Y-119916339D01*
X154235258Y-119961140D01*
X154235066Y-120012938D01*
X154234864Y-120058501D01*
X154234626Y-120098261D01*
X154234327Y-120132645D01*
X154233939Y-120162085D01*
X154233438Y-120187009D01*
X154232796Y-120207847D01*
X154231988Y-120225028D01*
X154230988Y-120238983D01*
X154229768Y-120250140D01*
X154228304Y-120258930D01*
X154226569Y-120265782D01*
X154224537Y-120271125D01*
X154222181Y-120275390D01*
X154219476Y-120279005D01*
X154216396Y-120282401D01*
X154212913Y-120286006D01*
X154211500Y-120287390D01*
X154198040Y-120296062D01*
X154178228Y-120303346D01*
X154152524Y-120309160D01*
X154121386Y-120313417D01*
X154085273Y-120316035D01*
X154044644Y-120316928D01*
X154030485Y-120317106D01*
X154017416Y-120317664D01*
X154008550Y-120318511D01*
X154005284Y-120319555D01*
X153938810Y-120319555D01*
X153938810Y-120296033D01*
X153951930Y-120290170D01*
X153956887Y-120288395D01*
X153965213Y-120286587D01*
X153976887Y-120285093D01*
X153992821Y-120283827D01*
X154013929Y-120282702D01*
X154041122Y-120281630D01*
X154047365Y-120281399D01*
X154070962Y-120280334D01*
X154093080Y-120279053D01*
X154112340Y-120277654D01*
X154127362Y-120276233D01*
X154136768Y-120274888D01*
X154137214Y-120274796D01*
X154145583Y-120272751D01*
X154152218Y-120269993D01*
X154157356Y-120265736D01*
X154161233Y-120259194D01*
X154164086Y-120249583D01*
X154166151Y-120236118D01*
X154167667Y-120218012D01*
X154168869Y-120194482D01*
X154169995Y-120164741D01*
X154170091Y-120161934D01*
X154170824Y-120134891D01*
X154171436Y-120101956D01*
X154171927Y-120064117D01*
X154172296Y-120022359D01*
X154172543Y-119977669D01*
X154172668Y-119931033D01*
X154172671Y-119883438D01*
X154172551Y-119835869D01*
X154172309Y-119789313D01*
X154171943Y-119744758D01*
X154171455Y-119703187D01*
X154170844Y-119665590D01*
X154170109Y-119632950D01*
X154169985Y-119628364D01*
X154169078Y-119597760D01*
X154168104Y-119573288D01*
X154166925Y-119554182D01*
X154165405Y-119539680D01*
X154163406Y-119529017D01*
X154160789Y-119521430D01*
X154157417Y-119516154D01*
X154153153Y-119512427D01*
X154147859Y-119509483D01*
X154142806Y-119508050D01*
X154130103Y-119506226D01*
X154110609Y-119504474D01*
X154084444Y-119502804D01*
X154051725Y-119501228D01*
X154048396Y-119501086D01*
X154021328Y-119499857D01*
X154000231Y-119498710D01*
X153984180Y-119497548D01*
X153972254Y-119496276D01*
X153963526Y-119494797D01*
X153957075Y-119493015D01*
X153951976Y-119490833D01*
X153938810Y-119484117D01*
X153938810Y-119460128D01*
X153938810Y-119436140D01*
X153955429Y-119429237D01*
X153958904Y-119427856D01*
X153962975Y-119426537D01*
X153967767Y-119425475D01*
X153973908Y-119424658D01*
X153982026Y-119424074D01*
X153992747Y-119423711D01*
X154006699Y-119423557D01*
X154024510Y-119423599D01*
X154046807Y-119423824D01*
X154074218Y-119424221D01*
X154107369Y-119424777D01*
X154146890Y-119425480D01*
X154193620Y-119426169D01*
X154253355Y-119426687D01*
X154315314Y-119426877D01*
X154377195Y-119426738D01*
X154436692Y-119426271D01*
X154491504Y-119425476D01*
X154519367Y-119424962D01*
X154553758Y-119424353D01*
X154582238Y-119423905D01*
X154605445Y-119423631D01*
X154624018Y-119423543D01*
X154638594Y-119423655D01*
X154649813Y-119423978D01*
X154658314Y-119424527D01*
X154664733Y-119425314D01*
X154669711Y-119426352D01*
X154673885Y-119427654D01*
X154677894Y-119429232D01*
X154694513Y-119436140D01*
X154694513Y-119460128D01*
X154694513Y-119484117D01*
X154681313Y-119490851D01*
X154676624Y-119492885D01*
X154670103Y-119494752D01*
X154661283Y-119496310D01*
X154649224Y-119497663D01*
X154632987Y-119498915D01*
X154611634Y-119500167D01*
X154584226Y-119501524D01*
X154560059Y-119502680D01*
X154535749Y-119503950D01*
X154516977Y-119505146D01*
X154502940Y-119506387D01*
X154492832Y-119507790D01*
X154485850Y-119509472D01*
X154481189Y-119511550D01*
X154478045Y-119514143D01*
X154475612Y-119517366D01*
X154475384Y-119517722D01*
X154473257Y-119521999D01*
X154471381Y-119527915D01*
X154469734Y-119535917D01*
X154468297Y-119546451D01*
X154467050Y-119559963D01*
X154465972Y-119576901D01*
X154465043Y-119597710D01*
X154464242Y-119622837D01*
X154463550Y-119652729D01*
X154462946Y-119687832D01*
X154462409Y-119728593D01*
X154461921Y-119775458D01*
X154461459Y-119828873D01*
X154461083Y-119882597D01*
X154460806Y-119946543D01*
X154460777Y-120003880D01*
X154460999Y-120054824D01*
X154461480Y-120099593D01*
X154462224Y-120138403D01*
X154463237Y-120171472D01*
X154464525Y-120199017D01*
X154466093Y-120221254D01*
X154467946Y-120238401D01*
X154470092Y-120250676D01*
X154472534Y-120258294D01*
X154473970Y-120261053D01*
X154479455Y-120269054D01*
X154484383Y-120273131D01*
X154488662Y-120274055D01*
X154499995Y-120275541D01*
X154516003Y-120277070D01*
X154535297Y-120278549D01*
X154556488Y-120279883D01*
X154578186Y-120280979D01*
X154599001Y-120281744D01*
X154617543Y-120282085D01*
X154621460Y-120282114D01*
X154641541Y-120282602D01*
X154656455Y-120283748D01*
X154667762Y-120285724D01*
X154677020Y-120288705D01*
X154692764Y-120295073D01*
X154693788Y-120319836D01*
X154693799Y-120320108D01*
X154694813Y-120344599D01*
G37*
G36*
X158261518Y-114823791D02*
G01*
X158373718Y-114830226D01*
X158482798Y-114842060D01*
X158588257Y-114859245D01*
X158689595Y-114881734D01*
X158705009Y-114885735D01*
X158786635Y-114910000D01*
X158867291Y-114939033D01*
X158945843Y-114972324D01*
X159021158Y-115009362D01*
X159092102Y-115049635D01*
X159157542Y-115092634D01*
X159169735Y-115101369D01*
X159243472Y-115158304D01*
X159310738Y-115217788D01*
X159371637Y-115279993D01*
X159426275Y-115345093D01*
X159474756Y-115413262D01*
X159517185Y-115484672D01*
X159553666Y-115559497D01*
X159584303Y-115637912D01*
X159609202Y-115720088D01*
X159628467Y-115806200D01*
X159642203Y-115896422D01*
X159643484Y-115910446D01*
X159644721Y-115932476D01*
X159645653Y-115959196D01*
X159646280Y-115989358D01*
X159646603Y-116021714D01*
X159646622Y-116055017D01*
X159646337Y-116088018D01*
X159645749Y-116119470D01*
X159644856Y-116148125D01*
X159643660Y-116172736D01*
X159642161Y-116192055D01*
X159637860Y-116230662D01*
X159625233Y-116316717D01*
X159608867Y-116397386D01*
X159588614Y-116473131D01*
X159564324Y-116544412D01*
X159535847Y-116611692D01*
X159503034Y-116675431D01*
X159465734Y-116736091D01*
X159455391Y-116751220D01*
X159410115Y-116810456D01*
X159358533Y-116867704D01*
X159300597Y-116922995D01*
X159236258Y-116976361D01*
X159165466Y-117027834D01*
X159088173Y-117077446D01*
X159004330Y-117125229D01*
X158913888Y-117171215D01*
X158816797Y-117215435D01*
X158713009Y-117257923D01*
X158602474Y-117298709D01*
X158582002Y-117305816D01*
X158559206Y-117313552D01*
X158535434Y-117321416D01*
X158510047Y-117329607D01*
X158482404Y-117338320D01*
X158451867Y-117347754D01*
X158417795Y-117358107D01*
X158379549Y-117369575D01*
X158336489Y-117382356D01*
X158287976Y-117396648D01*
X158233370Y-117412648D01*
X158220448Y-117416434D01*
X158145519Y-117438753D01*
X158076903Y-117459871D01*
X158014134Y-117479963D01*
X157956746Y-117499204D01*
X157904274Y-117517767D01*
X157856253Y-117535827D01*
X157812215Y-117553559D01*
X157771696Y-117571135D01*
X157734230Y-117588732D01*
X157699351Y-117606522D01*
X157666593Y-117624680D01*
X157617775Y-117655211D01*
X157572377Y-117689205D01*
X157533193Y-117725385D01*
X157499877Y-117764278D01*
X157472084Y-117806412D01*
X157449468Y-117852314D01*
X157431685Y-117902512D01*
X157418390Y-117957531D01*
X157409237Y-118017901D01*
X157407502Y-118038505D01*
X157406380Y-118066429D01*
X157406127Y-118097399D01*
X157406692Y-118129744D01*
X157408023Y-118161794D01*
X157410069Y-118191880D01*
X157412778Y-118218331D01*
X157416098Y-118239478D01*
X157420165Y-118258198D01*
X157436357Y-118314215D01*
X157457725Y-118365704D01*
X157484361Y-118412762D01*
X157516358Y-118455489D01*
X157553809Y-118493984D01*
X157596805Y-118528344D01*
X157645439Y-118558670D01*
X157699803Y-118585061D01*
X157759990Y-118607614D01*
X157779988Y-118613957D01*
X157826872Y-118627137D01*
X157874082Y-118637880D01*
X157922701Y-118646332D01*
X157973810Y-118652637D01*
X158028491Y-118656939D01*
X158087828Y-118659384D01*
X158152901Y-118660115D01*
X158158401Y-118660108D01*
X158190016Y-118660003D01*
X158215875Y-118659760D01*
X158237054Y-118659326D01*
X158254626Y-118658650D01*
X158269666Y-118657680D01*
X158283249Y-118656362D01*
X158296449Y-118654646D01*
X158310339Y-118652478D01*
X158318614Y-118651078D01*
X158392350Y-118635349D01*
X158461579Y-118614432D01*
X158526669Y-118588137D01*
X158587991Y-118556275D01*
X158645913Y-118518656D01*
X158700805Y-118475090D01*
X158753037Y-118425389D01*
X158800042Y-118372138D01*
X158843973Y-118312357D01*
X158883469Y-118247413D01*
X158918569Y-118177225D01*
X158949315Y-118101709D01*
X158975749Y-118020785D01*
X158997910Y-117934369D01*
X158999851Y-117925765D01*
X159003680Y-117909006D01*
X159006850Y-117895427D01*
X159009073Y-117886246D01*
X159010063Y-117882679D01*
X159011300Y-117883005D01*
X159018402Y-117885151D01*
X159031372Y-117889159D01*
X159049710Y-117894873D01*
X159072916Y-117902134D01*
X159100490Y-117910784D01*
X159131932Y-117920665D01*
X159166743Y-117931620D01*
X159204421Y-117943490D01*
X159244467Y-117956117D01*
X159286382Y-117969343D01*
X159329665Y-117983011D01*
X159373817Y-117996962D01*
X159418336Y-118011038D01*
X159462725Y-118025082D01*
X159506481Y-118038935D01*
X159549107Y-118052439D01*
X159590100Y-118065437D01*
X159628963Y-118077769D01*
X159665194Y-118089280D01*
X159698294Y-118099809D01*
X159727763Y-118109200D01*
X159753100Y-118117294D01*
X159773807Y-118123933D01*
X159789382Y-118128960D01*
X159806000Y-118134353D01*
X159806000Y-118158034D01*
X159806000Y-118158254D01*
X159804430Y-118175784D01*
X159800009Y-118198724D01*
X159793031Y-118226249D01*
X159783790Y-118257532D01*
X159772577Y-118291747D01*
X159759687Y-118328068D01*
X159745412Y-118365668D01*
X159730045Y-118403722D01*
X159713879Y-118441403D01*
X159697207Y-118477885D01*
X159680324Y-118512342D01*
X159675107Y-118522493D01*
X159625721Y-118610480D01*
X159571399Y-118693534D01*
X159512197Y-118771621D01*
X159448173Y-118844706D01*
X159379383Y-118912757D01*
X159305884Y-118975739D01*
X159227731Y-119033619D01*
X159144983Y-119086363D01*
X159057695Y-119133937D01*
X158965925Y-119176308D01*
X158869728Y-119213442D01*
X158769162Y-119245305D01*
X158664283Y-119271864D01*
X158555147Y-119293084D01*
X158441812Y-119308933D01*
X158324334Y-119319376D01*
X158321246Y-119319567D01*
X158299183Y-119320582D01*
X158271583Y-119321402D01*
X158239693Y-119322026D01*
X158204758Y-119322450D01*
X158168027Y-119322676D01*
X158130745Y-119322700D01*
X158094160Y-119322522D01*
X158059518Y-119322140D01*
X158028066Y-119321553D01*
X158001051Y-119320759D01*
X157979720Y-119319757D01*
X157913974Y-119314994D01*
X157809056Y-119304032D01*
X157709015Y-119289165D01*
X157613193Y-119270272D01*
X157520931Y-119247235D01*
X157431571Y-119219933D01*
X157374109Y-119199566D01*
X157285256Y-119163059D01*
X157201476Y-119122071D01*
X157122416Y-119076393D01*
X157047726Y-119025817D01*
X156977054Y-118970133D01*
X156910050Y-118909132D01*
X156858432Y-118855931D01*
X156810450Y-118799923D01*
X156767695Y-118742324D01*
X156729285Y-118681941D01*
X156694335Y-118617579D01*
X156688388Y-118605574D01*
X156658782Y-118540101D01*
X156633445Y-118473273D01*
X156612092Y-118404083D01*
X156594442Y-118331525D01*
X156580209Y-118254592D01*
X156569113Y-118172276D01*
X156568943Y-118170731D01*
X156567275Y-118150000D01*
X156566000Y-118123638D01*
X156565110Y-118092888D01*
X156564600Y-118058995D01*
X156564461Y-118023201D01*
X156564687Y-117986750D01*
X156565270Y-117950885D01*
X156566203Y-117916850D01*
X156567480Y-117885888D01*
X156569092Y-117859243D01*
X156571034Y-117838157D01*
X156580798Y-117767631D01*
X156597139Y-117681961D01*
X156617924Y-117601375D01*
X156643318Y-117525563D01*
X156673487Y-117454216D01*
X156708596Y-117387026D01*
X156748809Y-117323682D01*
X156794292Y-117263876D01*
X156845211Y-117207300D01*
X156901729Y-117153642D01*
X156964013Y-117102596D01*
X156967447Y-117099979D01*
X157028138Y-117056254D01*
X157092731Y-117014377D01*
X157161568Y-116974195D01*
X157234992Y-116935550D01*
X157313346Y-116898289D01*
X157396970Y-116862255D01*
X157486208Y-116827293D01*
X157581402Y-116793249D01*
X157682894Y-116759966D01*
X157791027Y-116727289D01*
X157793489Y-116726574D01*
X157825329Y-116717296D01*
X157859335Y-116707353D01*
X157893729Y-116697265D01*
X157926735Y-116687555D01*
X157956574Y-116678745D01*
X157981469Y-116671357D01*
X157988623Y-116669228D01*
X158015604Y-116661239D01*
X158043371Y-116653070D01*
X158070052Y-116645268D01*
X158093774Y-116638382D01*
X158112667Y-116632958D01*
X158130042Y-116627964D01*
X158211304Y-116603156D01*
X158288554Y-116577144D01*
X158361046Y-116550202D01*
X158428033Y-116522606D01*
X158488769Y-116494628D01*
X158519221Y-116479235D01*
X158568449Y-116451750D01*
X158611539Y-116423861D01*
X158649035Y-116395088D01*
X158681484Y-116364953D01*
X158709430Y-116332977D01*
X158733418Y-116298681D01*
X158753994Y-116261585D01*
X158756023Y-116257410D01*
X158776104Y-116208689D01*
X158791839Y-116156032D01*
X158803129Y-116100692D01*
X158809870Y-116043922D01*
X158811962Y-115986975D01*
X158809301Y-115931104D01*
X158801786Y-115877561D01*
X158789314Y-115827600D01*
X158772876Y-115783592D01*
X158748373Y-115736043D01*
X158718150Y-115692332D01*
X158682328Y-115652540D01*
X158641030Y-115616749D01*
X158594377Y-115585040D01*
X158542492Y-115557494D01*
X158485498Y-115534194D01*
X158423515Y-115515222D01*
X158356666Y-115500658D01*
X158285074Y-115490584D01*
X158271460Y-115489308D01*
X158240478Y-115487279D01*
X158206335Y-115485996D01*
X158170719Y-115485456D01*
X158135316Y-115485658D01*
X158101812Y-115486603D01*
X158071894Y-115488289D01*
X158047247Y-115490715D01*
X158001939Y-115498007D01*
X157937045Y-115513791D01*
X157875960Y-115535401D01*
X157818574Y-115562886D01*
X157764779Y-115596293D01*
X157714466Y-115635669D01*
X157698753Y-115649936D01*
X157657330Y-115693344D01*
X157618324Y-115742888D01*
X157581937Y-115798183D01*
X157548370Y-115858844D01*
X157517825Y-115924486D01*
X157490504Y-115994724D01*
X157466608Y-116069173D01*
X157446339Y-116147448D01*
X157446241Y-116147874D01*
X157442287Y-116163687D01*
X157438467Y-116176621D01*
X157435213Y-116185352D01*
X157432954Y-116188557D01*
X157432690Y-116188528D01*
X157427424Y-116187333D01*
X157416301Y-116184526D01*
X157400080Y-116180309D01*
X157379521Y-116174880D01*
X157355382Y-116168440D01*
X157328422Y-116161190D01*
X157299400Y-116153329D01*
X157276158Y-116147012D01*
X157245834Y-116138770D01*
X157210443Y-116129150D01*
X157170851Y-116118389D01*
X157127925Y-116106721D01*
X157082531Y-116094383D01*
X157035534Y-116081609D01*
X156987802Y-116068634D01*
X156940199Y-116055695D01*
X156893593Y-116043027D01*
X156871932Y-116037137D01*
X156830302Y-116025803D01*
X156790903Y-116015059D01*
X156754239Y-116005043D01*
X156720811Y-115995892D01*
X156691122Y-115987746D01*
X156665674Y-115980741D01*
X156644970Y-115975016D01*
X156629512Y-115970708D01*
X156619802Y-115967956D01*
X156616343Y-115966898D01*
X156616289Y-115966770D01*
X156617129Y-115962295D01*
X156619981Y-115952339D01*
X156624512Y-115937878D01*
X156630390Y-115919883D01*
X156637283Y-115899330D01*
X156644857Y-115877191D01*
X156652779Y-115854440D01*
X156660718Y-115832049D01*
X156668341Y-115810994D01*
X156675315Y-115792247D01*
X156681307Y-115776781D01*
X156722110Y-115681803D01*
X156769189Y-115587142D01*
X156820454Y-115498077D01*
X156875922Y-115414588D01*
X156935608Y-115336657D01*
X156999528Y-115264268D01*
X157067699Y-115197400D01*
X157140136Y-115136037D01*
X157216855Y-115080161D01*
X157297872Y-115029753D01*
X157383204Y-114984795D01*
X157452081Y-114953608D01*
X157533826Y-114921811D01*
X157617962Y-114894664D01*
X157705060Y-114872037D01*
X157795695Y-114853800D01*
X157890440Y-114839825D01*
X157989866Y-114829982D01*
X158094546Y-114824142D01*
X158146698Y-114822804D01*
X158261518Y-114823791D01*
G37*
G36*
X153869271Y-119920824D02*
G01*
X153864754Y-119961366D01*
X153855307Y-119999152D01*
X153840489Y-120035382D01*
X153819860Y-120071255D01*
X153792979Y-120107970D01*
X153777903Y-120125249D01*
X153748080Y-120153716D01*
X153712666Y-120181853D01*
X153672521Y-120209093D01*
X153628501Y-120234873D01*
X153581468Y-120258624D01*
X153532278Y-120279782D01*
X153484898Y-120296828D01*
X153428841Y-120313793D01*
X153368492Y-120329188D01*
X153305213Y-120342726D01*
X153240362Y-120354115D01*
X153175300Y-120363068D01*
X153111386Y-120369295D01*
X153106975Y-120369630D01*
X153088247Y-120371071D01*
X153071403Y-120372395D01*
X153058142Y-120373465D01*
X153050160Y-120374148D01*
X153048565Y-120374280D01*
X153036972Y-120374834D01*
X153019583Y-120375263D01*
X152997389Y-120375570D01*
X152971383Y-120375761D01*
X152942558Y-120375839D01*
X152911906Y-120375807D01*
X152880420Y-120375671D01*
X152849091Y-120375433D01*
X152818913Y-120375098D01*
X152790877Y-120374670D01*
X152765976Y-120374152D01*
X152745203Y-120373549D01*
X152729550Y-120372865D01*
X152700024Y-120371080D01*
X152594640Y-120362755D01*
X152491768Y-120351380D01*
X152388670Y-120336620D01*
X152282608Y-120318141D01*
X152280659Y-120317772D01*
X152260777Y-120313817D01*
X152246444Y-120310443D01*
X152236388Y-120307253D01*
X152229340Y-120303849D01*
X152224030Y-120299835D01*
X152214037Y-120290692D01*
X152219883Y-120257455D01*
X152221948Y-120242779D01*
X152223956Y-120220213D01*
X152225304Y-120194577D01*
X152225976Y-120167540D01*
X152225955Y-120140776D01*
X152225226Y-120115954D01*
X152223773Y-120094746D01*
X152221580Y-120078823D01*
X152216950Y-120055879D01*
X152177301Y-120042830D01*
X152160369Y-120036990D01*
X152145565Y-120030786D01*
X152135761Y-120024596D01*
X152129974Y-120017541D01*
X152127223Y-120008739D01*
X152127098Y-120006696D01*
X152194809Y-120006696D01*
X152229712Y-120018397D01*
X152239938Y-120022043D01*
X152254439Y-120027977D01*
X152265928Y-120033592D01*
X152272560Y-120038043D01*
X152272888Y-120038380D01*
X152279405Y-120049339D01*
X152284557Y-120066956D01*
X152288311Y-120091031D01*
X152290636Y-120121360D01*
X152291498Y-120157744D01*
X152290960Y-120192577D01*
X152288084Y-120237269D01*
X152282804Y-120276453D01*
X152285040Y-120278512D01*
X152293554Y-120281473D01*
X152307792Y-120284977D01*
X152327094Y-120288927D01*
X152350797Y-120293228D01*
X152378243Y-120297785D01*
X152408768Y-120302502D01*
X152441714Y-120307283D01*
X152476418Y-120312034D01*
X152512219Y-120316657D01*
X152548457Y-120321059D01*
X152584470Y-120325143D01*
X152619598Y-120328813D01*
X152653180Y-120331975D01*
X152684554Y-120334532D01*
X152686381Y-120334661D01*
X152701176Y-120335455D01*
X152721288Y-120336231D01*
X152745771Y-120336976D01*
X152773677Y-120337676D01*
X152804060Y-120338320D01*
X152835972Y-120338893D01*
X152868466Y-120339383D01*
X152900595Y-120339776D01*
X152931412Y-120340059D01*
X152959970Y-120340220D01*
X152985321Y-120340244D01*
X153006519Y-120340118D01*
X153022617Y-120339831D01*
X153032667Y-120339367D01*
X153034008Y-120339257D01*
X153044530Y-120338414D01*
X153059828Y-120337208D01*
X153078062Y-120335785D01*
X153097392Y-120334290D01*
X153138075Y-120330611D01*
X153220679Y-120319981D01*
X153302522Y-120305378D01*
X153380837Y-120287262D01*
X153405336Y-120280539D01*
X153464144Y-120261578D01*
X153519979Y-120239555D01*
X153572179Y-120214830D01*
X153620083Y-120187763D01*
X153663031Y-120158715D01*
X153700362Y-120128046D01*
X153731414Y-120096116D01*
X153744704Y-120079489D01*
X153769377Y-120040978D01*
X153787691Y-120000393D01*
X153799637Y-119958331D01*
X153805205Y-119915393D01*
X153804388Y-119872178D01*
X153797177Y-119829284D01*
X153783561Y-119787312D01*
X153763534Y-119746860D01*
X153737086Y-119708529D01*
X153734072Y-119704819D01*
X153702474Y-119671302D01*
X153664486Y-119639373D01*
X153620532Y-119609218D01*
X153571034Y-119581025D01*
X153516416Y-119554979D01*
X153457103Y-119531267D01*
X153393517Y-119510077D01*
X153326081Y-119491595D01*
X153255221Y-119476008D01*
X153181359Y-119463503D01*
X153109832Y-119454568D01*
X153022868Y-119447048D01*
X152932347Y-119442479D01*
X152839521Y-119440823D01*
X152745647Y-119442043D01*
X152651977Y-119446100D01*
X152559767Y-119452957D01*
X152470271Y-119462576D01*
X152384743Y-119474919D01*
X152304437Y-119489948D01*
X152277680Y-119495613D01*
X152283018Y-119508304D01*
X152283065Y-119508417D01*
X152285617Y-119515929D01*
X152289439Y-119528899D01*
X152294171Y-119546019D01*
X152299448Y-119565978D01*
X152304911Y-119587468D01*
X152305941Y-119591592D01*
X152312438Y-119616758D01*
X152317744Y-119635279D01*
X152322047Y-119647341D01*
X152325532Y-119653127D01*
X152328387Y-119652823D01*
X152330799Y-119646611D01*
X152332955Y-119634678D01*
X152335041Y-119617207D01*
X152336223Y-119606426D01*
X152338143Y-119590618D01*
X152339937Y-119577653D01*
X152341333Y-119569592D01*
X152344151Y-119561512D01*
X152350802Y-119552071D01*
X152361407Y-119543454D01*
X152376568Y-119535352D01*
X152396885Y-119527458D01*
X152422960Y-119519461D01*
X152455394Y-119511055D01*
X152479862Y-119505235D01*
X152542554Y-119491722D01*
X152602198Y-119481106D01*
X152661032Y-119473017D01*
X152721290Y-119467086D01*
X152741329Y-119465575D01*
X152826076Y-119461522D01*
X152909099Y-119461295D01*
X152989836Y-119464816D01*
X153067725Y-119472007D01*
X153142204Y-119482791D01*
X153212710Y-119497089D01*
X153278682Y-119514825D01*
X153339558Y-119535919D01*
X153394775Y-119560295D01*
X153442031Y-119586864D01*
X153485024Y-119617533D01*
X153522504Y-119651514D01*
X153554224Y-119688520D01*
X153579941Y-119728265D01*
X153599407Y-119770461D01*
X153612378Y-119814821D01*
X153613464Y-119820495D01*
X153616279Y-119846667D01*
X153616680Y-119876216D01*
X153614798Y-119906637D01*
X153610766Y-119935424D01*
X153604717Y-119960072D01*
X153596153Y-119983799D01*
X153574218Y-120029229D01*
X153545980Y-120071768D01*
X153511513Y-120111353D01*
X153470892Y-120147921D01*
X153424191Y-120181408D01*
X153371483Y-120211752D01*
X153312844Y-120238890D01*
X153248347Y-120262759D01*
X153245788Y-120263599D01*
X153180207Y-120282641D01*
X153112058Y-120297668D01*
X153040653Y-120308767D01*
X152965302Y-120316026D01*
X152885317Y-120319530D01*
X152800009Y-120319367D01*
X152749778Y-120317738D01*
X152674115Y-120313110D01*
X152604723Y-120306012D01*
X152541697Y-120296453D01*
X152485133Y-120284446D01*
X152484710Y-120284341D01*
X152469954Y-120280532D01*
X152460397Y-120277402D01*
X152454458Y-120274070D01*
X152450555Y-120269656D01*
X152447109Y-120263281D01*
X152446335Y-120261547D01*
X152442731Y-120248789D01*
X152439812Y-120230669D01*
X152437600Y-120208533D01*
X152436118Y-120183725D01*
X152435386Y-120157590D01*
X152435426Y-120131473D01*
X152436259Y-120106719D01*
X152437909Y-120084671D01*
X152440395Y-120066676D01*
X152443740Y-120054078D01*
X152445267Y-120050659D01*
X152451861Y-120040985D01*
X152461581Y-120032883D01*
X152474977Y-120026212D01*
X152492599Y-120020828D01*
X152514995Y-120016589D01*
X152542716Y-120013353D01*
X152576312Y-120010977D01*
X152616331Y-120009319D01*
X152624726Y-120009039D01*
X152635131Y-120008584D01*
X152639574Y-120008183D01*
X152637940Y-120007835D01*
X152630113Y-120007538D01*
X152615980Y-120007290D01*
X152595424Y-120007090D01*
X152568331Y-120006936D01*
X152534586Y-120006826D01*
X152494073Y-120006759D01*
X152446679Y-120006732D01*
X152194809Y-120006696D01*
X152127098Y-120006696D01*
X152126950Y-120004274D01*
X152707914Y-120004274D01*
X152710794Y-120005554D01*
X152712646Y-120005301D01*
X152713126Y-120003221D01*
X152712614Y-120002803D01*
X152708461Y-120003221D01*
X152707914Y-120004274D01*
X152126950Y-120004274D01*
X152126524Y-119997310D01*
X152126493Y-119994877D01*
X152126420Y-119990618D01*
X152126678Y-119986882D01*
X152127685Y-119983634D01*
X152129856Y-119980839D01*
X152133609Y-119978462D01*
X152139361Y-119976467D01*
X152147526Y-119974820D01*
X152158524Y-119973486D01*
X152172769Y-119972429D01*
X152190678Y-119971615D01*
X152212669Y-119971008D01*
X152239157Y-119970573D01*
X152270559Y-119970275D01*
X152307293Y-119970079D01*
X152349773Y-119969950D01*
X152398418Y-119969853D01*
X152453643Y-119969752D01*
X152462634Y-119969735D01*
X152514236Y-119969643D01*
X152559374Y-119969583D01*
X152598506Y-119969563D01*
X152632089Y-119969593D01*
X152660583Y-119969681D01*
X152684445Y-119969836D01*
X152704134Y-119970065D01*
X152720108Y-119970379D01*
X152732825Y-119970785D01*
X152742744Y-119971292D01*
X152750323Y-119971910D01*
X152756020Y-119972645D01*
X152760294Y-119973508D01*
X152763602Y-119974507D01*
X152766404Y-119975649D01*
X152780766Y-119982126D01*
X152780766Y-120003221D01*
X152780766Y-120004003D01*
X152780766Y-120025881D01*
X152765897Y-120034514D01*
X152765078Y-120034988D01*
X152760676Y-120037388D01*
X152756179Y-120039285D01*
X152750724Y-120040756D01*
X152743448Y-120041880D01*
X152733489Y-120042733D01*
X152719984Y-120043393D01*
X152702070Y-120043939D01*
X152678886Y-120044447D01*
X152649568Y-120044997D01*
X152632879Y-120045325D01*
X152600354Y-120046172D01*
X152573904Y-120047239D01*
X152552889Y-120048606D01*
X152536674Y-120050352D01*
X152524620Y-120052555D01*
X152516090Y-120055295D01*
X152510447Y-120058652D01*
X152507054Y-120062704D01*
X152505706Y-120067372D01*
X152504218Y-120078463D01*
X152502966Y-120094217D01*
X152501990Y-120113340D01*
X152501328Y-120134543D01*
X152501017Y-120156533D01*
X152501096Y-120178019D01*
X152501603Y-120197710D01*
X152502575Y-120214314D01*
X152502771Y-120216535D01*
X152504661Y-120231326D01*
X152507117Y-120242501D01*
X152509783Y-120248369D01*
X152512325Y-120250111D01*
X152522302Y-120253853D01*
X152538131Y-120257804D01*
X152559050Y-120261858D01*
X152584301Y-120265905D01*
X152613124Y-120269839D01*
X152644758Y-120273552D01*
X152678445Y-120276936D01*
X152713423Y-120279883D01*
X152748933Y-120282285D01*
X152763681Y-120283087D01*
X152847707Y-120285057D01*
X152929718Y-120282576D01*
X153008974Y-120275727D01*
X153084736Y-120264591D01*
X153156265Y-120249251D01*
X153222820Y-120229788D01*
X153231567Y-120226788D01*
X153290600Y-120203452D01*
X153344136Y-120176635D01*
X153392018Y-120146458D01*
X153434091Y-120113043D01*
X153470198Y-120076512D01*
X153500183Y-120036988D01*
X153523889Y-119994592D01*
X153530503Y-119979915D01*
X153540597Y-119953426D01*
X153547083Y-119928431D01*
X153550545Y-119902351D01*
X153551569Y-119872606D01*
X153551112Y-119855325D01*
X153545634Y-119812419D01*
X153533838Y-119771979D01*
X153515577Y-119733668D01*
X153490705Y-119697152D01*
X153459073Y-119662096D01*
X153432040Y-119638068D01*
X153393090Y-119610338D01*
X153348748Y-119585608D01*
X153298827Y-119563806D01*
X153243144Y-119544865D01*
X153181512Y-119528714D01*
X153113748Y-119515285D01*
X153039664Y-119504506D01*
X153033356Y-119503848D01*
X153015147Y-119502603D01*
X152991557Y-119501595D01*
X152963687Y-119500825D01*
X152932639Y-119500293D01*
X152899515Y-119499997D01*
X152865417Y-119499939D01*
X152831445Y-119500117D01*
X152798702Y-119500532D01*
X152768289Y-119501184D01*
X152741308Y-119502072D01*
X152718860Y-119503197D01*
X152702047Y-119504557D01*
X152700518Y-119504724D01*
X152670226Y-119508442D01*
X152638130Y-119513076D01*
X152605104Y-119518440D01*
X152572023Y-119524350D01*
X152539759Y-119530624D01*
X152509188Y-119537077D01*
X152481182Y-119543524D01*
X152456617Y-119549781D01*
X152436365Y-119555666D01*
X152421301Y-119560993D01*
X152412299Y-119565578D01*
X152410988Y-119566793D01*
X152407761Y-119572649D01*
X152404945Y-119582763D01*
X152402415Y-119597821D01*
X152400046Y-119618506D01*
X152397714Y-119645503D01*
X152395384Y-119675548D01*
X152379814Y-119683113D01*
X152377607Y-119684095D01*
X152363034Y-119688136D01*
X152344488Y-119690557D01*
X152324123Y-119691343D01*
X152304090Y-119690483D01*
X152286543Y-119687961D01*
X152273633Y-119683766D01*
X152271154Y-119682484D01*
X152265700Y-119679140D01*
X152261885Y-119674996D01*
X152258933Y-119668541D01*
X152256069Y-119658265D01*
X152252516Y-119642657D01*
X152249684Y-119630076D01*
X152242345Y-119599252D01*
X152234909Y-119570319D01*
X152227718Y-119544523D01*
X152221113Y-119523113D01*
X152215438Y-119507336D01*
X152206772Y-119486008D01*
X152218180Y-119476697D01*
X152222801Y-119473508D01*
X152230401Y-119469798D01*
X152240820Y-119466114D01*
X152254745Y-119462287D01*
X152272858Y-119458152D01*
X152295846Y-119453539D01*
X152324392Y-119448283D01*
X152359182Y-119442214D01*
X152376252Y-119439341D01*
X152423249Y-119432000D01*
X152469133Y-119425766D01*
X152515255Y-119420510D01*
X152562964Y-119416101D01*
X152613611Y-119412411D01*
X152668547Y-119409309D01*
X152729122Y-119406665D01*
X152822430Y-119404594D01*
X152918128Y-119405668D01*
X153011581Y-119409971D01*
X153102094Y-119417432D01*
X153188973Y-119427981D01*
X153271524Y-119441545D01*
X153349051Y-119458053D01*
X153420862Y-119477436D01*
X153449432Y-119486376D01*
X153517084Y-119510244D01*
X153578431Y-119536070D01*
X153633820Y-119564036D01*
X153683598Y-119594330D01*
X153728109Y-119627135D01*
X153767702Y-119662637D01*
X153788848Y-119685143D01*
X153818207Y-119723591D01*
X153840898Y-119763989D01*
X153857008Y-119806533D01*
X153866619Y-119851420D01*
X153869818Y-119898846D01*
X153869406Y-119915393D01*
X153869271Y-119920824D01*
G37*
G36*
X155935875Y-120301174D02*
G01*
X155935964Y-120308333D01*
X155934006Y-120313359D01*
X155929703Y-120318493D01*
X155924701Y-120322536D01*
X155915790Y-120326851D01*
X155902377Y-120331203D01*
X155883248Y-120336052D01*
X155867723Y-120339526D01*
X155830262Y-120346895D01*
X155788481Y-120353973D01*
X155744206Y-120360501D01*
X155699259Y-120366221D01*
X155655466Y-120370872D01*
X155614651Y-120374197D01*
X155614434Y-120374211D01*
X155606279Y-120374477D01*
X155592084Y-120374679D01*
X155572760Y-120374816D01*
X155549223Y-120374884D01*
X155522385Y-120374880D01*
X155493159Y-120374802D01*
X155462461Y-120374647D01*
X155430972Y-120374395D01*
X155393116Y-120373857D01*
X155360287Y-120373008D01*
X155331344Y-120371751D01*
X155305151Y-120369990D01*
X155280568Y-120367626D01*
X155256457Y-120364564D01*
X155231680Y-120360706D01*
X155205098Y-120355956D01*
X155175574Y-120350216D01*
X155160312Y-120347063D01*
X155101016Y-120332759D01*
X155044736Y-120315902D01*
X154991966Y-120296745D01*
X154943202Y-120275540D01*
X154898939Y-120252538D01*
X154859672Y-120227990D01*
X154825896Y-120202148D01*
X154798106Y-120175264D01*
X154776798Y-120147590D01*
X154763824Y-120124553D01*
X154751220Y-120091728D01*
X154745361Y-120059181D01*
X154745595Y-120049184D01*
X154810114Y-120049184D01*
X154814128Y-120078813D01*
X154824388Y-120108452D01*
X154840864Y-120137511D01*
X154863526Y-120165399D01*
X154873441Y-120175315D01*
X154906904Y-120203078D01*
X154946676Y-120228792D01*
X154992435Y-120252335D01*
X155043858Y-120273582D01*
X155100625Y-120292410D01*
X155162415Y-120308696D01*
X155228905Y-120322315D01*
X155299775Y-120333144D01*
X155310864Y-120334293D01*
X155331066Y-120335703D01*
X155356272Y-120336941D01*
X155385341Y-120337991D01*
X155417131Y-120338836D01*
X155450500Y-120339462D01*
X155484305Y-120339850D01*
X155517404Y-120339986D01*
X155548655Y-120339854D01*
X155576916Y-120339436D01*
X155601045Y-120338717D01*
X155619899Y-120337680D01*
X155627256Y-120337093D01*
X155651861Y-120334794D01*
X155678648Y-120331865D01*
X155706704Y-120328444D01*
X155735114Y-120324670D01*
X155762965Y-120320682D01*
X155789343Y-120316620D01*
X155813335Y-120312623D01*
X155834026Y-120308829D01*
X155850502Y-120305377D01*
X155861850Y-120302407D01*
X155867157Y-120300058D01*
X155867646Y-120297699D01*
X155867535Y-120289524D01*
X155866562Y-120277107D01*
X155864824Y-120262021D01*
X155862956Y-120245875D01*
X155860871Y-120223993D01*
X155859010Y-120200702D01*
X155857625Y-120178929D01*
X155857035Y-120168234D01*
X155855960Y-120152201D01*
X155854821Y-120141565D01*
X155853428Y-120135273D01*
X155851593Y-120132271D01*
X155849128Y-120131504D01*
X155847523Y-120131774D01*
X155845009Y-120134236D01*
X155842943Y-120140221D01*
X155840996Y-120150880D01*
X155838836Y-120167365D01*
X155838293Y-120171753D01*
X155834408Y-120195749D01*
X155829086Y-120214295D01*
X155821423Y-120228717D01*
X155810515Y-120240341D01*
X155795457Y-120250492D01*
X155775346Y-120260498D01*
X155751779Y-120270011D01*
X155714159Y-120281887D01*
X155671428Y-120292278D01*
X155624609Y-120301084D01*
X155574721Y-120308205D01*
X155522785Y-120313543D01*
X155469821Y-120316997D01*
X155416851Y-120318467D01*
X155364895Y-120317855D01*
X155314974Y-120315061D01*
X155268109Y-120309985D01*
X155216086Y-120301335D01*
X155160672Y-120288344D01*
X155111378Y-120272306D01*
X155068245Y-120253242D01*
X155031312Y-120231173D01*
X155000619Y-120206118D01*
X154976204Y-120178099D01*
X154958107Y-120147136D01*
X154953727Y-120136801D01*
X154950462Y-120125604D01*
X154948898Y-120113124D01*
X154948497Y-120096518D01*
X154948714Y-120083568D01*
X154949945Y-120070254D01*
X154952711Y-120059153D01*
X154957515Y-120047537D01*
X154965731Y-120032424D01*
X154983178Y-120009835D01*
X155005776Y-119989898D01*
X155033789Y-119972482D01*
X155067484Y-119957457D01*
X155107125Y-119944691D01*
X155152980Y-119934054D01*
X155205312Y-119925415D01*
X155209599Y-119924838D01*
X155227959Y-119922556D01*
X155251494Y-119919842D01*
X155278821Y-119916845D01*
X155308560Y-119913713D01*
X155339329Y-119910597D01*
X155369747Y-119907645D01*
X155403660Y-119904414D01*
X155445231Y-119900368D01*
X155481101Y-119896736D01*
X155512009Y-119893413D01*
X155538694Y-119890297D01*
X155561895Y-119887282D01*
X155582350Y-119884265D01*
X155600799Y-119881142D01*
X155617979Y-119877809D01*
X155634631Y-119874162D01*
X155651492Y-119870097D01*
X155669302Y-119865511D01*
X155676654Y-119863537D01*
X155713123Y-119852354D01*
X155743971Y-119840118D01*
X155770358Y-119826236D01*
X155793439Y-119810114D01*
X155814373Y-119791160D01*
X155815312Y-119790199D01*
X155835067Y-119765177D01*
X155848550Y-119737897D01*
X155855806Y-119709077D01*
X155856880Y-119679434D01*
X155851817Y-119649686D01*
X155840663Y-119620550D01*
X155823462Y-119592744D01*
X155800260Y-119566986D01*
X155776714Y-119547243D01*
X155738633Y-119522346D01*
X155694766Y-119500625D01*
X155645405Y-119482136D01*
X155590838Y-119466933D01*
X155531354Y-119455071D01*
X155467244Y-119446605D01*
X155398796Y-119441590D01*
X155326301Y-119440080D01*
X155250048Y-119442131D01*
X155170326Y-119447797D01*
X155167260Y-119448081D01*
X155121729Y-119452804D01*
X155077029Y-119458329D01*
X155034393Y-119464468D01*
X154995053Y-119471029D01*
X154960243Y-119477824D01*
X154931196Y-119484661D01*
X154922889Y-119487370D01*
X154919460Y-119490644D01*
X154919960Y-119495858D01*
X154926177Y-119518302D01*
X154934598Y-119555243D01*
X154939762Y-119589218D01*
X154940137Y-119592597D01*
X154942258Y-119610973D01*
X154944005Y-119623618D01*
X154945668Y-119631596D01*
X154947535Y-119635975D01*
X154949896Y-119637820D01*
X154953040Y-119638198D01*
X154957680Y-119636160D01*
X154961208Y-119628944D01*
X154963284Y-119615965D01*
X154964059Y-119596652D01*
X154964074Y-119595234D01*
X154965888Y-119570003D01*
X154970583Y-119550972D01*
X154978134Y-119538240D01*
X154982910Y-119533961D01*
X154997223Y-119524912D01*
X155017129Y-119515454D01*
X155041729Y-119505873D01*
X155070120Y-119496457D01*
X155101400Y-119487495D01*
X155134668Y-119479275D01*
X155169023Y-119472084D01*
X155203562Y-119466212D01*
X155211845Y-119465186D01*
X155232442Y-119463606D01*
X155259457Y-119462466D01*
X155292520Y-119461779D01*
X155331262Y-119461558D01*
X155347347Y-119461580D01*
X155374404Y-119461734D01*
X155396265Y-119462091D01*
X155414125Y-119462718D01*
X155429179Y-119463680D01*
X155442623Y-119465045D01*
X155455651Y-119466879D01*
X155469458Y-119469248D01*
X155497476Y-119474816D01*
X155544660Y-119486794D01*
X155585706Y-119501034D01*
X155620989Y-119517726D01*
X155650885Y-119537061D01*
X155675768Y-119559229D01*
X155696014Y-119584422D01*
X155709641Y-119608291D01*
X155719242Y-119635907D01*
X155722024Y-119662793D01*
X155718083Y-119688640D01*
X155707515Y-119713137D01*
X155690417Y-119735975D01*
X155666882Y-119756844D01*
X155637008Y-119775434D01*
X155630279Y-119778877D01*
X155616021Y-119785508D01*
X155600993Y-119791474D01*
X155584629Y-119796872D01*
X155566365Y-119801800D01*
X155545635Y-119806353D01*
X155521875Y-119810628D01*
X155494519Y-119814723D01*
X155463003Y-119818734D01*
X155426761Y-119822758D01*
X155385228Y-119826891D01*
X155337840Y-119831230D01*
X155284031Y-119835873D01*
X155282281Y-119836020D01*
X155221162Y-119841459D01*
X155166532Y-119846946D01*
X155117899Y-119852607D01*
X155074767Y-119858569D01*
X155036645Y-119864959D01*
X155003038Y-119871904D01*
X154973452Y-119879531D01*
X154947394Y-119887967D01*
X154924370Y-119897339D01*
X154903887Y-119907773D01*
X154885450Y-119919397D01*
X154868566Y-119932337D01*
X154852742Y-119946720D01*
X154835834Y-119966280D01*
X154820937Y-119992326D01*
X154812374Y-120020158D01*
X154810114Y-120049184D01*
X154745595Y-120049184D01*
X154746106Y-120027288D01*
X154753311Y-119996426D01*
X154766834Y-119966973D01*
X154786533Y-119939306D01*
X154812266Y-119913801D01*
X154843890Y-119890836D01*
X154881263Y-119870789D01*
X154886996Y-119868200D01*
X154906490Y-119860081D01*
X154926984Y-119852678D01*
X154949025Y-119845896D01*
X154973155Y-119839642D01*
X154999920Y-119833822D01*
X155029863Y-119828341D01*
X155063531Y-119823105D01*
X155101465Y-119818021D01*
X155144213Y-119812995D01*
X155192316Y-119807932D01*
X155246321Y-119802738D01*
X155306772Y-119797320D01*
X155337840Y-119794587D01*
X155377731Y-119790963D01*
X155411792Y-119787693D01*
X155440706Y-119784690D01*
X155465157Y-119781870D01*
X155485826Y-119779147D01*
X155503396Y-119776434D01*
X155518549Y-119773647D01*
X155531969Y-119770700D01*
X155544337Y-119767507D01*
X155563592Y-119761380D01*
X155592840Y-119748508D01*
X155617483Y-119732868D01*
X155636759Y-119714982D01*
X155649906Y-119695371D01*
X155650484Y-119694135D01*
X155655754Y-119675137D01*
X155656364Y-119653406D01*
X155652460Y-119631121D01*
X155644190Y-119610463D01*
X155635761Y-119597257D01*
X155619211Y-119577560D01*
X155599474Y-119559236D01*
X155578611Y-119544363D01*
X155560311Y-119534653D01*
X155526723Y-119521463D01*
X155488137Y-119510890D01*
X155445481Y-119502973D01*
X155399683Y-119497749D01*
X155351670Y-119495257D01*
X155302371Y-119495534D01*
X155252713Y-119498620D01*
X155203624Y-119504552D01*
X155156032Y-119513368D01*
X155110864Y-119525108D01*
X155094475Y-119530170D01*
X155072321Y-119537534D01*
X155055871Y-119543873D01*
X155044421Y-119549505D01*
X155037270Y-119554745D01*
X155033715Y-119559911D01*
X155033600Y-119560240D01*
X155032238Y-119567276D01*
X155030784Y-119579522D01*
X155029405Y-119595349D01*
X155028267Y-119613125D01*
X155025884Y-119658281D01*
X155010545Y-119665733D01*
X155004209Y-119668500D01*
X154996066Y-119670881D01*
X154986015Y-119672308D01*
X154972361Y-119673002D01*
X154953411Y-119673185D01*
X154937613Y-119673070D01*
X154923084Y-119672491D01*
X154912479Y-119671221D01*
X154904103Y-119669040D01*
X154896261Y-119665725D01*
X154880908Y-119658266D01*
X154878577Y-119625114D01*
X154877618Y-119613686D01*
X154873915Y-119583961D01*
X154868672Y-119553861D01*
X154862351Y-119525843D01*
X154855417Y-119502364D01*
X154847726Y-119480235D01*
X154855756Y-119471688D01*
X154857974Y-119469544D01*
X154863941Y-119465340D01*
X154872343Y-119461386D01*
X154884074Y-119457401D01*
X154900025Y-119453100D01*
X154921091Y-119448200D01*
X154948163Y-119442421D01*
X154981614Y-119435930D01*
X155034893Y-119427198D01*
X155094130Y-119419235D01*
X155159830Y-119411968D01*
X155187243Y-119409727D01*
X155219596Y-119407956D01*
X155255308Y-119406683D01*
X155293085Y-119405910D01*
X155331636Y-119405638D01*
X155369669Y-119405867D01*
X155405891Y-119406597D01*
X155439010Y-119407830D01*
X155467735Y-119409566D01*
X155490773Y-119411805D01*
X155510765Y-119414484D01*
X155574541Y-119425316D01*
X155633596Y-119438956D01*
X155687734Y-119455273D01*
X155736761Y-119474137D01*
X155780483Y-119495417D01*
X155818706Y-119518982D01*
X155851234Y-119544703D01*
X155877873Y-119572448D01*
X155898429Y-119602086D01*
X155912707Y-119633488D01*
X155920512Y-119666522D01*
X155921651Y-119701058D01*
X155916832Y-119731970D01*
X155905966Y-119761003D01*
X155888598Y-119788822D01*
X155884173Y-119794488D01*
X155857907Y-119821509D01*
X155825313Y-119845601D01*
X155786422Y-119866747D01*
X155741264Y-119884931D01*
X155689871Y-119900135D01*
X155670416Y-119904864D01*
X155650856Y-119909226D01*
X155630804Y-119913234D01*
X155609541Y-119916988D01*
X155586347Y-119920586D01*
X155560499Y-119924127D01*
X155531279Y-119927708D01*
X155497964Y-119931430D01*
X155459834Y-119935390D01*
X155416170Y-119939688D01*
X155366248Y-119944421D01*
X155321644Y-119948764D01*
X155274405Y-119953824D01*
X155233404Y-119958771D01*
X155198831Y-119963579D01*
X155170873Y-119968225D01*
X155149721Y-119972683D01*
X155126214Y-119979205D01*
X155091316Y-119992407D01*
X155062812Y-120008253D01*
X155040738Y-120026722D01*
X155025133Y-120047790D01*
X155023491Y-120050802D01*
X155018798Y-120060627D01*
X155016122Y-120069831D01*
X155014917Y-120080949D01*
X155014637Y-120096518D01*
X155014968Y-120112277D01*
X155016347Y-120124308D01*
X155019308Y-120134681D01*
X155024380Y-120146098D01*
X155038990Y-120169073D01*
X155060630Y-120191714D01*
X155088156Y-120212367D01*
X155121063Y-120230708D01*
X155158850Y-120246416D01*
X155201014Y-120259170D01*
X155216321Y-120262960D01*
X155238044Y-120267926D01*
X155258225Y-120271844D01*
X155278085Y-120274835D01*
X155298842Y-120277016D01*
X155321715Y-120278507D01*
X155347925Y-120279426D01*
X155378690Y-120279892D01*
X155415229Y-120280024D01*
X155442991Y-120279984D01*
X155470145Y-120279794D01*
X155492539Y-120279391D01*
X155511382Y-120278718D01*
X155527883Y-120277714D01*
X155543249Y-120276319D01*
X155558689Y-120274473D01*
X155575411Y-120272118D01*
X155609043Y-120266595D01*
X155644134Y-120259571D01*
X155676012Y-120251843D01*
X155704048Y-120243616D01*
X155727615Y-120235098D01*
X155746087Y-120226493D01*
X155758836Y-120218008D01*
X155765234Y-120209847D01*
X155766028Y-120207498D01*
X155768863Y-120195616D01*
X155771836Y-120178512D01*
X155774732Y-120157540D01*
X155777335Y-120134053D01*
X155777919Y-120128262D01*
X155779399Y-120117844D01*
X155781747Y-120111576D01*
X155786008Y-120107446D01*
X155793228Y-120103440D01*
X155801640Y-120100439D01*
X155817364Y-120097610D01*
X155836392Y-120096110D01*
X155856690Y-120095942D01*
X155876223Y-120097104D01*
X155892956Y-120099597D01*
X155904854Y-120103422D01*
X155918387Y-120110326D01*
X155920501Y-120141032D01*
X155920951Y-120147536D01*
X155923614Y-120184831D01*
X155925996Y-120215807D01*
X155928149Y-120241040D01*
X155930125Y-120261110D01*
X155931976Y-120276595D01*
X155933754Y-120288072D01*
X155934039Y-120289641D01*
X155935322Y-120297699D01*
X155935875Y-120301174D01*
G37*
G36*
X157391951Y-119484117D02*
G01*
X157378260Y-119491101D01*
X157377699Y-119491383D01*
X157371612Y-119493880D01*
X157363917Y-119495880D01*
X157353537Y-119497522D01*
X157339394Y-119498944D01*
X157320412Y-119500283D01*
X157295512Y-119501676D01*
X157277379Y-119502661D01*
X157252960Y-119504231D01*
X157234202Y-119505902D01*
X157220278Y-119507839D01*
X157210363Y-119510210D01*
X157203629Y-119513179D01*
X157199250Y-119516913D01*
X157196399Y-119521578D01*
X157194745Y-119526100D01*
X157192949Y-119533785D01*
X157191391Y-119544230D01*
X157190056Y-119557861D01*
X157188930Y-119575099D01*
X157187998Y-119596369D01*
X157187246Y-119622094D01*
X157186658Y-119652697D01*
X157186221Y-119688604D01*
X157185920Y-119730236D01*
X157185740Y-119778017D01*
X157185666Y-119832372D01*
X157185669Y-119862334D01*
X157185773Y-119915061D01*
X157186014Y-119961702D01*
X157186403Y-120002854D01*
X157186949Y-120039117D01*
X157187662Y-120071090D01*
X157188552Y-120099370D01*
X157189629Y-120124556D01*
X157190904Y-120147248D01*
X157190985Y-120148526D01*
X157193408Y-120184019D01*
X157195785Y-120214082D01*
X157198084Y-120238402D01*
X157200272Y-120256666D01*
X157202317Y-120268561D01*
X157204185Y-120273775D01*
X157206446Y-120274737D01*
X157214286Y-120277331D01*
X157226298Y-120281006D01*
X157241018Y-120285303D01*
X157251196Y-120288387D01*
X157266539Y-120293676D01*
X157279136Y-120298779D01*
X157286970Y-120302921D01*
X157288033Y-120303689D01*
X157294129Y-120309326D01*
X157296859Y-120316124D01*
X157297488Y-120326978D01*
X157297439Y-120331553D01*
X157296391Y-120340124D01*
X157292899Y-120345478D01*
X157285567Y-120350355D01*
X157283953Y-120351209D01*
X157281990Y-120352004D01*
X157279394Y-120352725D01*
X157275845Y-120353375D01*
X157271026Y-120353959D01*
X157264618Y-120354479D01*
X157256303Y-120354940D01*
X157245764Y-120355345D01*
X157232681Y-120355698D01*
X157216737Y-120356002D01*
X157197614Y-120356260D01*
X157174993Y-120356478D01*
X157148557Y-120356657D01*
X157117987Y-120356802D01*
X157082964Y-120356917D01*
X157043172Y-120357005D01*
X156998291Y-120357069D01*
X156948004Y-120357113D01*
X156891992Y-120357141D01*
X156829938Y-120357157D01*
X156761522Y-120357164D01*
X156686428Y-120357165D01*
X156099210Y-120357165D01*
X156088369Y-120349433D01*
X156077529Y-120341700D01*
X156075453Y-120295204D01*
X156074434Y-120278287D01*
X156071620Y-120248503D01*
X156067647Y-120217870D01*
X156062816Y-120188349D01*
X156057427Y-120161903D01*
X156051868Y-120140830D01*
X156118945Y-120140830D01*
X156120091Y-120147776D01*
X156121874Y-120155205D01*
X156125948Y-120175299D01*
X156130111Y-120199447D01*
X156134054Y-120225655D01*
X156137467Y-120251930D01*
X156140042Y-120276279D01*
X156144187Y-120322179D01*
X156685557Y-120322179D01*
X156713505Y-120322178D01*
X156773622Y-120322173D01*
X156831630Y-120322161D01*
X156887153Y-120322143D01*
X156939815Y-120322121D01*
X156989240Y-120322093D01*
X157035051Y-120322061D01*
X157076873Y-120322025D01*
X157114330Y-120321985D01*
X157147046Y-120321942D01*
X157174645Y-120321896D01*
X157196750Y-120321846D01*
X157212986Y-120321794D01*
X157222977Y-120321740D01*
X157226347Y-120321685D01*
X157225872Y-120321498D01*
X157220558Y-120319879D01*
X157210656Y-120317027D01*
X157197777Y-120313409D01*
X157190412Y-120311304D01*
X157169917Y-120304517D01*
X157155320Y-120297830D01*
X157145801Y-120290804D01*
X157140535Y-120283004D01*
X157139181Y-120279176D01*
X157136883Y-120269831D01*
X157134719Y-120256856D01*
X157132632Y-120239691D01*
X157130566Y-120217775D01*
X157128465Y-120190547D01*
X157126272Y-120157447D01*
X157123930Y-120117913D01*
X157123218Y-120104925D01*
X157122120Y-120082424D01*
X157121225Y-120059931D01*
X157120525Y-120036668D01*
X157120011Y-120011857D01*
X157119674Y-119984719D01*
X157119507Y-119954476D01*
X157119501Y-119920350D01*
X157119648Y-119881562D01*
X157119939Y-119837335D01*
X157120367Y-119786890D01*
X157120673Y-119754344D01*
X157121147Y-119709335D01*
X157121647Y-119670484D01*
X157122203Y-119637282D01*
X157122848Y-119609219D01*
X157123612Y-119585784D01*
X157124528Y-119566468D01*
X157125626Y-119550761D01*
X157126939Y-119538154D01*
X157128496Y-119528136D01*
X157130331Y-119520197D01*
X157132474Y-119513828D01*
X157134957Y-119508518D01*
X157137811Y-119503759D01*
X157140895Y-119499593D01*
X157150666Y-119490744D01*
X157164209Y-119483504D01*
X157182161Y-119477694D01*
X157205161Y-119473134D01*
X157233846Y-119469647D01*
X157268854Y-119467054D01*
X157279092Y-119466442D01*
X157296428Y-119465288D01*
X157310481Y-119464198D01*
X157320017Y-119463273D01*
X157323800Y-119462612D01*
X157321549Y-119462487D01*
X157312731Y-119462341D01*
X157297586Y-119462201D01*
X157276479Y-119462066D01*
X157249777Y-119461938D01*
X157217844Y-119461818D01*
X157181048Y-119461707D01*
X157139753Y-119461605D01*
X157094327Y-119461514D01*
X157045134Y-119461434D01*
X156992541Y-119461366D01*
X156936913Y-119461312D01*
X156878617Y-119461271D01*
X156818018Y-119461246D01*
X156755483Y-119461236D01*
X156185803Y-119461223D01*
X156192497Y-119480613D01*
X156194423Y-119486719D01*
X156198642Y-119502535D01*
X156203296Y-119522372D01*
X156207989Y-119544340D01*
X156212325Y-119566543D01*
X156215907Y-119587090D01*
X156218339Y-119604087D01*
X156219379Y-119611332D01*
X156222054Y-119621034D01*
X156225563Y-119624204D01*
X156225988Y-119624179D01*
X156229324Y-119620584D01*
X156230408Y-119610668D01*
X156230656Y-119604738D01*
X156232218Y-119589990D01*
X156234864Y-119572167D01*
X156238185Y-119553661D01*
X156241771Y-119536865D01*
X156245213Y-119524172D01*
X156246920Y-119519281D01*
X156249764Y-119514101D01*
X156254411Y-119510640D01*
X156262539Y-119507825D01*
X156275824Y-119504582D01*
X156300749Y-119499677D01*
X156333504Y-119494891D01*
X156371786Y-119490618D01*
X156414844Y-119486892D01*
X156461925Y-119483744D01*
X156512275Y-119481206D01*
X156565144Y-119479311D01*
X156619778Y-119478090D01*
X156675425Y-119477574D01*
X156731332Y-119477797D01*
X156786747Y-119478790D01*
X156840918Y-119480584D01*
X156850689Y-119480991D01*
X156876239Y-119482077D01*
X156899097Y-119483080D01*
X156918403Y-119483960D01*
X156933298Y-119484678D01*
X156942921Y-119485194D01*
X156946413Y-119485469D01*
X156946607Y-119486431D01*
X156947151Y-119493204D01*
X156947859Y-119505721D01*
X156948699Y-119523138D01*
X156949638Y-119544611D01*
X156950645Y-119569296D01*
X156951687Y-119596349D01*
X156952732Y-119624925D01*
X156953748Y-119654180D01*
X156954704Y-119683270D01*
X156955566Y-119711351D01*
X156956304Y-119737579D01*
X156956885Y-119761110D01*
X156959211Y-119864779D01*
X156851083Y-119867424D01*
X156822401Y-119867997D01*
X156786720Y-119868427D01*
X156748813Y-119868630D01*
X156709603Y-119868617D01*
X156670012Y-119868402D01*
X156630963Y-119867996D01*
X156593376Y-119867411D01*
X156558176Y-119866660D01*
X156526283Y-119865755D01*
X156498620Y-119864709D01*
X156476109Y-119863532D01*
X156459672Y-119862239D01*
X156439216Y-119859823D01*
X156421698Y-119856781D01*
X156408596Y-119852996D01*
X156398546Y-119848061D01*
X156390184Y-119841571D01*
X156389569Y-119840994D01*
X156381497Y-119831591D01*
X156375421Y-119819967D01*
X156370697Y-119804529D01*
X156366676Y-119783687D01*
X156366195Y-119780789D01*
X156363850Y-119768774D01*
X156361636Y-119760337D01*
X156359976Y-119757152D01*
X156359965Y-119757153D01*
X156359414Y-119760652D01*
X156358907Y-119770358D01*
X156358460Y-119785495D01*
X156358086Y-119805288D01*
X156357801Y-119828962D01*
X156357619Y-119855742D01*
X156357556Y-119884851D01*
X156357556Y-119885441D01*
X156357631Y-119914512D01*
X156357842Y-119941238D01*
X156358169Y-119964843D01*
X156358598Y-119984553D01*
X156359111Y-119999590D01*
X156359690Y-120009182D01*
X156360321Y-120012551D01*
X156361228Y-120011972D01*
X156363977Y-120006689D01*
X156366787Y-119997682D01*
X156369822Y-119985593D01*
X156375326Y-119964570D01*
X156379918Y-119948846D01*
X156383996Y-119937379D01*
X156387957Y-119929127D01*
X156392199Y-119923046D01*
X156397119Y-119918096D01*
X156401949Y-119914299D01*
X156415105Y-119907123D01*
X156432354Y-119901493D01*
X156454651Y-119897140D01*
X156482950Y-119893791D01*
X156505142Y-119892100D01*
X156535197Y-119890510D01*
X156570348Y-119889207D01*
X156609604Y-119888204D01*
X156651974Y-119887519D01*
X156696467Y-119887166D01*
X156742094Y-119887162D01*
X156787864Y-119887522D01*
X156832785Y-119888261D01*
X156957600Y-119890902D01*
X156960485Y-119917615D01*
X156960787Y-119921019D01*
X156961478Y-119934163D01*
X156962057Y-119952962D01*
X156962526Y-119976455D01*
X156962883Y-120003677D01*
X156963129Y-120033667D01*
X156963265Y-120065460D01*
X156963291Y-120098095D01*
X156963206Y-120130609D01*
X156963012Y-120162038D01*
X156962707Y-120191420D01*
X156962294Y-120217792D01*
X156961771Y-120240191D01*
X156961139Y-120257654D01*
X156960399Y-120269219D01*
X156957428Y-120300226D01*
X156654269Y-120298504D01*
X156615376Y-120298277D01*
X156562891Y-120297935D01*
X156516531Y-120297570D01*
X156475771Y-120297160D01*
X156440092Y-120296684D01*
X156408968Y-120296118D01*
X156381879Y-120295441D01*
X156358301Y-120294630D01*
X156337713Y-120293664D01*
X156319590Y-120292521D01*
X156303412Y-120291178D01*
X156288655Y-120289613D01*
X156274797Y-120287804D01*
X156261315Y-120285729D01*
X156247687Y-120283366D01*
X156233391Y-120280692D01*
X156193932Y-120273134D01*
X156184248Y-120257423D01*
X156182319Y-120254101D01*
X156176438Y-120242924D01*
X156168880Y-120227629D01*
X156160415Y-120209790D01*
X156151809Y-120190981D01*
X156150316Y-120187668D01*
X156140901Y-120167633D01*
X156133055Y-120152479D01*
X156127082Y-120142760D01*
X156123287Y-120139030D01*
X156121015Y-120138765D01*
X156118945Y-120140830D01*
X156051868Y-120140830D01*
X156051779Y-120140492D01*
X156048780Y-120130502D01*
X156046567Y-120122326D01*
X156045997Y-120118965D01*
X156047002Y-120118386D01*
X156052656Y-120115426D01*
X156061460Y-120110943D01*
X156066453Y-120108631D01*
X156074444Y-120106036D01*
X156084193Y-120104477D01*
X156097444Y-120103716D01*
X156115940Y-120103515D01*
X156134259Y-120103847D01*
X156156138Y-120105596D01*
X156171183Y-120108847D01*
X156171801Y-120109060D01*
X156180180Y-120112485D01*
X156185727Y-120116840D01*
X156190117Y-120124030D01*
X156195024Y-120135961D01*
X156195394Y-120136918D01*
X156200390Y-120149037D01*
X156207449Y-120165246D01*
X156215683Y-120183542D01*
X156224207Y-120201923D01*
X156245042Y-120246102D01*
X156270087Y-120250054D01*
X156273719Y-120250620D01*
X156287230Y-120252584D01*
X156300957Y-120254308D01*
X156315465Y-120255811D01*
X156331320Y-120257115D01*
X156349085Y-120258241D01*
X156369327Y-120259210D01*
X156392610Y-120260042D01*
X156419500Y-120260760D01*
X156450561Y-120261384D01*
X156486360Y-120261934D01*
X156527460Y-120262433D01*
X156574427Y-120262901D01*
X156627826Y-120263358D01*
X156894046Y-120265513D01*
X156896315Y-120246615D01*
X156896674Y-120242149D01*
X156897172Y-120230167D01*
X156897593Y-120212919D01*
X156897937Y-120191350D01*
X156898202Y-120166402D01*
X156898389Y-120139019D01*
X156898497Y-120110144D01*
X156898526Y-120080720D01*
X156898475Y-120051690D01*
X156898344Y-120023998D01*
X156898131Y-119998587D01*
X156897838Y-119976399D01*
X156897463Y-119958379D01*
X156897006Y-119945469D01*
X156896466Y-119938613D01*
X156894363Y-119925900D01*
X156787172Y-119923485D01*
X156778201Y-119923302D01*
X156747409Y-119922927D01*
X156714373Y-119922857D01*
X156680016Y-119923066D01*
X156645263Y-119923530D01*
X156611038Y-119924225D01*
X156578264Y-119925127D01*
X156547867Y-119926212D01*
X156520770Y-119927454D01*
X156497897Y-119928830D01*
X156480173Y-119930315D01*
X156468522Y-119931885D01*
X156464386Y-119932844D01*
X156454715Y-119936378D01*
X156448966Y-119940382D01*
X156448817Y-119940605D01*
X156446422Y-119946525D01*
X156443026Y-119957645D01*
X156439059Y-119972457D01*
X156434951Y-119989453D01*
X156434621Y-119990891D01*
X156430521Y-120008431D01*
X156427332Y-120020525D01*
X156424473Y-120028465D01*
X156421360Y-120033543D01*
X156417412Y-120037051D01*
X156412047Y-120040282D01*
X156403501Y-120043492D01*
X156388327Y-120046287D01*
X156369907Y-120047792D01*
X156350248Y-120047998D01*
X156331356Y-120046896D01*
X156315239Y-120044479D01*
X156303903Y-120040738D01*
X156291681Y-120034232D01*
X156291516Y-119883788D01*
X156291351Y-119733343D01*
X156306455Y-119726005D01*
X156309368Y-119724653D01*
X156317822Y-119721649D01*
X156327686Y-119719831D01*
X156340818Y-119718942D01*
X156359076Y-119718724D01*
X156371470Y-119718822D01*
X156385443Y-119719385D01*
X156395409Y-119720694D01*
X156403160Y-119723024D01*
X156410488Y-119726652D01*
X156411745Y-119727358D01*
X156416761Y-119730228D01*
X156420412Y-119733085D01*
X156423127Y-119737081D01*
X156425337Y-119743365D01*
X156427474Y-119753089D01*
X156429967Y-119767402D01*
X156433248Y-119787455D01*
X156433304Y-119787801D01*
X156436019Y-119802846D01*
X156439200Y-119813135D01*
X156444148Y-119819740D01*
X156452164Y-119823735D01*
X156464550Y-119826194D01*
X156482605Y-119828190D01*
X156489258Y-119828656D01*
X156502854Y-119829224D01*
X156521469Y-119829759D01*
X156544353Y-119830254D01*
X156570753Y-119830706D01*
X156599920Y-119831111D01*
X156631103Y-119831463D01*
X156663549Y-119831759D01*
X156696509Y-119831994D01*
X156729231Y-119832163D01*
X156760965Y-119832262D01*
X156790959Y-119832287D01*
X156818463Y-119832233D01*
X156842725Y-119832095D01*
X156862994Y-119831870D01*
X156878520Y-119831553D01*
X156888552Y-119831138D01*
X156892338Y-119830623D01*
X156892571Y-119828166D01*
X156892658Y-119819264D01*
X156892515Y-119804497D01*
X156892158Y-119784498D01*
X156891603Y-119759904D01*
X156890864Y-119731350D01*
X156889959Y-119699472D01*
X156888903Y-119664906D01*
X156887711Y-119628286D01*
X156886399Y-119590250D01*
X156883892Y-119519560D01*
X156867653Y-119517007D01*
X156866569Y-119516857D01*
X156856735Y-119516121D01*
X156840897Y-119515521D01*
X156819894Y-119515053D01*
X156794563Y-119514715D01*
X156765742Y-119514502D01*
X156734271Y-119514413D01*
X156700988Y-119514442D01*
X156666730Y-119514588D01*
X156632336Y-119514847D01*
X156598645Y-119515215D01*
X156566494Y-119515689D01*
X156536722Y-119516266D01*
X156510168Y-119516942D01*
X156487669Y-119517715D01*
X156470064Y-119518580D01*
X156442947Y-119520401D01*
X156414390Y-119522656D01*
X156387527Y-119525110D01*
X156363239Y-119527661D01*
X156342410Y-119530209D01*
X156325920Y-119532655D01*
X156314653Y-119534898D01*
X156309489Y-119536837D01*
X156307250Y-119540929D01*
X156304322Y-119551132D01*
X156301570Y-119565367D01*
X156299259Y-119581971D01*
X156297652Y-119599281D01*
X156297011Y-119615635D01*
X156296882Y-119643801D01*
X156281045Y-119651496D01*
X156273567Y-119654729D01*
X156265439Y-119657016D01*
X156255392Y-119658373D01*
X156241733Y-119659023D01*
X156222773Y-119659190D01*
X156211408Y-119659164D01*
X156196700Y-119658897D01*
X156186606Y-119658142D01*
X156179623Y-119656656D01*
X156174247Y-119654198D01*
X156168977Y-119650524D01*
X156168659Y-119650280D01*
X156161540Y-119643543D01*
X156157563Y-119635541D01*
X156155280Y-119623410D01*
X156153657Y-119611115D01*
X156147992Y-119574317D01*
X156141523Y-119540065D01*
X156134497Y-119509471D01*
X156127161Y-119483647D01*
X156119763Y-119463707D01*
X156116177Y-119455334D01*
X156112771Y-119446687D01*
X156111455Y-119442316D01*
X156111983Y-119441251D01*
X156116651Y-119436915D01*
X156124575Y-119431290D01*
X156137695Y-119422852D01*
X156482309Y-119424692D01*
X156509759Y-119424829D01*
X156567957Y-119425062D01*
X156629136Y-119425240D01*
X156692186Y-119425361D01*
X156755998Y-119425427D01*
X156819466Y-119425437D01*
X156881479Y-119425392D01*
X156940929Y-119425291D01*
X156996709Y-119425134D01*
X157047708Y-119424922D01*
X157092819Y-119424654D01*
X157118733Y-119424473D01*
X157164896Y-119424161D01*
X157204805Y-119423918D01*
X157238952Y-119423752D01*
X157267831Y-119423673D01*
X157291935Y-119423689D01*
X157311756Y-119423807D01*
X157327789Y-119424036D01*
X157340525Y-119424385D01*
X157350458Y-119424862D01*
X157358081Y-119425475D01*
X157363887Y-119426233D01*
X157368369Y-119427144D01*
X157372019Y-119428216D01*
X157375332Y-119429459D01*
X157391951Y-119436140D01*
X157391951Y-119460128D01*
X157391951Y-119462612D01*
X157391951Y-119484117D01*
G37*
G36*
X152059339Y-119464194D02*
G01*
X152059223Y-119466548D01*
X152058350Y-119477646D01*
X152056416Y-119484322D01*
X152052330Y-119488789D01*
X152045000Y-119493263D01*
X152041291Y-119495179D01*
X152035607Y-119497347D01*
X152028430Y-119498990D01*
X152018660Y-119500236D01*
X152005196Y-119501214D01*
X151986937Y-119502053D01*
X151962782Y-119502882D01*
X151936667Y-119503826D01*
X151913681Y-119505029D01*
X151895876Y-119506539D01*
X151882298Y-119508497D01*
X151871995Y-119511044D01*
X151864013Y-119514320D01*
X151857401Y-119518466D01*
X151856938Y-119518809D01*
X151853787Y-119521268D01*
X151851054Y-119523957D01*
X151848708Y-119527360D01*
X151846721Y-119531960D01*
X151845061Y-119538241D01*
X151843698Y-119546686D01*
X151842602Y-119557778D01*
X151841744Y-119572001D01*
X151841092Y-119589838D01*
X151840617Y-119611772D01*
X151840288Y-119638287D01*
X151840076Y-119669865D01*
X151839949Y-119706991D01*
X151839879Y-119750148D01*
X151839834Y-119799818D01*
X151839842Y-119841368D01*
X151840072Y-119912320D01*
X151840586Y-119976462D01*
X151841389Y-120033910D01*
X151842484Y-120084780D01*
X151843878Y-120129189D01*
X151845575Y-120167255D01*
X151847579Y-120199094D01*
X151849896Y-120224823D01*
X151852530Y-120244560D01*
X151855485Y-120258420D01*
X151858767Y-120266521D01*
X151860152Y-120268457D01*
X151863545Y-120271730D01*
X151868479Y-120274249D01*
X151875864Y-120276155D01*
X151886609Y-120277591D01*
X151901623Y-120278700D01*
X151921815Y-120279624D01*
X151948094Y-120280504D01*
X151968158Y-120281192D01*
X151987848Y-120282144D01*
X152002762Y-120283327D01*
X152014135Y-120284877D01*
X152023198Y-120286929D01*
X152031186Y-120289619D01*
X152049554Y-120296752D01*
X152049554Y-120320305D01*
X152049554Y-120343857D01*
X152035335Y-120350269D01*
X152034628Y-120350582D01*
X152031590Y-120351732D01*
X152027869Y-120352727D01*
X152022980Y-120353576D01*
X152016435Y-120354291D01*
X152007751Y-120354881D01*
X151996441Y-120355357D01*
X151982019Y-120355729D01*
X151964000Y-120356008D01*
X151941897Y-120356204D01*
X151915226Y-120356327D01*
X151883501Y-120356388D01*
X151846235Y-120356397D01*
X151802944Y-120356364D01*
X151753141Y-120356301D01*
X151752274Y-120356300D01*
X151700271Y-120356246D01*
X151654822Y-120356205D01*
X151615489Y-120356122D01*
X151581836Y-120355945D01*
X151553427Y-120355619D01*
X151529824Y-120355090D01*
X151510591Y-120354304D01*
X151495291Y-120353209D01*
X151483487Y-120351750D01*
X151474743Y-120349874D01*
X151468622Y-120347526D01*
X151464687Y-120344653D01*
X151462502Y-120341201D01*
X151461629Y-120337116D01*
X151461632Y-120332345D01*
X151462075Y-120326835D01*
X151462520Y-120320530D01*
X151462734Y-120315951D01*
X151463615Y-120305409D01*
X151465602Y-120299050D01*
X151469718Y-120294742D01*
X151476984Y-120290353D01*
X151481093Y-120288237D01*
X151486757Y-120286105D01*
X151493888Y-120284509D01*
X151503592Y-120283322D01*
X151516975Y-120282418D01*
X151535143Y-120281671D01*
X151559201Y-120280953D01*
X151560624Y-120280914D01*
X151582492Y-120280157D01*
X151602492Y-120279198D01*
X151619343Y-120278116D01*
X151631762Y-120276995D01*
X151638466Y-120275914D01*
X151640593Y-120275224D01*
X151644741Y-120273403D01*
X151648402Y-120270765D01*
X151651612Y-120266895D01*
X151654403Y-120261384D01*
X151656807Y-120253818D01*
X151658858Y-120243787D01*
X151660589Y-120230877D01*
X151662032Y-120214678D01*
X151663221Y-120194776D01*
X151664189Y-120170761D01*
X151664969Y-120142220D01*
X151665593Y-120108742D01*
X151666096Y-120069914D01*
X151666509Y-120025325D01*
X151666865Y-119974562D01*
X151667198Y-119917214D01*
X151667301Y-119897682D01*
X151667494Y-119854752D01*
X151667633Y-119814128D01*
X151667719Y-119776331D01*
X151667751Y-119741883D01*
X151667732Y-119711304D01*
X151667661Y-119685117D01*
X151667539Y-119663841D01*
X151667366Y-119647999D01*
X151667144Y-119638111D01*
X151666873Y-119634700D01*
X151666246Y-119635053D01*
X151660806Y-119638573D01*
X151650094Y-119645668D01*
X151634476Y-119656094D01*
X151614317Y-119669603D01*
X151589981Y-119685951D01*
X151561834Y-119704892D01*
X151530241Y-119726180D01*
X151495567Y-119749569D01*
X151458176Y-119774813D01*
X151418435Y-119801667D01*
X151376707Y-119829885D01*
X151333358Y-119859222D01*
X151279903Y-119895393D01*
X151204958Y-119946041D01*
X151133291Y-119994395D01*
X151065130Y-120040303D01*
X151000702Y-120083614D01*
X150940231Y-120124178D01*
X150883946Y-120161841D01*
X150832072Y-120196453D01*
X150784835Y-120227863D01*
X150742462Y-120255919D01*
X150705179Y-120280469D01*
X150673213Y-120301363D01*
X150646789Y-120318448D01*
X150593523Y-120352634D01*
X150522978Y-120361057D01*
X150502245Y-120363622D01*
X150474996Y-120367209D01*
X150447946Y-120370974D01*
X150423348Y-120374602D01*
X150403452Y-120377778D01*
X150395608Y-120379123D01*
X150374688Y-120382776D01*
X150359564Y-120385152D01*
X150349357Y-120385898D01*
X150343185Y-120384659D01*
X150340170Y-120381082D01*
X150339432Y-120374815D01*
X150340091Y-120365503D01*
X150341268Y-120352792D01*
X150341488Y-120348812D01*
X150341855Y-120336722D01*
X150342204Y-120318467D01*
X150342533Y-120294573D01*
X150342837Y-120265566D01*
X150343112Y-120231972D01*
X150343355Y-120194319D01*
X150343563Y-120153131D01*
X150343731Y-120108936D01*
X150343856Y-120062260D01*
X150343934Y-120013629D01*
X150343963Y-119963570D01*
X150343955Y-119909304D01*
X150343907Y-119849381D01*
X150343794Y-119795800D01*
X150343591Y-119748201D01*
X150343275Y-119706224D01*
X150342822Y-119669510D01*
X150342207Y-119637698D01*
X150341407Y-119610430D01*
X150340397Y-119587346D01*
X150339154Y-119568085D01*
X150337653Y-119552289D01*
X150335870Y-119539597D01*
X150333782Y-119529649D01*
X150331364Y-119522087D01*
X150328592Y-119516549D01*
X150325443Y-119512678D01*
X150321892Y-119510112D01*
X150317915Y-119508492D01*
X150313488Y-119507459D01*
X150307348Y-119506756D01*
X150295081Y-119505874D01*
X150278405Y-119504960D01*
X150258679Y-119504087D01*
X150237268Y-119503329D01*
X150233758Y-119503219D01*
X150210744Y-119502382D01*
X150193360Y-119501447D01*
X150180395Y-119500275D01*
X150170640Y-119498727D01*
X150162886Y-119496662D01*
X150155925Y-119493942D01*
X150139306Y-119486562D01*
X150139306Y-119463640D01*
X150205781Y-119463640D01*
X150206763Y-119464081D01*
X150213329Y-119465007D01*
X150225045Y-119465990D01*
X150240713Y-119466938D01*
X150259134Y-119467759D01*
X150273678Y-119468388D01*
X150304913Y-119470546D01*
X150330240Y-119473719D01*
X150350403Y-119478098D01*
X150366148Y-119483872D01*
X150378220Y-119491230D01*
X150387366Y-119500362D01*
X150390313Y-119504484D01*
X150393492Y-119510157D01*
X150396323Y-119517021D01*
X150398825Y-119525461D01*
X150401018Y-119535865D01*
X150402922Y-119548620D01*
X150404556Y-119564113D01*
X150405941Y-119582732D01*
X150407094Y-119604863D01*
X150408037Y-119630894D01*
X150408788Y-119661212D01*
X150409368Y-119696203D01*
X150409795Y-119736256D01*
X150410090Y-119781758D01*
X150410272Y-119833095D01*
X150410361Y-119890654D01*
X150410376Y-119954824D01*
X150410375Y-119959365D01*
X150410331Y-120007073D01*
X150410234Y-120053231D01*
X150410088Y-120097296D01*
X150409898Y-120138723D01*
X150409667Y-120176965D01*
X150409401Y-120211480D01*
X150409102Y-120241721D01*
X150408775Y-120267145D01*
X150408425Y-120287205D01*
X150408055Y-120301359D01*
X150407670Y-120309059D01*
X150405038Y-120337923D01*
X150416490Y-120337429D01*
X150420044Y-120337172D01*
X150430744Y-120336075D01*
X150445899Y-120334316D01*
X150464085Y-120332081D01*
X150483875Y-120329555D01*
X150503844Y-120326925D01*
X150522568Y-120324378D01*
X150538619Y-120322098D01*
X150550573Y-120320272D01*
X150557005Y-120319087D01*
X150559842Y-120317810D01*
X150568804Y-120312661D01*
X150583326Y-120303701D01*
X150603281Y-120291015D01*
X150628541Y-120274688D01*
X150658979Y-120254805D01*
X150694466Y-120231450D01*
X150734875Y-120204709D01*
X150780079Y-120174666D01*
X150829949Y-120141407D01*
X150884359Y-120105015D01*
X150943181Y-120065577D01*
X151006287Y-120023176D01*
X151073549Y-119977898D01*
X151144839Y-119929828D01*
X151220032Y-119879050D01*
X151298997Y-119825649D01*
X151308249Y-119819389D01*
X151357560Y-119786031D01*
X151405229Y-119753800D01*
X151450935Y-119722910D01*
X151494360Y-119693578D01*
X151535185Y-119666019D01*
X151573089Y-119640447D01*
X151607755Y-119617077D01*
X151638862Y-119596126D01*
X151666091Y-119577807D01*
X151689122Y-119562337D01*
X151707638Y-119549929D01*
X151721318Y-119540801D01*
X151729843Y-119535166D01*
X151732894Y-119533240D01*
X151732921Y-119533252D01*
X151733332Y-119537053D01*
X151733686Y-119547215D01*
X151733984Y-119563136D01*
X151734228Y-119584216D01*
X151734419Y-119609854D01*
X151734560Y-119639451D01*
X151734651Y-119672405D01*
X151734695Y-119708116D01*
X151734693Y-119745984D01*
X151734647Y-119785407D01*
X151734557Y-119825786D01*
X151734427Y-119866519D01*
X151734257Y-119907007D01*
X151734049Y-119946648D01*
X151733805Y-119984842D01*
X151733525Y-120020989D01*
X151733213Y-120054488D01*
X151732869Y-120084738D01*
X151732496Y-120111139D01*
X151732094Y-120133091D01*
X151731665Y-120149992D01*
X151731211Y-120161243D01*
X151730589Y-120171890D01*
X151728428Y-120202961D01*
X151725944Y-120228071D01*
X151722906Y-120248016D01*
X151719080Y-120263593D01*
X151714234Y-120275598D01*
X151708136Y-120284828D01*
X151700553Y-120292078D01*
X151691254Y-120298146D01*
X151688743Y-120299493D01*
X151675619Y-120304912D01*
X151659170Y-120309204D01*
X151638483Y-120312525D01*
X151612644Y-120315029D01*
X151580739Y-120316870D01*
X151580293Y-120316890D01*
X151572648Y-120317379D01*
X151571859Y-120317834D01*
X151577791Y-120318255D01*
X151590308Y-120318637D01*
X151609274Y-120318980D01*
X151634554Y-120319280D01*
X151666013Y-120319535D01*
X151703515Y-120319742D01*
X151746923Y-120319900D01*
X151754248Y-120319922D01*
X151792768Y-120320075D01*
X151829238Y-120320283D01*
X151863042Y-120320538D01*
X151893559Y-120320832D01*
X151920172Y-120321158D01*
X151942262Y-120321509D01*
X151959211Y-120321877D01*
X151970399Y-120322255D01*
X151975208Y-120322635D01*
X151980266Y-120323194D01*
X151983080Y-120321360D01*
X151982325Y-120320736D01*
X151976047Y-120319384D01*
X151964233Y-120318080D01*
X151947879Y-120316922D01*
X151927977Y-120316006D01*
X151900794Y-120314692D01*
X151872822Y-120312243D01*
X151850344Y-120308719D01*
X151832550Y-120303945D01*
X151818632Y-120297745D01*
X151807781Y-120289943D01*
X151804514Y-120286880D01*
X151800548Y-120282605D01*
X151797022Y-120277764D01*
X151793908Y-120271954D01*
X151791179Y-120264774D01*
X151788804Y-120255822D01*
X151786757Y-120244696D01*
X151785008Y-120230993D01*
X151783530Y-120214313D01*
X151782294Y-120194252D01*
X151781271Y-120170410D01*
X151780434Y-120142384D01*
X151779753Y-120109772D01*
X151779202Y-120072172D01*
X151778750Y-120029183D01*
X151778370Y-119980403D01*
X151778034Y-119925429D01*
X151777712Y-119863860D01*
X151777544Y-119827918D01*
X151777326Y-119770605D01*
X151777206Y-119719955D01*
X151777186Y-119675754D01*
X151777267Y-119637792D01*
X151777451Y-119605854D01*
X151777738Y-119579728D01*
X151778131Y-119559203D01*
X151778630Y-119544065D01*
X151779238Y-119534102D01*
X151779955Y-119529102D01*
X151780578Y-119527235D01*
X151788559Y-119513733D01*
X151801700Y-119500677D01*
X151818456Y-119489359D01*
X151837284Y-119481073D01*
X151854702Y-119476320D01*
X151884329Y-119471119D01*
X151918494Y-119467881D01*
X151955874Y-119466766D01*
X151968512Y-119466613D01*
X151981486Y-119466063D01*
X151990316Y-119465206D01*
X151993577Y-119464142D01*
X151992842Y-119463912D01*
X151986437Y-119463455D01*
X151973975Y-119463063D01*
X151956100Y-119462739D01*
X151933453Y-119462492D01*
X151906680Y-119462326D01*
X151876422Y-119462248D01*
X151843322Y-119462264D01*
X151808025Y-119462380D01*
X151622472Y-119463242D01*
X151441543Y-119590390D01*
X151417640Y-119607129D01*
X151387470Y-119628139D01*
X151353353Y-119651801D01*
X151315801Y-119677765D01*
X151275323Y-119705683D01*
X151232431Y-119735205D01*
X151187635Y-119765982D01*
X151141446Y-119797667D01*
X151094375Y-119829909D01*
X151046932Y-119862361D01*
X150999628Y-119894673D01*
X150952975Y-119926496D01*
X150907482Y-119957482D01*
X150863660Y-119987282D01*
X150822020Y-120015546D01*
X150783073Y-120041927D01*
X150747330Y-120066075D01*
X150715301Y-120087641D01*
X150687497Y-120106277D01*
X150664429Y-120121633D01*
X150646607Y-120133362D01*
X150642546Y-120135994D01*
X150627433Y-120145634D01*
X150608889Y-120157290D01*
X150587954Y-120170325D01*
X150565668Y-120184100D01*
X150543071Y-120197979D01*
X150521201Y-120211325D01*
X150501100Y-120223500D01*
X150483807Y-120233867D01*
X150470360Y-120241789D01*
X150461801Y-120246628D01*
X150453676Y-120250975D01*
X150455249Y-119922720D01*
X150455330Y-119906388D01*
X150455713Y-119840562D01*
X150456155Y-119781551D01*
X150456656Y-119729380D01*
X150457216Y-119684069D01*
X150457834Y-119645643D01*
X150458509Y-119614123D01*
X150459242Y-119589532D01*
X150460032Y-119571893D01*
X150460879Y-119561229D01*
X150461375Y-119557360D01*
X150466454Y-119530986D01*
X150474061Y-119510514D01*
X150484672Y-119495230D01*
X150498763Y-119484422D01*
X150516811Y-119477374D01*
X150519954Y-119476593D01*
X150536243Y-119473592D01*
X150557035Y-119470920D01*
X150580336Y-119468768D01*
X150604152Y-119467329D01*
X150626489Y-119466795D01*
X150635867Y-119466685D01*
X150648608Y-119466146D01*
X150657353Y-119465259D01*
X150660601Y-119464142D01*
X150660134Y-119463973D01*
X150654307Y-119463530D01*
X150642276Y-119463113D01*
X150624625Y-119462730D01*
X150601932Y-119462388D01*
X150574780Y-119462092D01*
X150543749Y-119461851D01*
X150509419Y-119461671D01*
X150472373Y-119461557D01*
X150433192Y-119461518D01*
X150418581Y-119461522D01*
X150380116Y-119461577D01*
X150344001Y-119461689D01*
X150310816Y-119461854D01*
X150281143Y-119462065D01*
X150255562Y-119462319D01*
X150234654Y-119462608D01*
X150219001Y-119462928D01*
X150209183Y-119463274D01*
X150205781Y-119463640D01*
X150139306Y-119463640D01*
X150139306Y-119463424D01*
X150139304Y-119462794D01*
X150139102Y-119456437D01*
X150138876Y-119450886D01*
X150139065Y-119446085D01*
X150140108Y-119441979D01*
X150142444Y-119438514D01*
X150146511Y-119435635D01*
X150152749Y-119433286D01*
X150161596Y-119431412D01*
X150173491Y-119429960D01*
X150188872Y-119428873D01*
X150208179Y-119428098D01*
X150231851Y-119427578D01*
X150260325Y-119427259D01*
X150294041Y-119427086D01*
X150333437Y-119427005D01*
X150378953Y-119426959D01*
X150431027Y-119426895D01*
X150700835Y-119426448D01*
X150713955Y-119434406D01*
X150714851Y-119434951D01*
X150721788Y-119439638D01*
X150725432Y-119444354D01*
X150726841Y-119451422D01*
X150727075Y-119463164D01*
X150727075Y-119483964D01*
X150712206Y-119492460D01*
X150706913Y-119495278D01*
X150701144Y-119497581D01*
X150694152Y-119499287D01*
X150684782Y-119500548D01*
X150671880Y-119501517D01*
X150654292Y-119502346D01*
X150630863Y-119503186D01*
X150611232Y-119503877D01*
X150588309Y-119504851D01*
X150570911Y-119505915D01*
X150558169Y-119507197D01*
X150549214Y-119508824D01*
X150543179Y-119510923D01*
X150539195Y-119513621D01*
X150536393Y-119517048D01*
X150534444Y-119521056D01*
X150530985Y-119534035D01*
X150527915Y-119553869D01*
X150525238Y-119580472D01*
X150522957Y-119613756D01*
X150521077Y-119653636D01*
X150519601Y-119700024D01*
X150518532Y-119752834D01*
X150517875Y-119811980D01*
X150517633Y-119877374D01*
X150517810Y-119948930D01*
X150518907Y-120159951D01*
X150573135Y-120125436D01*
X150575282Y-120124066D01*
X150592075Y-120113174D01*
X150614077Y-120098674D01*
X150640815Y-120080887D01*
X150671818Y-120060135D01*
X150706614Y-120036740D01*
X150744733Y-120011023D01*
X150785701Y-119983306D01*
X150829048Y-119953910D01*
X150874302Y-119923158D01*
X150920990Y-119891371D01*
X150968643Y-119858870D01*
X151016787Y-119825977D01*
X151064951Y-119793014D01*
X151112664Y-119760303D01*
X151159454Y-119728164D01*
X151204849Y-119696920D01*
X151248377Y-119666893D01*
X151289568Y-119638404D01*
X151327948Y-119611774D01*
X151363048Y-119587326D01*
X151394394Y-119565380D01*
X151591148Y-119427196D01*
X151812479Y-119426608D01*
X152033810Y-119426019D01*
X152047093Y-119434294D01*
X152060376Y-119442569D01*
X152059341Y-119464142D01*
X152059339Y-119464194D01*
G37*
%TD*%
M02*
