%TF.GenerationSoftware,KiCad,Pcbnew,7.0.2*%
%TF.CreationDate,2025-06-08T11:20:15-07:00*%
%TF.ProjectId,AA_PwrSens_Dist,41415f50-7772-4536-956e-735f44697374,rev?*%
%TF.SameCoordinates,Original*%
%TF.FileFunction,Profile,NP*%
%FSLAX46Y46*%
G04 Gerber Fmt 4.6, Leading zero omitted, Abs format (unit mm)*
G04 Created by KiCad (PCBNEW 7.0.2) date 2025-06-08 11:20:15*
%MOMM*%
%LPD*%
G01*
G04 APERTURE LIST*
%TA.AperFunction,Profile*%
%ADD10C,0.100000*%
%TD*%
G04 APERTURE END LIST*
D10*
X213325000Y-80999000D02*
G75*
G03*
X213071000Y-80745000I-254000J0D01*
G01*
X66005000Y-79221000D02*
G75*
G03*
X66259000Y-79475000I254000J0D01*
G01*
X66005000Y-79221000D02*
X66005000Y-15467000D01*
X213071000Y-169645000D02*
X66259000Y-169645000D01*
X66259000Y-15213000D02*
X174463000Y-15213000D01*
X174717000Y-15467000D02*
G75*
G03*
X175987000Y-15467000I635000J0D01*
G01*
X66259000Y-80745000D02*
G75*
G03*
X66259000Y-79475000I0J635000D01*
G01*
X213325000Y-15467000D02*
G75*
G03*
X213071000Y-15213000I-254000J0D01*
G01*
X213071000Y-79475000D02*
G75*
G03*
X213325000Y-79221000I0J254000D01*
G01*
X66259000Y-80745000D02*
G75*
G03*
X66005000Y-80999000I0J-254000D01*
G01*
X66259000Y-15213000D02*
G75*
G03*
X66005000Y-15467000I0J-254000D01*
G01*
X176241000Y-15213000D02*
G75*
G03*
X175987000Y-15467000I0J-254000D01*
G01*
X213071000Y-79475000D02*
G75*
G03*
X213071000Y-80745000I0J-635000D01*
G01*
X66005000Y-169391000D02*
X66005000Y-80999000D01*
X213325000Y-80999000D02*
X213325000Y-169391000D01*
X174717000Y-15467000D02*
G75*
G03*
X174463000Y-15213000I-254000J0D01*
G01*
X176241000Y-15213000D02*
X213071000Y-15213000D01*
X66005000Y-169391000D02*
G75*
G03*
X66259000Y-169645000I254000J0D01*
G01*
X213071000Y-169645000D02*
G75*
G03*
X213325000Y-169391000I0J254000D01*
G01*
X213325000Y-15467000D02*
X213325000Y-79221000D01*
M02*
