%TF.GenerationSoftware,KiCad,Pcbnew,7.0.2*%
%TF.CreationDate,2025-06-08T11:20:15-07:00*%
%TF.ProjectId,AA_PwrSens_Dist,41415f50-7772-4536-956e-735f44697374,rev?*%
%TF.SameCoordinates,Original*%
%TF.FileFunction,Legend,Bot*%
%TF.FilePolarity,Positive*%
%FSLAX46Y46*%
G04 Gerber Fmt 4.6, Leading zero omitted, Abs format (unit mm)*
G04 Created by KiCad (PCBNEW 7.0.2) date 2025-06-08 11:20:15*
%MOMM*%
%LPD*%
G01*
G04 APERTURE LIST*
%ADD10C,0.150000*%
G04 APERTURE END LIST*
D10*
X212182000Y-80110000D02*
X67148000Y-80110000D01*
X175352000Y-80110000D02*
X175352000Y-16356000D01*
X197041904Y-23150476D02*
X197041904Y-23626666D01*
X197327619Y-23055238D02*
X196327619Y-23388571D01*
X196327619Y-23388571D02*
X197327619Y-23721904D01*
X197041904Y-24007619D02*
X197041904Y-24483809D01*
X197327619Y-23912381D02*
X196327619Y-24245714D01*
X196327619Y-24245714D02*
X197327619Y-24579047D01*
X196946666Y-24912381D02*
X196946666Y-25674286D01*
X197327619Y-26150476D02*
X196327619Y-26150476D01*
X196803809Y-26150476D02*
X196803809Y-26721904D01*
X197327619Y-26721904D02*
X196327619Y-26721904D01*
X197280000Y-27579047D02*
X197327619Y-27483809D01*
X197327619Y-27483809D02*
X197327619Y-27293333D01*
X197327619Y-27293333D02*
X197280000Y-27198095D01*
X197280000Y-27198095D02*
X197184761Y-27150476D01*
X197184761Y-27150476D02*
X196803809Y-27150476D01*
X196803809Y-27150476D02*
X196708571Y-27198095D01*
X196708571Y-27198095D02*
X196660952Y-27293333D01*
X196660952Y-27293333D02*
X196660952Y-27483809D01*
X196660952Y-27483809D02*
X196708571Y-27579047D01*
X196708571Y-27579047D02*
X196803809Y-27626666D01*
X196803809Y-27626666D02*
X196899047Y-27626666D01*
X196899047Y-27626666D02*
X196994285Y-27150476D01*
X197327619Y-28483809D02*
X196803809Y-28483809D01*
X196803809Y-28483809D02*
X196708571Y-28436190D01*
X196708571Y-28436190D02*
X196660952Y-28340952D01*
X196660952Y-28340952D02*
X196660952Y-28150476D01*
X196660952Y-28150476D02*
X196708571Y-28055238D01*
X197280000Y-28483809D02*
X197327619Y-28388571D01*
X197327619Y-28388571D02*
X197327619Y-28150476D01*
X197327619Y-28150476D02*
X197280000Y-28055238D01*
X197280000Y-28055238D02*
X197184761Y-28007619D01*
X197184761Y-28007619D02*
X197089523Y-28007619D01*
X197089523Y-28007619D02*
X196994285Y-28055238D01*
X196994285Y-28055238D02*
X196946666Y-28150476D01*
X196946666Y-28150476D02*
X196946666Y-28388571D01*
X196946666Y-28388571D02*
X196899047Y-28483809D01*
X197327619Y-29388571D02*
X196327619Y-29388571D01*
X197280000Y-29388571D02*
X197327619Y-29293333D01*
X197327619Y-29293333D02*
X197327619Y-29102857D01*
X197327619Y-29102857D02*
X197280000Y-29007619D01*
X197280000Y-29007619D02*
X197232380Y-28960000D01*
X197232380Y-28960000D02*
X197137142Y-28912381D01*
X197137142Y-28912381D02*
X196851428Y-28912381D01*
X196851428Y-28912381D02*
X196756190Y-28960000D01*
X196756190Y-28960000D02*
X196708571Y-29007619D01*
X196708571Y-29007619D02*
X196660952Y-29102857D01*
X196660952Y-29102857D02*
X196660952Y-29293333D01*
X196660952Y-29293333D02*
X196708571Y-29388571D01*
X196660952Y-30531429D02*
X197327619Y-30769524D01*
X197327619Y-30769524D02*
X196660952Y-31007619D01*
X197327619Y-31912381D02*
X197327619Y-31340953D01*
X197327619Y-31626667D02*
X196327619Y-31626667D01*
X196327619Y-31626667D02*
X196470476Y-31531429D01*
X196470476Y-31531429D02*
X196565714Y-31436191D01*
X196565714Y-31436191D02*
X196613333Y-31340953D01*
X197232380Y-32340953D02*
X197280000Y-32388572D01*
X197280000Y-32388572D02*
X197327619Y-32340953D01*
X197327619Y-32340953D02*
X197280000Y-32293334D01*
X197280000Y-32293334D02*
X197232380Y-32340953D01*
X197232380Y-32340953D02*
X197327619Y-32340953D01*
X196327619Y-33007619D02*
X196327619Y-33102857D01*
X196327619Y-33102857D02*
X196375238Y-33198095D01*
X196375238Y-33198095D02*
X196422857Y-33245714D01*
X196422857Y-33245714D02*
X196518095Y-33293333D01*
X196518095Y-33293333D02*
X196708571Y-33340952D01*
X196708571Y-33340952D02*
X196946666Y-33340952D01*
X196946666Y-33340952D02*
X197137142Y-33293333D01*
X197137142Y-33293333D02*
X197232380Y-33245714D01*
X197232380Y-33245714D02*
X197280000Y-33198095D01*
X197280000Y-33198095D02*
X197327619Y-33102857D01*
X197327619Y-33102857D02*
X197327619Y-33007619D01*
X197327619Y-33007619D02*
X197280000Y-32912381D01*
X197280000Y-32912381D02*
X197232380Y-32864762D01*
X197232380Y-32864762D02*
X197137142Y-32817143D01*
X197137142Y-32817143D02*
X196946666Y-32769524D01*
X196946666Y-32769524D02*
X196708571Y-32769524D01*
X196708571Y-32769524D02*
X196518095Y-32817143D01*
X196518095Y-32817143D02*
X196422857Y-32864762D01*
X196422857Y-32864762D02*
X196375238Y-32912381D01*
X196375238Y-32912381D02*
X196327619Y-33007619D01*
%TO.C,G\u002A\u002A\u002A*%
G36*
X198074505Y-16846157D02*
G01*
X198074505Y-17250248D01*
X197649422Y-17250248D01*
X197224339Y-17250248D01*
X197224339Y-16846157D01*
X197224339Y-16442066D01*
X197649422Y-16442066D01*
X198074505Y-16442066D01*
X198074505Y-16846157D01*
G37*
G36*
X196475634Y-18577975D02*
G01*
X196475634Y-20790854D01*
X196078540Y-20790854D01*
X195681447Y-20790854D01*
X195681447Y-18577975D01*
X195681447Y-16365097D01*
X196078540Y-16365097D01*
X196475634Y-16365097D01*
X196475634Y-18577975D01*
G37*
G36*
X198050014Y-19235133D02*
G01*
X198050013Y-19283113D01*
X198050003Y-19386147D01*
X198049983Y-19487310D01*
X198049954Y-19586380D01*
X198049915Y-19683133D01*
X198049866Y-19777348D01*
X198049810Y-19868800D01*
X198049745Y-19957268D01*
X198049671Y-20042527D01*
X198049591Y-20124356D01*
X198049502Y-20202531D01*
X198049407Y-20276830D01*
X198049305Y-20347029D01*
X198049197Y-20412906D01*
X198049082Y-20474237D01*
X198048962Y-20530800D01*
X198048837Y-20582372D01*
X198048707Y-20628731D01*
X198048572Y-20669652D01*
X198048432Y-20704913D01*
X198048289Y-20734292D01*
X198048142Y-20757565D01*
X198047991Y-20774510D01*
X198047838Y-20784903D01*
X198047682Y-20788522D01*
X198047190Y-20788625D01*
X198041216Y-20788929D01*
X198028838Y-20789219D01*
X198010500Y-20789495D01*
X197986646Y-20789752D01*
X197957721Y-20789989D01*
X197924169Y-20790203D01*
X197886435Y-20790391D01*
X197844964Y-20790551D01*
X197800199Y-20790680D01*
X197752585Y-20790775D01*
X197702567Y-20790834D01*
X197650588Y-20790854D01*
X197255827Y-20790854D01*
X197255827Y-19237466D01*
X197255827Y-17684077D01*
X197652921Y-17684077D01*
X198050014Y-17684077D01*
X198050014Y-19235133D01*
G37*
G36*
X194897755Y-18577975D02*
G01*
X194897755Y-20790854D01*
X194505910Y-20790854D01*
X194114064Y-20790854D01*
X194113932Y-20293175D01*
X194113799Y-19795496D01*
X193941624Y-19605965D01*
X193915562Y-19577277D01*
X193888756Y-19547778D01*
X193863662Y-19520169D01*
X193840655Y-19494861D01*
X193820107Y-19472265D01*
X193802393Y-19452793D01*
X193787887Y-19436855D01*
X193776964Y-19424864D01*
X193769996Y-19417230D01*
X193767359Y-19414365D01*
X193767177Y-19414551D01*
X193764497Y-19419088D01*
X193758757Y-19429467D01*
X193750104Y-19445410D01*
X193738686Y-19466639D01*
X193724650Y-19492877D01*
X193708144Y-19523845D01*
X193689314Y-19559265D01*
X193668307Y-19598860D01*
X193645272Y-19642351D01*
X193620355Y-19689461D01*
X193593703Y-19739912D01*
X193565464Y-19793425D01*
X193535785Y-19849722D01*
X193504813Y-19908527D01*
X193472696Y-19969561D01*
X193439580Y-20032545D01*
X193405613Y-20097202D01*
X193396573Y-20114417D01*
X193362777Y-20178761D01*
X193329862Y-20241411D01*
X193297975Y-20302084D01*
X193267265Y-20360500D01*
X193237880Y-20416377D01*
X193209968Y-20469434D01*
X193183677Y-20519390D01*
X193159156Y-20565963D01*
X193136552Y-20608872D01*
X193116015Y-20647836D01*
X193097691Y-20682573D01*
X193081730Y-20712802D01*
X193068279Y-20738242D01*
X193057487Y-20758611D01*
X193049501Y-20773628D01*
X193044471Y-20783012D01*
X193042544Y-20786481D01*
X193041457Y-20786978D01*
X193037611Y-20787598D01*
X193030757Y-20788153D01*
X193020589Y-20788645D01*
X193006801Y-20789080D01*
X192989084Y-20789458D01*
X192967132Y-20789783D01*
X192940638Y-20790059D01*
X192909296Y-20790288D01*
X192872798Y-20790474D01*
X192830837Y-20790619D01*
X192783107Y-20790726D01*
X192729301Y-20790799D01*
X192669111Y-20790841D01*
X192602231Y-20790854D01*
X192548416Y-20790845D01*
X192495682Y-20790817D01*
X192445334Y-20790771D01*
X192397792Y-20790709D01*
X192353475Y-20790633D01*
X192312802Y-20790542D01*
X192276192Y-20790438D01*
X192244064Y-20790323D01*
X192216838Y-20790198D01*
X192194932Y-20790064D01*
X192178767Y-20789921D01*
X192168760Y-20789772D01*
X192165331Y-20789617D01*
X192165977Y-20788409D01*
X192169725Y-20781662D01*
X192176698Y-20769190D01*
X192186767Y-20751225D01*
X192199804Y-20727997D01*
X192215677Y-20699737D01*
X192234258Y-20666674D01*
X192255417Y-20629039D01*
X192279024Y-20587063D01*
X192304950Y-20540975D01*
X192333065Y-20491006D01*
X192363239Y-20437387D01*
X192395344Y-20380348D01*
X192429248Y-20320119D01*
X192464824Y-20256930D01*
X192501940Y-20191011D01*
X192540468Y-20122594D01*
X192580278Y-20051909D01*
X192621240Y-19979185D01*
X192663224Y-19904654D01*
X192706102Y-19828544D01*
X192732478Y-19781726D01*
X192774835Y-19706536D01*
X192816222Y-19633058D01*
X192856511Y-19561521D01*
X192895571Y-19492157D01*
X192933273Y-19425196D01*
X192969486Y-19360870D01*
X193004082Y-19299409D01*
X193036929Y-19241043D01*
X193067899Y-19186005D01*
X193096862Y-19134523D01*
X193123687Y-19086830D01*
X193148245Y-19043155D01*
X193170406Y-19003731D01*
X193190040Y-18968786D01*
X193207018Y-18938553D01*
X193221209Y-18913262D01*
X193232484Y-18893144D01*
X193240713Y-18878429D01*
X193245766Y-18869348D01*
X193247514Y-18866133D01*
X193247119Y-18865559D01*
X193242957Y-18860600D01*
X193234424Y-18850761D01*
X193221728Y-18836276D01*
X193205077Y-18817380D01*
X193184679Y-18794306D01*
X193160742Y-18767288D01*
X193133474Y-18736561D01*
X193103083Y-18702357D01*
X193069778Y-18664912D01*
X193033765Y-18624458D01*
X192995254Y-18581230D01*
X192954452Y-18535462D01*
X192911567Y-18487388D01*
X192866808Y-18437242D01*
X192820382Y-18385256D01*
X192772497Y-18331667D01*
X192723361Y-18276707D01*
X192702474Y-18253348D01*
X192653817Y-18198925D01*
X192606484Y-18145969D01*
X192560684Y-18094714D01*
X192516626Y-18045395D01*
X192474518Y-17998247D01*
X192434570Y-17953502D01*
X192396990Y-17911396D01*
X192361987Y-17872162D01*
X192329771Y-17836036D01*
X192300549Y-17803250D01*
X192274531Y-17774039D01*
X192251926Y-17748637D01*
X192232943Y-17727279D01*
X192217790Y-17710199D01*
X192206676Y-17697631D01*
X192199810Y-17689809D01*
X192197402Y-17686967D01*
X192197614Y-17686871D01*
X192202707Y-17686523D01*
X192214280Y-17686191D01*
X192231922Y-17685879D01*
X192255225Y-17685588D01*
X192283780Y-17685320D01*
X192317178Y-17685079D01*
X192355010Y-17684866D01*
X192396868Y-17684684D01*
X192442341Y-17684536D01*
X192491023Y-17684423D01*
X192542503Y-17684348D01*
X192596372Y-17684313D01*
X192652223Y-17684321D01*
X193108210Y-17684565D01*
X193610262Y-18292858D01*
X194112315Y-18901150D01*
X194113194Y-17633123D01*
X194114073Y-16365097D01*
X194505914Y-16365097D01*
X194897755Y-16365097D01*
X194897755Y-18577975D01*
G37*
G36*
X200959956Y-21356524D02*
G01*
X200959932Y-21400391D01*
X200959838Y-21445128D01*
X200959675Y-21490081D01*
X200959445Y-21534594D01*
X200959152Y-21578011D01*
X200958798Y-21619675D01*
X200958384Y-21658933D01*
X200957915Y-21695127D01*
X200957391Y-21727603D01*
X200956817Y-21755704D01*
X200956193Y-21778775D01*
X200955523Y-21796160D01*
X200954809Y-21807204D01*
X200952122Y-21835193D01*
X200908389Y-21839577D01*
X200905759Y-21839837D01*
X200884561Y-21841753D01*
X200859684Y-21843764D01*
X200834011Y-21845645D01*
X200810427Y-21847174D01*
X200790125Y-21848094D01*
X200762735Y-21848810D01*
X200730977Y-21849242D01*
X200695986Y-21849403D01*
X200658900Y-21849307D01*
X200620854Y-21848967D01*
X200582986Y-21848398D01*
X200546431Y-21847614D01*
X200512326Y-21846629D01*
X200481807Y-21845455D01*
X200456011Y-21844108D01*
X200436075Y-21842601D01*
X200379409Y-21836432D01*
X200321100Y-21828068D01*
X200267658Y-21817987D01*
X200218018Y-21805956D01*
X200171114Y-21791744D01*
X200125880Y-21775118D01*
X200103721Y-21765765D01*
X200051706Y-21739402D01*
X200005409Y-21709163D01*
X199964881Y-21675102D01*
X199930173Y-21637271D01*
X199901337Y-21595723D01*
X199878424Y-21550511D01*
X199861484Y-21501688D01*
X199860688Y-21498734D01*
X199857918Y-21486758D01*
X199856026Y-21474446D01*
X199854865Y-21460134D01*
X199854285Y-21442159D01*
X199854141Y-21418857D01*
X199854141Y-21418642D01*
X199854144Y-21418067D01*
X199918279Y-21418067D01*
X199919185Y-21444575D01*
X199925669Y-21491192D01*
X199938484Y-21534968D01*
X199957736Y-21576159D01*
X199983531Y-21615017D01*
X200015974Y-21651797D01*
X200033884Y-21668587D01*
X200068888Y-21695955D01*
X200108231Y-21720270D01*
X200152195Y-21741622D01*
X200201062Y-21760098D01*
X200255113Y-21775787D01*
X200314629Y-21788777D01*
X200379893Y-21799156D01*
X200451185Y-21807012D01*
X200528788Y-21812434D01*
X200535686Y-21812775D01*
X200565687Y-21813879D01*
X200598887Y-21814587D01*
X200634264Y-21814918D01*
X200670800Y-21814890D01*
X200707477Y-21814521D01*
X200743274Y-21813831D01*
X200777173Y-21812837D01*
X200808155Y-21811558D01*
X200835199Y-21810012D01*
X200857289Y-21808218D01*
X200873403Y-21806194D01*
X200889147Y-21803569D01*
X200891357Y-21770400D01*
X200891766Y-21763410D01*
X200892588Y-21743842D01*
X200893350Y-21718427D01*
X200894047Y-21687948D01*
X200894675Y-21653185D01*
X200895229Y-21614921D01*
X200895706Y-21573935D01*
X200896101Y-21531010D01*
X200896410Y-21486928D01*
X200896629Y-21442469D01*
X200896754Y-21398414D01*
X200896779Y-21355546D01*
X200896702Y-21314646D01*
X200896518Y-21276495D01*
X200896222Y-21241875D01*
X200895811Y-21211566D01*
X200895279Y-21186351D01*
X200894624Y-21167010D01*
X200894593Y-21166301D01*
X200893429Y-21141386D01*
X200892279Y-21118863D01*
X200891197Y-21099652D01*
X200890238Y-21084673D01*
X200889457Y-21074845D01*
X200888909Y-21071089D01*
X200885999Y-21070005D01*
X200876455Y-21068607D01*
X200861144Y-21067325D01*
X200840779Y-21066165D01*
X200816071Y-21065134D01*
X200787734Y-21064239D01*
X200756478Y-21063487D01*
X200723018Y-21062886D01*
X200688064Y-21062440D01*
X200652330Y-21062159D01*
X200616527Y-21062047D01*
X200581368Y-21062113D01*
X200547566Y-21062363D01*
X200515832Y-21062804D01*
X200486879Y-21063443D01*
X200461420Y-21064287D01*
X200440166Y-21065342D01*
X200423830Y-21066615D01*
X200370659Y-21072727D01*
X200305698Y-21082528D01*
X200246831Y-21094373D01*
X200193677Y-21108396D01*
X200145857Y-21124730D01*
X200102992Y-21143510D01*
X200064701Y-21164869D01*
X200030604Y-21188942D01*
X200000322Y-21215861D01*
X199991748Y-21224707D01*
X199964711Y-21258016D01*
X199944066Y-21293462D01*
X199929593Y-21331590D01*
X199921070Y-21372944D01*
X199918279Y-21418067D01*
X199854144Y-21418067D01*
X199854268Y-21396679D01*
X199854725Y-21379999D01*
X199855694Y-21366903D01*
X199857361Y-21355692D01*
X199859907Y-21344668D01*
X199863517Y-21332132D01*
X199875199Y-21299279D01*
X199895246Y-21259105D01*
X199920644Y-21222976D01*
X199951838Y-21190175D01*
X199969911Y-21174536D01*
X200009318Y-21145821D01*
X200053415Y-21120336D01*
X200102457Y-21097996D01*
X200156702Y-21078716D01*
X200216405Y-21062410D01*
X200281823Y-21048993D01*
X200353212Y-21038379D01*
X200430827Y-21030482D01*
X200447511Y-21029322D01*
X200477017Y-21027868D01*
X200511447Y-21026711D01*
X200549574Y-21025858D01*
X200590168Y-21025314D01*
X200632002Y-21025083D01*
X200673848Y-21025170D01*
X200714476Y-21025582D01*
X200752660Y-21026324D01*
X200787170Y-21027400D01*
X200816778Y-21028817D01*
X200848607Y-21030769D01*
X200880017Y-21032873D01*
X200905133Y-21034795D01*
X200924334Y-21036570D01*
X200937997Y-21038236D01*
X200946502Y-21039826D01*
X200950227Y-21041377D01*
X200950521Y-21041986D01*
X200951681Y-21048175D01*
X200953053Y-21059947D01*
X200954535Y-21076224D01*
X200956026Y-21095926D01*
X200957425Y-21117975D01*
X200957914Y-21128919D01*
X200958459Y-21148330D01*
X200958916Y-21173202D01*
X200959286Y-21202879D01*
X200959573Y-21236706D01*
X200959778Y-21274026D01*
X200959905Y-21314184D01*
X200959955Y-21355546D01*
X200959956Y-21356524D01*
G37*
G36*
X190286416Y-18409167D02*
G01*
X190293941Y-18436351D01*
X190317552Y-18521647D01*
X190339429Y-18600689D01*
X190359676Y-18673853D01*
X190378396Y-18741514D01*
X190395691Y-18804049D01*
X190411665Y-18861833D01*
X190426420Y-18915241D01*
X190440060Y-18964650D01*
X190452686Y-19010435D01*
X190464402Y-19052972D01*
X190475311Y-19092637D01*
X190485516Y-19129804D01*
X190495120Y-19164851D01*
X190504224Y-19198152D01*
X190512933Y-19230084D01*
X190521349Y-19261022D01*
X190529575Y-19291341D01*
X190537714Y-19321418D01*
X190545869Y-19351628D01*
X190554143Y-19382347D01*
X190562638Y-19413950D01*
X190571457Y-19446814D01*
X190580703Y-19481314D01*
X190590480Y-19517825D01*
X190600890Y-19556724D01*
X190612035Y-19598386D01*
X190614071Y-19605995D01*
X190625132Y-19647292D01*
X190635691Y-19686646D01*
X190645604Y-19723520D01*
X190654726Y-19757380D01*
X190662913Y-19787690D01*
X190670019Y-19813916D01*
X190675901Y-19835521D01*
X190680412Y-19851972D01*
X190683409Y-19862732D01*
X190684747Y-19867267D01*
X190685631Y-19867188D01*
X190687554Y-19863053D01*
X190690512Y-19854310D01*
X190694579Y-19840686D01*
X190699832Y-19821905D01*
X190706344Y-19797693D01*
X190714191Y-19767775D01*
X190723447Y-19731877D01*
X190734188Y-19689725D01*
X190746488Y-19641044D01*
X190749333Y-19629751D01*
X190762315Y-19578325D01*
X190775645Y-19525685D01*
X190789174Y-19472401D01*
X190802757Y-19419046D01*
X190816246Y-19366190D01*
X190829494Y-19314404D01*
X190842355Y-19264261D01*
X190854681Y-19216332D01*
X190866326Y-19171188D01*
X190877143Y-19129401D01*
X190886985Y-19091541D01*
X190895704Y-19058182D01*
X190903155Y-19029892D01*
X190909190Y-19007246D01*
X190913661Y-18990813D01*
X190915266Y-18985085D01*
X190918901Y-18972208D01*
X190924268Y-18953250D01*
X190931266Y-18928570D01*
X190939794Y-18898526D01*
X190949748Y-18863476D01*
X190961027Y-18823778D01*
X190973529Y-18779791D01*
X190987153Y-18731873D01*
X191001797Y-18680382D01*
X191017358Y-18625678D01*
X191033735Y-18568117D01*
X191050826Y-18508058D01*
X191068529Y-18445861D01*
X191086742Y-18381882D01*
X191105364Y-18316480D01*
X191285427Y-17684131D01*
X191704388Y-17684104D01*
X191742820Y-17684114D01*
X191794967Y-17684166D01*
X191844825Y-17684262D01*
X191891966Y-17684398D01*
X191935962Y-17684571D01*
X191976385Y-17684779D01*
X192012807Y-17685018D01*
X192044800Y-17685285D01*
X192071935Y-17685578D01*
X192093786Y-17685894D01*
X192109924Y-17686230D01*
X192119920Y-17686583D01*
X192123348Y-17686949D01*
X192122756Y-17688798D01*
X192120019Y-17696905D01*
X192115119Y-17711267D01*
X192108127Y-17731674D01*
X192099117Y-17757918D01*
X192088160Y-17789790D01*
X192075328Y-17827082D01*
X192060692Y-17869585D01*
X192044326Y-17917091D01*
X192026300Y-17969391D01*
X192006687Y-18026277D01*
X191985558Y-18087540D01*
X191962986Y-18152971D01*
X191939043Y-18222363D01*
X191913800Y-18295506D01*
X191887329Y-18372191D01*
X191859703Y-18452212D01*
X191830993Y-18535358D01*
X191801272Y-18621421D01*
X191770610Y-18710193D01*
X191739081Y-18801465D01*
X191706755Y-18895029D01*
X191673706Y-18990676D01*
X191640005Y-19088198D01*
X191605723Y-19187385D01*
X191088099Y-20684949D01*
X191112701Y-20759768D01*
X191123980Y-20793607D01*
X191134001Y-20822477D01*
X191143185Y-20847365D01*
X191152082Y-20869649D01*
X191161245Y-20890709D01*
X191171223Y-20911921D01*
X191182567Y-20934666D01*
X191187818Y-20944795D01*
X191220247Y-21000204D01*
X191255840Y-21049415D01*
X191294720Y-21092527D01*
X191337014Y-21129639D01*
X191382844Y-21160851D01*
X191432337Y-21186260D01*
X191485617Y-21205967D01*
X191542809Y-21220069D01*
X191549700Y-21221309D01*
X191562128Y-21223096D01*
X191575877Y-21224419D01*
X191592082Y-21225337D01*
X191611877Y-21225904D01*
X191636397Y-21226176D01*
X191666777Y-21226211D01*
X191669059Y-21226206D01*
X191726185Y-21225180D01*
X191782568Y-21222363D01*
X191839661Y-21217610D01*
X191898921Y-21210776D01*
X191961802Y-21201720D01*
X192029759Y-21190295D01*
X192084863Y-21180469D01*
X192084878Y-21194704D01*
X192084861Y-21195943D01*
X192084579Y-21204252D01*
X192083974Y-21218692D01*
X192083080Y-21238610D01*
X192081929Y-21263353D01*
X192080554Y-21292270D01*
X192078987Y-21324706D01*
X192077263Y-21360010D01*
X192075413Y-21397530D01*
X192073470Y-21436611D01*
X192071468Y-21476603D01*
X192069439Y-21516852D01*
X192067416Y-21556705D01*
X192065432Y-21595510D01*
X192063520Y-21632615D01*
X192061712Y-21667367D01*
X192060042Y-21699112D01*
X192058542Y-21727199D01*
X192057246Y-21750976D01*
X192056186Y-21769788D01*
X192055394Y-21782985D01*
X192054905Y-21789912D01*
X192052962Y-21811105D01*
X192001564Y-21818916D01*
X191968908Y-21823741D01*
X191927772Y-21829301D01*
X191889666Y-21833741D01*
X191852384Y-21837314D01*
X191813720Y-21840269D01*
X191803621Y-21840958D01*
X191783278Y-21842355D01*
X191764797Y-21843636D01*
X191749885Y-21844682D01*
X191740248Y-21845374D01*
X191730445Y-21845861D01*
X191712387Y-21846231D01*
X191689392Y-21846329D01*
X191662619Y-21846179D01*
X191633228Y-21845806D01*
X191602379Y-21845237D01*
X191571231Y-21844495D01*
X191540945Y-21843607D01*
X191512680Y-21842597D01*
X191487596Y-21841492D01*
X191466854Y-21840315D01*
X191451612Y-21839093D01*
X191447417Y-21838659D01*
X191356658Y-21826743D01*
X191271052Y-21810441D01*
X191190210Y-21789625D01*
X191113743Y-21764166D01*
X191041264Y-21733935D01*
X190972385Y-21698805D01*
X190906717Y-21658646D01*
X190887051Y-21645322D01*
X190856068Y-21623055D01*
X190827450Y-21600549D01*
X190799583Y-21576444D01*
X190770852Y-21549382D01*
X190739642Y-21518004D01*
X190729663Y-21507609D01*
X190685497Y-21458568D01*
X190644247Y-21407372D01*
X190605249Y-21353054D01*
X190567841Y-21294648D01*
X190531360Y-21231188D01*
X190495143Y-21161708D01*
X190477837Y-21126536D01*
X190462334Y-21093836D01*
X190448232Y-21062557D01*
X190434645Y-21030678D01*
X190420688Y-20996179D01*
X190405476Y-20957039D01*
X190404569Y-20954580D01*
X190401075Y-20944735D01*
X190395434Y-20928578D01*
X190387720Y-20906320D01*
X190378003Y-20878171D01*
X190366356Y-20844342D01*
X190352850Y-20805043D01*
X190337557Y-20760484D01*
X190320550Y-20710876D01*
X190301899Y-20656428D01*
X190281677Y-20597351D01*
X190259956Y-20533855D01*
X190236808Y-20466151D01*
X190212303Y-20394449D01*
X190186516Y-20318958D01*
X190159516Y-20239890D01*
X190131376Y-20157454D01*
X190102169Y-20071862D01*
X190071965Y-19983322D01*
X190040836Y-19892045D01*
X190008855Y-19798242D01*
X189976094Y-19702124D01*
X189942623Y-19603899D01*
X189908516Y-19503778D01*
X189873844Y-19401972D01*
X189838678Y-19298692D01*
X189818419Y-19239182D01*
X189783726Y-19137277D01*
X189749636Y-19037146D01*
X189716218Y-18938991D01*
X189683541Y-18843013D01*
X189651674Y-18749415D01*
X189620685Y-18658398D01*
X189590644Y-18570166D01*
X189561618Y-18484920D01*
X189533678Y-18402862D01*
X189506891Y-18324195D01*
X189481327Y-18249120D01*
X189457055Y-18177839D01*
X189434143Y-18110555D01*
X189412659Y-18047470D01*
X189392674Y-17988786D01*
X189374255Y-17934704D01*
X189357472Y-17885428D01*
X189342394Y-17841159D01*
X189329088Y-17802099D01*
X189317625Y-17768450D01*
X189308072Y-17740415D01*
X189300499Y-17718195D01*
X189294974Y-17701993D01*
X189291567Y-17692011D01*
X189290346Y-17688450D01*
X189290351Y-17688276D01*
X189291979Y-17687598D01*
X189296434Y-17686992D01*
X189304038Y-17686456D01*
X189315111Y-17685984D01*
X189329974Y-17685574D01*
X189348947Y-17685222D01*
X189372352Y-17684925D01*
X189400510Y-17684679D01*
X189433739Y-17684480D01*
X189472363Y-17684326D01*
X189516701Y-17684212D01*
X189567074Y-17684135D01*
X189623802Y-17684091D01*
X189687208Y-17684077D01*
X190085700Y-17684077D01*
X190286416Y-18409167D01*
G37*
G36*
X201388013Y-21031957D02*
G01*
X201374406Y-21038899D01*
X201368609Y-21041373D01*
X201360972Y-21043465D01*
X201350664Y-21045188D01*
X201336605Y-21046684D01*
X201317713Y-21048095D01*
X201292907Y-21049561D01*
X201290724Y-21049681D01*
X201263106Y-21051262D01*
X201241577Y-21052691D01*
X201225294Y-21054104D01*
X201213414Y-21055639D01*
X201205094Y-21057431D01*
X201199490Y-21059616D01*
X201195760Y-21062332D01*
X201193061Y-21065715D01*
X201191170Y-21069297D01*
X201189230Y-21075027D01*
X201187546Y-21082846D01*
X201186105Y-21093164D01*
X201184897Y-21106388D01*
X201183908Y-21122929D01*
X201183127Y-21143194D01*
X201182541Y-21167593D01*
X201182138Y-21196535D01*
X201181907Y-21230429D01*
X201181834Y-21269684D01*
X201181909Y-21314708D01*
X201182118Y-21365910D01*
X201182450Y-21423700D01*
X201182513Y-21433270D01*
X201182852Y-21477629D01*
X201183259Y-21520589D01*
X201183721Y-21561530D01*
X201184230Y-21599828D01*
X201184775Y-21634861D01*
X201185346Y-21666008D01*
X201185931Y-21692647D01*
X201186522Y-21714154D01*
X201187107Y-21729909D01*
X201187677Y-21739288D01*
X201188203Y-21744899D01*
X201190645Y-21769684D01*
X201192759Y-21788493D01*
X201194680Y-21802167D01*
X201196539Y-21811547D01*
X201198472Y-21817473D01*
X201200611Y-21820785D01*
X201202220Y-21821894D01*
X201209921Y-21825248D01*
X201221803Y-21829278D01*
X201236047Y-21833341D01*
X201241482Y-21834824D01*
X201256670Y-21839591D01*
X201269742Y-21844536D01*
X201278344Y-21848799D01*
X201282267Y-21851489D01*
X201287175Y-21856466D01*
X201289266Y-21863170D01*
X201289715Y-21874230D01*
X201289632Y-21880827D01*
X201288538Y-21889092D01*
X201285270Y-21894222D01*
X201278700Y-21898721D01*
X201276941Y-21899633D01*
X201274557Y-21900514D01*
X201271287Y-21901295D01*
X201266750Y-21901983D01*
X201260563Y-21902585D01*
X201252345Y-21903104D01*
X201241714Y-21903548D01*
X201228287Y-21903922D01*
X201211684Y-21904232D01*
X201191520Y-21904483D01*
X201167416Y-21904682D01*
X201138988Y-21904833D01*
X201105855Y-21904944D01*
X201067635Y-21905018D01*
X201023945Y-21905063D01*
X200974405Y-21905084D01*
X200918631Y-21905087D01*
X200856241Y-21905077D01*
X200824801Y-21905069D01*
X200763071Y-21905040D01*
X200707659Y-21904985D01*
X200658101Y-21904891D01*
X200613936Y-21904748D01*
X200574703Y-21904542D01*
X200539938Y-21904262D01*
X200509180Y-21903896D01*
X200481966Y-21903432D01*
X200457836Y-21902859D01*
X200436325Y-21902164D01*
X200416973Y-21901334D01*
X200399317Y-21900360D01*
X200382896Y-21899227D01*
X200367246Y-21897925D01*
X200351907Y-21896442D01*
X200336415Y-21894765D01*
X200320309Y-21892883D01*
X200303127Y-21890783D01*
X200290486Y-21889140D01*
X200233264Y-21879936D01*
X200174039Y-21867791D01*
X200115052Y-21853246D01*
X200058540Y-21836842D01*
X200006744Y-21819122D01*
X199988698Y-21812203D01*
X199924238Y-21784380D01*
X199864924Y-21753705D01*
X199810973Y-21720365D01*
X199762597Y-21684546D01*
X199720013Y-21646437D01*
X199683435Y-21606224D01*
X199653077Y-21564094D01*
X199629155Y-21520235D01*
X199611883Y-21474835D01*
X199608976Y-21464749D01*
X199605624Y-21450562D01*
X199603564Y-21436575D01*
X199602483Y-21420391D01*
X199602283Y-21410363D01*
X199667069Y-21410363D01*
X199670296Y-21442450D01*
X199676944Y-21471336D01*
X199687022Y-21498949D01*
X199708843Y-21542695D01*
X199736997Y-21584338D01*
X199771231Y-21623739D01*
X199811292Y-21660760D01*
X199856928Y-21695261D01*
X199907885Y-21727103D01*
X199963910Y-21756149D01*
X200024752Y-21782259D01*
X200090156Y-21805294D01*
X200159870Y-21825116D01*
X200233641Y-21841586D01*
X200311216Y-21854565D01*
X200392342Y-21863914D01*
X200395601Y-21864204D01*
X200407115Y-21865142D01*
X200419231Y-21865975D01*
X200432405Y-21866709D01*
X200447095Y-21867349D01*
X200463757Y-21867903D01*
X200482848Y-21868376D01*
X200504825Y-21868776D01*
X200530144Y-21869107D01*
X200559263Y-21869377D01*
X200592638Y-21869591D01*
X200630726Y-21869756D01*
X200673985Y-21869879D01*
X200722870Y-21869965D01*
X200777838Y-21870020D01*
X200839347Y-21870052D01*
X200846539Y-21870054D01*
X200897091Y-21870043D01*
X200945479Y-21869990D01*
X200991264Y-21869897D01*
X201034007Y-21869768D01*
X201073268Y-21869604D01*
X201108609Y-21869410D01*
X201139589Y-21869187D01*
X201165769Y-21868937D01*
X201186709Y-21868665D01*
X201201971Y-21868372D01*
X201211114Y-21868062D01*
X201213700Y-21867737D01*
X201211906Y-21867086D01*
X201203660Y-21864397D01*
X201191424Y-21860608D01*
X201177126Y-21856320D01*
X201170356Y-21854266D01*
X201154434Y-21848427D01*
X201143667Y-21841823D01*
X201136755Y-21833000D01*
X201132396Y-21820504D01*
X201129287Y-21802880D01*
X201127743Y-21791384D01*
X201125639Y-21773361D01*
X201123801Y-21754108D01*
X201122212Y-21733102D01*
X201120857Y-21709818D01*
X201119721Y-21683732D01*
X201118787Y-21654319D01*
X201118040Y-21621055D01*
X201117464Y-21583416D01*
X201117044Y-21540878D01*
X201116763Y-21492915D01*
X201116606Y-21439005D01*
X201116557Y-21378623D01*
X201116560Y-21346629D01*
X201116588Y-21297667D01*
X201116667Y-21254950D01*
X201116821Y-21218005D01*
X201117075Y-21186358D01*
X201117454Y-21159538D01*
X201117981Y-21137069D01*
X201118682Y-21118480D01*
X201119581Y-21103298D01*
X201120702Y-21091048D01*
X201122071Y-21081258D01*
X201123711Y-21073454D01*
X201125648Y-21067165D01*
X201127906Y-21061915D01*
X201130509Y-21057233D01*
X201133482Y-21052645D01*
X201135549Y-21049739D01*
X201143634Y-21040992D01*
X201153923Y-21033883D01*
X201167214Y-21028186D01*
X201184304Y-21023675D01*
X201205991Y-21020123D01*
X201233074Y-21017305D01*
X201266351Y-21014995D01*
X201274907Y-21014468D01*
X201292269Y-21013209D01*
X201306499Y-21011918D01*
X201316311Y-21010721D01*
X201320420Y-21009741D01*
X201319823Y-21009514D01*
X201313741Y-21009153D01*
X201301727Y-21008925D01*
X201284495Y-21008830D01*
X201262756Y-21008866D01*
X201237223Y-21009035D01*
X201208608Y-21009336D01*
X201177624Y-21009769D01*
X201158499Y-21010011D01*
X201126147Y-21010250D01*
X201088450Y-21010372D01*
X201046376Y-21010380D01*
X201000892Y-21010279D01*
X200952967Y-21010071D01*
X200903568Y-21009759D01*
X200853661Y-21009348D01*
X200804216Y-21008841D01*
X200756199Y-21008242D01*
X200730147Y-21007895D01*
X200660801Y-21007090D01*
X200598427Y-21006551D01*
X200543009Y-21006280D01*
X200494532Y-21006276D01*
X200452980Y-21006538D01*
X200418339Y-21007068D01*
X200390593Y-21007865D01*
X200350760Y-21009605D01*
X200282934Y-21013751D01*
X200220945Y-21019263D01*
X200164108Y-21026280D01*
X200111735Y-21034938D01*
X200063139Y-21045375D01*
X200017633Y-21057730D01*
X199974530Y-21072140D01*
X199933142Y-21088743D01*
X199892782Y-21107676D01*
X199851159Y-21130261D01*
X199805129Y-21160181D01*
X199765727Y-21192035D01*
X199732879Y-21225902D01*
X199706507Y-21261863D01*
X199686538Y-21299997D01*
X199672896Y-21340384D01*
X199671218Y-21347762D01*
X199667347Y-21377869D01*
X199667069Y-21410363D01*
X199602283Y-21410363D01*
X199602069Y-21399614D01*
X199602460Y-21374299D01*
X199604645Y-21350379D01*
X199609183Y-21328713D01*
X199616600Y-21306868D01*
X199627423Y-21282411D01*
X199646809Y-21247733D01*
X199675551Y-21209341D01*
X199710902Y-21173153D01*
X199752875Y-21139159D01*
X199801480Y-21107348D01*
X199856728Y-21077711D01*
X199876920Y-21068116D01*
X199922585Y-21048441D01*
X199968067Y-21031925D01*
X200015144Y-21018016D01*
X200065595Y-21006164D01*
X200121199Y-20995818D01*
X200125836Y-20995051D01*
X200152504Y-20990854D01*
X200178900Y-20987107D01*
X200205509Y-20983794D01*
X200232814Y-20980898D01*
X200261302Y-20978401D01*
X200291455Y-20976288D01*
X200323759Y-20974541D01*
X200358697Y-20973143D01*
X200396755Y-20972077D01*
X200438416Y-20971328D01*
X200484165Y-20970877D01*
X200534487Y-20970708D01*
X200589865Y-20970804D01*
X200650785Y-20971148D01*
X200717730Y-20971724D01*
X200791185Y-20972514D01*
X200816387Y-20972798D01*
X200880246Y-20973441D01*
X200941089Y-20973941D01*
X200998418Y-20974297D01*
X201051737Y-20974509D01*
X201100548Y-20974576D01*
X201144353Y-20974497D01*
X201182654Y-20974270D01*
X201214955Y-20973895D01*
X201240758Y-20973372D01*
X201262768Y-20972788D01*
X201289689Y-20972115D01*
X201310977Y-20971684D01*
X201327440Y-20971521D01*
X201339887Y-20971655D01*
X201349128Y-20972113D01*
X201355972Y-20972920D01*
X201361227Y-20974105D01*
X201365702Y-20975696D01*
X201370207Y-20977718D01*
X201385951Y-20985104D01*
X201386982Y-21008531D01*
X201387035Y-21009741D01*
X201388013Y-21031957D01*
G37*
G36*
X196783813Y-21892599D02*
G01*
X196771539Y-21898896D01*
X196770635Y-21899338D01*
X196768146Y-21900313D01*
X196764875Y-21901173D01*
X196760407Y-21901925D01*
X196754328Y-21902575D01*
X196746224Y-21903129D01*
X196735680Y-21903596D01*
X196722282Y-21903981D01*
X196705616Y-21904292D01*
X196685267Y-21904535D01*
X196660821Y-21904717D01*
X196631864Y-21904844D01*
X196597982Y-21904925D01*
X196558759Y-21904964D01*
X196513782Y-21904970D01*
X196462637Y-21904949D01*
X196404908Y-21904908D01*
X196366047Y-21904886D01*
X196310586Y-21904878D01*
X196261492Y-21904868D01*
X196218378Y-21904820D01*
X196180862Y-21904696D01*
X196148556Y-21904459D01*
X196121076Y-21904072D01*
X196098038Y-21903497D01*
X196079055Y-21902697D01*
X196063744Y-21901635D01*
X196051718Y-21900274D01*
X196042593Y-21898575D01*
X196035983Y-21896503D01*
X196031505Y-21894019D01*
X196028771Y-21891086D01*
X196027399Y-21887667D01*
X196027001Y-21883725D01*
X196027194Y-21879223D01*
X196027592Y-21874122D01*
X196027810Y-21868387D01*
X196027810Y-21867555D01*
X196094284Y-21867555D01*
X196097444Y-21867928D01*
X196107118Y-21868299D01*
X196122816Y-21868649D01*
X196144041Y-21868974D01*
X196170296Y-21869268D01*
X196201085Y-21869529D01*
X196235912Y-21869752D01*
X196274279Y-21869933D01*
X196315691Y-21870067D01*
X196359651Y-21870150D01*
X196405662Y-21870179D01*
X196449928Y-21870158D01*
X196493976Y-21870094D01*
X196535496Y-21869989D01*
X196573990Y-21869848D01*
X196608963Y-21869674D01*
X196639918Y-21869469D01*
X196666357Y-21869237D01*
X196687786Y-21868982D01*
X196703707Y-21868707D01*
X196713623Y-21868414D01*
X196717039Y-21868108D01*
X196713948Y-21867358D01*
X196704925Y-21866446D01*
X196691060Y-21865474D01*
X196673450Y-21864518D01*
X196653189Y-21863654D01*
X196628937Y-21862596D01*
X196595594Y-21860345D01*
X196568203Y-21857112D01*
X196546130Y-21852574D01*
X196528743Y-21846402D01*
X196515407Y-21838273D01*
X196505489Y-21827859D01*
X196498356Y-21814836D01*
X196493375Y-21798876D01*
X196489911Y-21779655D01*
X196489611Y-21776756D01*
X196488988Y-21765529D01*
X196488427Y-21748231D01*
X196487927Y-21725498D01*
X196487489Y-21697970D01*
X196487113Y-21666285D01*
X196486800Y-21631081D01*
X196486549Y-21592995D01*
X196486360Y-21552667D01*
X196486234Y-21510734D01*
X196486172Y-21467834D01*
X196486173Y-21424606D01*
X196486237Y-21381688D01*
X196486365Y-21339718D01*
X196486556Y-21299335D01*
X196486812Y-21261175D01*
X196487132Y-21225878D01*
X196487516Y-21194082D01*
X196487966Y-21166425D01*
X196488479Y-21143544D01*
X196489059Y-21126079D01*
X196489703Y-21114668D01*
X196489912Y-21112197D01*
X196492387Y-21089968D01*
X196496042Y-21071618D01*
X196501524Y-21056729D01*
X196509478Y-21044885D01*
X196520551Y-21035672D01*
X196535390Y-21028673D01*
X196554639Y-21023471D01*
X196578946Y-21019652D01*
X196608957Y-21016799D01*
X196645317Y-21014496D01*
X196649620Y-21014260D01*
X196670505Y-21013086D01*
X196688629Y-21012017D01*
X196702937Y-21011119D01*
X196712370Y-21010458D01*
X196715873Y-21010100D01*
X196712742Y-21010016D01*
X196703099Y-21009934D01*
X196687434Y-21009856D01*
X196666242Y-21009784D01*
X196640018Y-21009718D01*
X196609256Y-21009660D01*
X196574453Y-21009610D01*
X196536102Y-21009569D01*
X196494698Y-21009539D01*
X196450738Y-21009520D01*
X196404715Y-21009512D01*
X196359381Y-21009520D01*
X196315595Y-21009543D01*
X196274435Y-21009582D01*
X196236389Y-21009634D01*
X196201940Y-21009699D01*
X196171575Y-21009775D01*
X196145780Y-21009861D01*
X196125039Y-21009956D01*
X196109839Y-21010058D01*
X196100665Y-21010167D01*
X196098002Y-21010281D01*
X196098181Y-21010306D01*
X196103694Y-21010752D01*
X196114923Y-21011478D01*
X196130703Y-21012413D01*
X196149868Y-21013490D01*
X196171254Y-21014637D01*
X196193016Y-21015901D01*
X196224932Y-21018491D01*
X196250904Y-21021973D01*
X196271595Y-21026739D01*
X196287665Y-21033185D01*
X196299777Y-21041704D01*
X196308591Y-21052690D01*
X196314768Y-21066538D01*
X196318970Y-21083641D01*
X196321858Y-21104394D01*
X196322053Y-21106460D01*
X196322768Y-21119082D01*
X196323371Y-21138627D01*
X196323861Y-21165036D01*
X196324238Y-21198250D01*
X196324502Y-21238210D01*
X196324653Y-21284858D01*
X196324689Y-21338135D01*
X196324611Y-21397981D01*
X196324418Y-21464339D01*
X196324258Y-21509140D01*
X196324066Y-21560938D01*
X196323864Y-21606501D01*
X196323626Y-21646261D01*
X196323327Y-21680645D01*
X196322939Y-21710085D01*
X196322438Y-21735009D01*
X196321796Y-21755847D01*
X196320988Y-21773028D01*
X196319988Y-21786983D01*
X196318768Y-21798140D01*
X196317304Y-21806930D01*
X196315569Y-21813782D01*
X196313537Y-21819125D01*
X196311181Y-21823390D01*
X196308476Y-21827005D01*
X196305396Y-21830401D01*
X196301913Y-21834006D01*
X196300500Y-21835390D01*
X196287040Y-21844062D01*
X196267228Y-21851346D01*
X196241524Y-21857160D01*
X196210386Y-21861417D01*
X196174273Y-21864035D01*
X196133644Y-21864928D01*
X196119485Y-21865106D01*
X196106416Y-21865664D01*
X196097550Y-21866511D01*
X196094284Y-21867555D01*
X196027810Y-21867555D01*
X196027810Y-21844033D01*
X196040930Y-21838170D01*
X196045887Y-21836395D01*
X196054213Y-21834587D01*
X196065887Y-21833093D01*
X196081821Y-21831827D01*
X196102929Y-21830702D01*
X196130122Y-21829630D01*
X196136365Y-21829399D01*
X196159962Y-21828334D01*
X196182080Y-21827053D01*
X196201340Y-21825654D01*
X196216362Y-21824233D01*
X196225768Y-21822888D01*
X196226214Y-21822796D01*
X196234583Y-21820751D01*
X196241218Y-21817993D01*
X196246356Y-21813736D01*
X196250233Y-21807194D01*
X196253086Y-21797583D01*
X196255151Y-21784118D01*
X196256667Y-21766012D01*
X196257869Y-21742482D01*
X196258995Y-21712741D01*
X196259091Y-21709934D01*
X196259824Y-21682891D01*
X196260436Y-21649956D01*
X196260927Y-21612117D01*
X196261296Y-21570359D01*
X196261543Y-21525669D01*
X196261668Y-21479033D01*
X196261671Y-21431438D01*
X196261551Y-21383869D01*
X196261309Y-21337313D01*
X196260943Y-21292758D01*
X196260455Y-21251187D01*
X196259844Y-21213590D01*
X196259109Y-21180950D01*
X196258985Y-21176364D01*
X196258078Y-21145760D01*
X196257104Y-21121288D01*
X196255925Y-21102182D01*
X196254405Y-21087680D01*
X196252406Y-21077017D01*
X196249789Y-21069430D01*
X196246417Y-21064154D01*
X196242153Y-21060427D01*
X196236859Y-21057483D01*
X196231806Y-21056050D01*
X196219103Y-21054226D01*
X196199609Y-21052474D01*
X196173444Y-21050804D01*
X196140725Y-21049228D01*
X196137396Y-21049086D01*
X196110328Y-21047857D01*
X196089231Y-21046710D01*
X196073180Y-21045548D01*
X196061254Y-21044276D01*
X196052526Y-21042797D01*
X196046075Y-21041015D01*
X196040976Y-21038833D01*
X196027810Y-21032117D01*
X196027810Y-21008128D01*
X196027810Y-20984140D01*
X196044429Y-20977237D01*
X196047904Y-20975856D01*
X196051975Y-20974537D01*
X196056767Y-20973475D01*
X196062908Y-20972658D01*
X196071026Y-20972074D01*
X196081747Y-20971711D01*
X196095699Y-20971557D01*
X196113510Y-20971599D01*
X196135807Y-20971824D01*
X196163218Y-20972221D01*
X196196369Y-20972777D01*
X196235890Y-20973480D01*
X196282620Y-20974169D01*
X196342355Y-20974687D01*
X196404314Y-20974877D01*
X196466195Y-20974738D01*
X196525692Y-20974271D01*
X196580504Y-20973476D01*
X196608367Y-20972962D01*
X196642758Y-20972353D01*
X196671238Y-20971905D01*
X196694445Y-20971631D01*
X196713018Y-20971543D01*
X196727594Y-20971655D01*
X196738813Y-20971978D01*
X196747314Y-20972527D01*
X196753733Y-20973314D01*
X196758711Y-20974352D01*
X196762885Y-20975654D01*
X196766894Y-20977232D01*
X196783513Y-20984140D01*
X196783513Y-21008128D01*
X196783513Y-21032117D01*
X196770313Y-21038851D01*
X196765624Y-21040885D01*
X196759103Y-21042752D01*
X196750283Y-21044310D01*
X196738224Y-21045663D01*
X196721987Y-21046915D01*
X196700634Y-21048167D01*
X196673226Y-21049524D01*
X196649059Y-21050680D01*
X196624749Y-21051950D01*
X196605977Y-21053146D01*
X196591940Y-21054387D01*
X196581832Y-21055790D01*
X196574850Y-21057472D01*
X196570189Y-21059550D01*
X196567045Y-21062143D01*
X196564612Y-21065366D01*
X196564384Y-21065722D01*
X196562257Y-21069999D01*
X196560381Y-21075915D01*
X196558734Y-21083917D01*
X196557297Y-21094451D01*
X196556050Y-21107963D01*
X196554972Y-21124901D01*
X196554043Y-21145710D01*
X196553242Y-21170837D01*
X196552550Y-21200729D01*
X196551946Y-21235832D01*
X196551409Y-21276593D01*
X196550921Y-21323458D01*
X196550459Y-21376873D01*
X196550083Y-21430597D01*
X196549806Y-21494543D01*
X196549777Y-21551880D01*
X196549999Y-21602824D01*
X196550480Y-21647593D01*
X196551224Y-21686403D01*
X196552237Y-21719472D01*
X196553525Y-21747017D01*
X196555093Y-21769254D01*
X196556946Y-21786401D01*
X196559092Y-21798676D01*
X196561534Y-21806294D01*
X196562970Y-21809053D01*
X196568455Y-21817054D01*
X196573383Y-21821131D01*
X196577662Y-21822055D01*
X196588995Y-21823541D01*
X196605003Y-21825070D01*
X196624297Y-21826549D01*
X196645488Y-21827883D01*
X196667186Y-21828979D01*
X196688001Y-21829744D01*
X196706543Y-21830085D01*
X196710460Y-21830114D01*
X196730541Y-21830602D01*
X196745455Y-21831748D01*
X196756762Y-21833724D01*
X196766020Y-21836705D01*
X196781764Y-21843073D01*
X196782788Y-21867836D01*
X196782799Y-21868108D01*
X196783813Y-21892599D01*
G37*
G36*
X200350518Y-16371791D02*
G01*
X200462718Y-16378226D01*
X200571798Y-16390060D01*
X200677257Y-16407245D01*
X200778595Y-16429734D01*
X200794009Y-16433735D01*
X200875635Y-16458000D01*
X200956291Y-16487033D01*
X201034843Y-16520324D01*
X201110158Y-16557362D01*
X201181102Y-16597635D01*
X201246542Y-16640634D01*
X201258735Y-16649369D01*
X201332472Y-16706304D01*
X201399738Y-16765788D01*
X201460637Y-16827993D01*
X201515275Y-16893093D01*
X201563756Y-16961262D01*
X201606185Y-17032672D01*
X201642666Y-17107497D01*
X201673303Y-17185912D01*
X201698202Y-17268088D01*
X201717467Y-17354200D01*
X201731203Y-17444422D01*
X201732484Y-17458446D01*
X201733721Y-17480476D01*
X201734653Y-17507196D01*
X201735280Y-17537358D01*
X201735603Y-17569714D01*
X201735622Y-17603017D01*
X201735337Y-17636018D01*
X201734749Y-17667470D01*
X201733856Y-17696125D01*
X201732660Y-17720736D01*
X201731161Y-17740055D01*
X201726860Y-17778662D01*
X201714233Y-17864717D01*
X201697867Y-17945386D01*
X201677614Y-18021131D01*
X201653324Y-18092412D01*
X201624847Y-18159692D01*
X201592034Y-18223431D01*
X201554734Y-18284091D01*
X201544391Y-18299220D01*
X201499115Y-18358456D01*
X201447533Y-18415704D01*
X201389597Y-18470995D01*
X201325258Y-18524361D01*
X201254466Y-18575834D01*
X201177173Y-18625446D01*
X201093330Y-18673229D01*
X201002888Y-18719215D01*
X200905797Y-18763435D01*
X200802009Y-18805923D01*
X200691474Y-18846709D01*
X200671002Y-18853816D01*
X200648206Y-18861552D01*
X200624434Y-18869416D01*
X200599047Y-18877607D01*
X200571404Y-18886320D01*
X200540867Y-18895754D01*
X200506795Y-18906107D01*
X200468549Y-18917575D01*
X200425489Y-18930356D01*
X200376976Y-18944648D01*
X200322370Y-18960648D01*
X200309448Y-18964434D01*
X200234519Y-18986753D01*
X200165903Y-19007871D01*
X200103134Y-19027963D01*
X200045746Y-19047204D01*
X199993274Y-19065767D01*
X199945253Y-19083827D01*
X199901215Y-19101559D01*
X199860696Y-19119135D01*
X199823230Y-19136732D01*
X199788351Y-19154522D01*
X199755593Y-19172680D01*
X199706775Y-19203211D01*
X199661377Y-19237205D01*
X199622193Y-19273385D01*
X199588877Y-19312278D01*
X199561084Y-19354412D01*
X199538468Y-19400314D01*
X199520685Y-19450512D01*
X199507390Y-19505531D01*
X199498237Y-19565901D01*
X199496502Y-19586505D01*
X199495380Y-19614429D01*
X199495127Y-19645399D01*
X199495692Y-19677744D01*
X199497023Y-19709794D01*
X199499069Y-19739880D01*
X199501778Y-19766331D01*
X199505098Y-19787478D01*
X199509165Y-19806198D01*
X199525357Y-19862215D01*
X199546725Y-19913704D01*
X199573361Y-19960762D01*
X199605358Y-20003489D01*
X199642809Y-20041984D01*
X199685805Y-20076344D01*
X199734439Y-20106670D01*
X199788803Y-20133061D01*
X199848990Y-20155614D01*
X199868988Y-20161957D01*
X199915872Y-20175137D01*
X199963082Y-20185880D01*
X200011701Y-20194332D01*
X200062810Y-20200637D01*
X200117491Y-20204939D01*
X200176828Y-20207384D01*
X200241901Y-20208115D01*
X200247401Y-20208108D01*
X200279016Y-20208003D01*
X200304875Y-20207760D01*
X200326054Y-20207326D01*
X200343626Y-20206650D01*
X200358666Y-20205680D01*
X200372249Y-20204362D01*
X200385449Y-20202646D01*
X200399339Y-20200478D01*
X200407614Y-20199078D01*
X200481350Y-20183349D01*
X200550579Y-20162432D01*
X200615669Y-20136137D01*
X200676991Y-20104275D01*
X200734913Y-20066656D01*
X200789805Y-20023090D01*
X200842037Y-19973389D01*
X200889042Y-19920138D01*
X200932973Y-19860357D01*
X200972469Y-19795413D01*
X201007569Y-19725225D01*
X201038315Y-19649709D01*
X201064749Y-19568785D01*
X201086910Y-19482369D01*
X201088851Y-19473765D01*
X201092680Y-19457006D01*
X201095850Y-19443427D01*
X201098073Y-19434246D01*
X201099063Y-19430679D01*
X201100300Y-19431005D01*
X201107402Y-19433151D01*
X201120372Y-19437159D01*
X201138710Y-19442873D01*
X201161916Y-19450134D01*
X201189490Y-19458784D01*
X201220932Y-19468665D01*
X201255743Y-19479620D01*
X201293421Y-19491490D01*
X201333467Y-19504117D01*
X201375382Y-19517343D01*
X201418665Y-19531011D01*
X201462817Y-19544962D01*
X201507336Y-19559038D01*
X201551725Y-19573082D01*
X201595481Y-19586935D01*
X201638107Y-19600439D01*
X201679100Y-19613437D01*
X201717963Y-19625769D01*
X201754194Y-19637280D01*
X201787294Y-19647809D01*
X201816763Y-19657200D01*
X201842100Y-19665294D01*
X201862807Y-19671933D01*
X201878382Y-19676960D01*
X201895000Y-19682353D01*
X201895000Y-19706034D01*
X201895000Y-19706254D01*
X201893430Y-19723784D01*
X201889009Y-19746724D01*
X201882031Y-19774249D01*
X201872790Y-19805532D01*
X201861577Y-19839747D01*
X201848687Y-19876068D01*
X201834412Y-19913668D01*
X201819045Y-19951722D01*
X201802879Y-19989403D01*
X201786207Y-20025885D01*
X201769324Y-20060342D01*
X201764107Y-20070493D01*
X201714721Y-20158480D01*
X201660399Y-20241534D01*
X201601197Y-20319621D01*
X201537173Y-20392706D01*
X201468383Y-20460757D01*
X201394884Y-20523739D01*
X201316731Y-20581619D01*
X201233983Y-20634363D01*
X201146695Y-20681937D01*
X201054925Y-20724308D01*
X200958728Y-20761442D01*
X200858162Y-20793305D01*
X200753283Y-20819864D01*
X200644147Y-20841084D01*
X200530812Y-20856933D01*
X200413334Y-20867376D01*
X200410246Y-20867567D01*
X200388183Y-20868582D01*
X200360583Y-20869402D01*
X200328693Y-20870026D01*
X200293758Y-20870450D01*
X200257027Y-20870676D01*
X200219745Y-20870700D01*
X200183160Y-20870522D01*
X200148518Y-20870140D01*
X200117066Y-20869553D01*
X200090051Y-20868759D01*
X200068720Y-20867757D01*
X200002974Y-20862994D01*
X199898056Y-20852032D01*
X199798015Y-20837165D01*
X199702193Y-20818272D01*
X199609931Y-20795235D01*
X199520571Y-20767933D01*
X199463109Y-20747566D01*
X199374256Y-20711059D01*
X199290476Y-20670071D01*
X199211416Y-20624393D01*
X199136726Y-20573817D01*
X199066054Y-20518133D01*
X198999050Y-20457132D01*
X198947432Y-20403931D01*
X198899450Y-20347923D01*
X198856695Y-20290324D01*
X198818285Y-20229941D01*
X198783335Y-20165579D01*
X198777388Y-20153574D01*
X198747782Y-20088101D01*
X198722445Y-20021273D01*
X198701092Y-19952083D01*
X198683442Y-19879525D01*
X198669209Y-19802592D01*
X198658113Y-19720276D01*
X198657943Y-19718731D01*
X198656275Y-19698000D01*
X198655000Y-19671638D01*
X198654110Y-19640888D01*
X198653600Y-19606995D01*
X198653461Y-19571201D01*
X198653687Y-19534750D01*
X198654270Y-19498885D01*
X198655203Y-19464850D01*
X198656480Y-19433888D01*
X198658092Y-19407243D01*
X198660034Y-19386157D01*
X198669798Y-19315631D01*
X198686139Y-19229961D01*
X198706924Y-19149375D01*
X198732318Y-19073563D01*
X198762487Y-19002216D01*
X198797596Y-18935026D01*
X198837809Y-18871682D01*
X198883292Y-18811876D01*
X198934211Y-18755300D01*
X198990729Y-18701642D01*
X199053013Y-18650596D01*
X199056447Y-18647979D01*
X199117138Y-18604254D01*
X199181731Y-18562377D01*
X199250568Y-18522195D01*
X199323992Y-18483550D01*
X199402346Y-18446289D01*
X199485970Y-18410255D01*
X199575208Y-18375293D01*
X199670402Y-18341249D01*
X199771894Y-18307966D01*
X199880027Y-18275289D01*
X199882489Y-18274574D01*
X199914329Y-18265296D01*
X199948335Y-18255353D01*
X199982729Y-18245265D01*
X200015735Y-18235555D01*
X200045574Y-18226745D01*
X200070469Y-18219357D01*
X200077623Y-18217228D01*
X200104604Y-18209239D01*
X200132371Y-18201070D01*
X200159052Y-18193268D01*
X200182774Y-18186382D01*
X200201667Y-18180958D01*
X200219042Y-18175964D01*
X200300304Y-18151156D01*
X200377554Y-18125144D01*
X200450046Y-18098202D01*
X200517033Y-18070606D01*
X200577769Y-18042628D01*
X200608221Y-18027235D01*
X200657449Y-17999750D01*
X200700539Y-17971861D01*
X200738035Y-17943088D01*
X200770484Y-17912953D01*
X200798430Y-17880977D01*
X200822418Y-17846681D01*
X200842994Y-17809585D01*
X200845023Y-17805410D01*
X200865104Y-17756689D01*
X200880839Y-17704032D01*
X200892129Y-17648692D01*
X200898870Y-17591922D01*
X200900962Y-17534975D01*
X200898301Y-17479104D01*
X200890786Y-17425561D01*
X200878314Y-17375600D01*
X200861876Y-17331592D01*
X200837373Y-17284043D01*
X200807150Y-17240332D01*
X200771328Y-17200540D01*
X200730030Y-17164749D01*
X200683377Y-17133040D01*
X200631492Y-17105494D01*
X200574498Y-17082194D01*
X200512515Y-17063222D01*
X200445666Y-17048658D01*
X200374074Y-17038584D01*
X200360460Y-17037308D01*
X200329478Y-17035279D01*
X200295335Y-17033996D01*
X200259719Y-17033456D01*
X200224316Y-17033658D01*
X200190812Y-17034603D01*
X200160894Y-17036289D01*
X200136247Y-17038715D01*
X200090939Y-17046007D01*
X200026045Y-17061791D01*
X199964960Y-17083401D01*
X199907574Y-17110886D01*
X199853779Y-17144293D01*
X199803466Y-17183669D01*
X199787753Y-17197936D01*
X199746330Y-17241344D01*
X199707324Y-17290888D01*
X199670937Y-17346183D01*
X199637370Y-17406844D01*
X199606825Y-17472486D01*
X199579504Y-17542724D01*
X199555608Y-17617173D01*
X199535339Y-17695448D01*
X199535241Y-17695874D01*
X199531287Y-17711687D01*
X199527467Y-17724621D01*
X199524213Y-17733352D01*
X199521954Y-17736557D01*
X199521690Y-17736528D01*
X199516424Y-17735333D01*
X199505301Y-17732526D01*
X199489080Y-17728309D01*
X199468521Y-17722880D01*
X199444382Y-17716440D01*
X199417422Y-17709190D01*
X199388400Y-17701329D01*
X199365158Y-17695012D01*
X199334834Y-17686770D01*
X199299443Y-17677150D01*
X199259851Y-17666389D01*
X199216925Y-17654721D01*
X199171531Y-17642383D01*
X199124534Y-17629609D01*
X199076802Y-17616634D01*
X199029199Y-17603695D01*
X198982593Y-17591027D01*
X198960932Y-17585137D01*
X198919302Y-17573803D01*
X198879903Y-17563059D01*
X198843239Y-17553043D01*
X198809811Y-17543892D01*
X198780122Y-17535746D01*
X198754674Y-17528741D01*
X198733970Y-17523016D01*
X198718512Y-17518708D01*
X198708802Y-17515956D01*
X198705343Y-17514898D01*
X198705289Y-17514770D01*
X198706129Y-17510295D01*
X198708981Y-17500339D01*
X198713512Y-17485878D01*
X198719390Y-17467883D01*
X198726283Y-17447330D01*
X198733857Y-17425191D01*
X198741779Y-17402440D01*
X198749718Y-17380049D01*
X198757341Y-17358994D01*
X198764315Y-17340247D01*
X198770307Y-17324781D01*
X198811110Y-17229803D01*
X198858189Y-17135142D01*
X198909454Y-17046077D01*
X198964922Y-16962588D01*
X199024608Y-16884657D01*
X199088528Y-16812268D01*
X199156699Y-16745400D01*
X199229136Y-16684037D01*
X199305855Y-16628161D01*
X199386872Y-16577753D01*
X199472204Y-16532795D01*
X199541081Y-16501608D01*
X199622826Y-16469811D01*
X199706962Y-16442664D01*
X199794060Y-16420037D01*
X199884695Y-16401800D01*
X199979440Y-16387825D01*
X200078866Y-16377982D01*
X200183546Y-16372142D01*
X200235698Y-16370804D01*
X200350518Y-16371791D01*
G37*
G36*
X195958271Y-21468824D02*
G01*
X195953754Y-21509366D01*
X195944307Y-21547152D01*
X195929489Y-21583382D01*
X195908860Y-21619255D01*
X195881979Y-21655970D01*
X195866903Y-21673249D01*
X195837080Y-21701716D01*
X195801666Y-21729853D01*
X195761521Y-21757093D01*
X195717501Y-21782873D01*
X195670468Y-21806624D01*
X195621278Y-21827782D01*
X195573898Y-21844828D01*
X195517841Y-21861793D01*
X195457492Y-21877188D01*
X195394213Y-21890726D01*
X195329362Y-21902115D01*
X195264300Y-21911068D01*
X195200386Y-21917295D01*
X195195975Y-21917630D01*
X195177247Y-21919071D01*
X195160403Y-21920395D01*
X195147142Y-21921465D01*
X195139160Y-21922148D01*
X195137565Y-21922280D01*
X195125972Y-21922834D01*
X195108583Y-21923263D01*
X195086389Y-21923570D01*
X195060383Y-21923761D01*
X195031558Y-21923839D01*
X195000906Y-21923807D01*
X194969420Y-21923671D01*
X194938091Y-21923433D01*
X194907913Y-21923098D01*
X194879877Y-21922670D01*
X194854976Y-21922152D01*
X194834203Y-21921549D01*
X194818550Y-21920865D01*
X194789024Y-21919080D01*
X194683640Y-21910755D01*
X194580768Y-21899380D01*
X194477670Y-21884620D01*
X194371608Y-21866141D01*
X194369659Y-21865772D01*
X194349777Y-21861817D01*
X194335444Y-21858443D01*
X194325388Y-21855253D01*
X194318340Y-21851849D01*
X194313030Y-21847835D01*
X194303037Y-21838692D01*
X194308883Y-21805455D01*
X194310948Y-21790779D01*
X194312956Y-21768213D01*
X194314304Y-21742577D01*
X194314976Y-21715540D01*
X194314955Y-21688776D01*
X194314226Y-21663954D01*
X194312773Y-21642746D01*
X194310580Y-21626823D01*
X194305950Y-21603879D01*
X194266301Y-21590830D01*
X194249369Y-21584990D01*
X194234565Y-21578786D01*
X194224761Y-21572596D01*
X194218974Y-21565541D01*
X194216223Y-21556739D01*
X194216098Y-21554696D01*
X194283809Y-21554696D01*
X194318712Y-21566397D01*
X194328938Y-21570043D01*
X194343439Y-21575977D01*
X194354928Y-21581592D01*
X194361560Y-21586043D01*
X194361888Y-21586380D01*
X194368405Y-21597339D01*
X194373557Y-21614956D01*
X194377311Y-21639031D01*
X194379636Y-21669360D01*
X194380498Y-21705744D01*
X194379960Y-21740577D01*
X194377084Y-21785269D01*
X194371804Y-21824453D01*
X194374040Y-21826512D01*
X194382554Y-21829473D01*
X194396792Y-21832977D01*
X194416094Y-21836927D01*
X194439797Y-21841228D01*
X194467243Y-21845785D01*
X194497768Y-21850502D01*
X194530714Y-21855283D01*
X194565418Y-21860034D01*
X194601219Y-21864657D01*
X194637457Y-21869059D01*
X194673470Y-21873143D01*
X194708598Y-21876813D01*
X194742180Y-21879975D01*
X194773554Y-21882532D01*
X194775381Y-21882661D01*
X194790176Y-21883455D01*
X194810288Y-21884231D01*
X194834771Y-21884976D01*
X194862677Y-21885676D01*
X194893060Y-21886320D01*
X194924972Y-21886893D01*
X194957466Y-21887383D01*
X194989595Y-21887776D01*
X195020412Y-21888059D01*
X195048970Y-21888220D01*
X195074321Y-21888244D01*
X195095519Y-21888118D01*
X195111617Y-21887831D01*
X195121667Y-21887367D01*
X195123008Y-21887257D01*
X195133530Y-21886414D01*
X195148828Y-21885208D01*
X195167062Y-21883785D01*
X195186392Y-21882290D01*
X195227075Y-21878611D01*
X195309679Y-21867981D01*
X195391522Y-21853378D01*
X195469837Y-21835262D01*
X195494336Y-21828539D01*
X195553144Y-21809578D01*
X195608979Y-21787555D01*
X195661179Y-21762830D01*
X195709083Y-21735763D01*
X195752031Y-21706715D01*
X195789362Y-21676046D01*
X195820414Y-21644116D01*
X195833704Y-21627489D01*
X195858377Y-21588978D01*
X195876691Y-21548393D01*
X195888637Y-21506331D01*
X195894205Y-21463393D01*
X195893388Y-21420178D01*
X195886177Y-21377284D01*
X195872561Y-21335312D01*
X195852534Y-21294860D01*
X195826086Y-21256529D01*
X195823072Y-21252819D01*
X195791474Y-21219302D01*
X195753486Y-21187373D01*
X195709532Y-21157218D01*
X195660034Y-21129025D01*
X195605416Y-21102979D01*
X195546103Y-21079267D01*
X195482517Y-21058077D01*
X195415081Y-21039595D01*
X195344221Y-21024008D01*
X195270359Y-21011503D01*
X195198832Y-21002568D01*
X195111868Y-20995048D01*
X195021347Y-20990479D01*
X194928521Y-20988823D01*
X194834647Y-20990043D01*
X194740977Y-20994100D01*
X194648767Y-21000957D01*
X194559271Y-21010576D01*
X194473743Y-21022919D01*
X194393437Y-21037948D01*
X194366680Y-21043613D01*
X194372018Y-21056304D01*
X194372065Y-21056417D01*
X194374617Y-21063929D01*
X194378439Y-21076899D01*
X194383171Y-21094019D01*
X194388448Y-21113978D01*
X194393911Y-21135468D01*
X194394941Y-21139592D01*
X194401438Y-21164758D01*
X194406744Y-21183279D01*
X194411047Y-21195341D01*
X194414532Y-21201127D01*
X194417387Y-21200823D01*
X194419799Y-21194611D01*
X194421955Y-21182678D01*
X194424041Y-21165207D01*
X194425223Y-21154426D01*
X194427143Y-21138618D01*
X194428937Y-21125653D01*
X194430333Y-21117592D01*
X194433151Y-21109512D01*
X194439802Y-21100071D01*
X194450407Y-21091454D01*
X194465568Y-21083352D01*
X194485885Y-21075458D01*
X194511960Y-21067461D01*
X194544394Y-21059055D01*
X194568862Y-21053235D01*
X194631554Y-21039722D01*
X194691198Y-21029106D01*
X194750032Y-21021017D01*
X194810290Y-21015086D01*
X194830329Y-21013575D01*
X194915076Y-21009522D01*
X194998099Y-21009295D01*
X195078836Y-21012816D01*
X195156725Y-21020007D01*
X195231204Y-21030791D01*
X195301710Y-21045089D01*
X195367682Y-21062825D01*
X195428558Y-21083919D01*
X195483775Y-21108295D01*
X195531031Y-21134864D01*
X195574024Y-21165533D01*
X195611504Y-21199514D01*
X195643224Y-21236520D01*
X195668941Y-21276265D01*
X195688407Y-21318461D01*
X195701378Y-21362821D01*
X195702464Y-21368495D01*
X195705279Y-21394667D01*
X195705680Y-21424216D01*
X195703798Y-21454637D01*
X195699766Y-21483424D01*
X195693717Y-21508072D01*
X195685153Y-21531799D01*
X195663218Y-21577229D01*
X195634980Y-21619768D01*
X195600513Y-21659353D01*
X195559892Y-21695921D01*
X195513191Y-21729408D01*
X195460483Y-21759752D01*
X195401844Y-21786890D01*
X195337347Y-21810759D01*
X195334788Y-21811599D01*
X195269207Y-21830641D01*
X195201058Y-21845668D01*
X195129653Y-21856767D01*
X195054302Y-21864026D01*
X194974317Y-21867530D01*
X194889009Y-21867367D01*
X194838778Y-21865738D01*
X194763115Y-21861110D01*
X194693723Y-21854012D01*
X194630697Y-21844453D01*
X194574133Y-21832446D01*
X194573710Y-21832341D01*
X194558954Y-21828532D01*
X194549397Y-21825402D01*
X194543458Y-21822070D01*
X194539555Y-21817656D01*
X194536109Y-21811281D01*
X194535335Y-21809547D01*
X194531731Y-21796789D01*
X194528812Y-21778669D01*
X194526600Y-21756533D01*
X194525118Y-21731725D01*
X194524386Y-21705590D01*
X194524426Y-21679473D01*
X194525259Y-21654719D01*
X194526909Y-21632671D01*
X194529395Y-21614676D01*
X194532740Y-21602078D01*
X194534267Y-21598659D01*
X194540861Y-21588985D01*
X194550581Y-21580883D01*
X194563977Y-21574212D01*
X194581599Y-21568828D01*
X194603995Y-21564589D01*
X194631716Y-21561353D01*
X194665312Y-21558977D01*
X194705331Y-21557319D01*
X194713726Y-21557039D01*
X194724131Y-21556584D01*
X194728574Y-21556183D01*
X194726940Y-21555835D01*
X194719113Y-21555538D01*
X194704980Y-21555290D01*
X194684424Y-21555090D01*
X194657331Y-21554936D01*
X194623586Y-21554826D01*
X194583073Y-21554759D01*
X194535679Y-21554732D01*
X194283809Y-21554696D01*
X194216098Y-21554696D01*
X194215950Y-21552274D01*
X194796914Y-21552274D01*
X194799794Y-21553554D01*
X194801646Y-21553301D01*
X194802126Y-21551221D01*
X194801614Y-21550803D01*
X194797461Y-21551221D01*
X194796914Y-21552274D01*
X194215950Y-21552274D01*
X194215524Y-21545310D01*
X194215493Y-21542877D01*
X194215420Y-21538618D01*
X194215678Y-21534882D01*
X194216685Y-21531634D01*
X194218856Y-21528839D01*
X194222609Y-21526462D01*
X194228361Y-21524467D01*
X194236526Y-21522820D01*
X194247524Y-21521486D01*
X194261769Y-21520429D01*
X194279678Y-21519615D01*
X194301669Y-21519008D01*
X194328157Y-21518573D01*
X194359559Y-21518275D01*
X194396293Y-21518079D01*
X194438773Y-21517950D01*
X194487418Y-21517853D01*
X194542643Y-21517752D01*
X194551634Y-21517735D01*
X194603236Y-21517643D01*
X194648374Y-21517583D01*
X194687506Y-21517563D01*
X194721089Y-21517593D01*
X194749583Y-21517681D01*
X194773445Y-21517836D01*
X194793134Y-21518065D01*
X194809108Y-21518379D01*
X194821825Y-21518785D01*
X194831744Y-21519292D01*
X194839323Y-21519910D01*
X194845020Y-21520645D01*
X194849294Y-21521508D01*
X194852602Y-21522507D01*
X194855404Y-21523649D01*
X194869766Y-21530126D01*
X194869766Y-21551221D01*
X194869766Y-21552003D01*
X194869766Y-21573881D01*
X194854897Y-21582514D01*
X194854078Y-21582988D01*
X194849676Y-21585388D01*
X194845179Y-21587285D01*
X194839724Y-21588756D01*
X194832448Y-21589880D01*
X194822489Y-21590733D01*
X194808984Y-21591393D01*
X194791070Y-21591939D01*
X194767886Y-21592447D01*
X194738568Y-21592997D01*
X194721879Y-21593325D01*
X194689354Y-21594172D01*
X194662904Y-21595239D01*
X194641889Y-21596606D01*
X194625674Y-21598352D01*
X194613620Y-21600555D01*
X194605090Y-21603295D01*
X194599447Y-21606652D01*
X194596054Y-21610704D01*
X194594706Y-21615372D01*
X194593218Y-21626463D01*
X194591966Y-21642217D01*
X194590990Y-21661340D01*
X194590328Y-21682543D01*
X194590017Y-21704533D01*
X194590096Y-21726019D01*
X194590603Y-21745710D01*
X194591575Y-21762314D01*
X194591771Y-21764535D01*
X194593661Y-21779326D01*
X194596117Y-21790501D01*
X194598783Y-21796369D01*
X194601325Y-21798111D01*
X194611302Y-21801853D01*
X194627131Y-21805804D01*
X194648050Y-21809858D01*
X194673301Y-21813905D01*
X194702124Y-21817839D01*
X194733758Y-21821552D01*
X194767445Y-21824936D01*
X194802423Y-21827883D01*
X194837933Y-21830285D01*
X194852681Y-21831087D01*
X194936707Y-21833057D01*
X195018718Y-21830576D01*
X195097974Y-21823727D01*
X195173736Y-21812591D01*
X195245265Y-21797251D01*
X195311820Y-21777788D01*
X195320567Y-21774788D01*
X195379600Y-21751452D01*
X195433136Y-21724635D01*
X195481018Y-21694458D01*
X195523091Y-21661043D01*
X195559198Y-21624512D01*
X195589183Y-21584988D01*
X195612889Y-21542592D01*
X195619503Y-21527915D01*
X195629597Y-21501426D01*
X195636083Y-21476431D01*
X195639545Y-21450351D01*
X195640569Y-21420606D01*
X195640112Y-21403325D01*
X195634634Y-21360419D01*
X195622838Y-21319979D01*
X195604577Y-21281668D01*
X195579705Y-21245152D01*
X195548073Y-21210096D01*
X195521040Y-21186068D01*
X195482090Y-21158338D01*
X195437748Y-21133608D01*
X195387827Y-21111806D01*
X195332144Y-21092865D01*
X195270512Y-21076714D01*
X195202748Y-21063285D01*
X195128664Y-21052506D01*
X195122356Y-21051848D01*
X195104147Y-21050603D01*
X195080557Y-21049595D01*
X195052687Y-21048825D01*
X195021639Y-21048293D01*
X194988515Y-21047997D01*
X194954417Y-21047939D01*
X194920445Y-21048117D01*
X194887702Y-21048532D01*
X194857289Y-21049184D01*
X194830308Y-21050072D01*
X194807860Y-21051197D01*
X194791047Y-21052557D01*
X194789518Y-21052724D01*
X194759226Y-21056442D01*
X194727130Y-21061076D01*
X194694104Y-21066440D01*
X194661023Y-21072350D01*
X194628759Y-21078624D01*
X194598188Y-21085077D01*
X194570182Y-21091524D01*
X194545617Y-21097781D01*
X194525365Y-21103666D01*
X194510301Y-21108993D01*
X194501299Y-21113578D01*
X194499988Y-21114793D01*
X194496761Y-21120649D01*
X194493945Y-21130763D01*
X194491415Y-21145821D01*
X194489046Y-21166506D01*
X194486714Y-21193503D01*
X194484384Y-21223548D01*
X194468814Y-21231113D01*
X194466607Y-21232095D01*
X194452034Y-21236136D01*
X194433488Y-21238557D01*
X194413123Y-21239343D01*
X194393090Y-21238483D01*
X194375543Y-21235961D01*
X194362633Y-21231766D01*
X194360154Y-21230484D01*
X194354700Y-21227140D01*
X194350885Y-21222996D01*
X194347933Y-21216541D01*
X194345069Y-21206265D01*
X194341516Y-21190657D01*
X194338684Y-21178076D01*
X194331345Y-21147252D01*
X194323909Y-21118319D01*
X194316718Y-21092523D01*
X194310113Y-21071113D01*
X194304438Y-21055336D01*
X194295772Y-21034008D01*
X194307180Y-21024697D01*
X194311801Y-21021508D01*
X194319401Y-21017798D01*
X194329820Y-21014114D01*
X194343745Y-21010287D01*
X194361858Y-21006152D01*
X194384846Y-21001539D01*
X194413392Y-20996283D01*
X194448182Y-20990214D01*
X194465252Y-20987341D01*
X194512249Y-20980000D01*
X194558133Y-20973766D01*
X194604255Y-20968510D01*
X194651964Y-20964101D01*
X194702611Y-20960411D01*
X194757547Y-20957309D01*
X194818122Y-20954665D01*
X194911430Y-20952594D01*
X195007128Y-20953668D01*
X195100581Y-20957971D01*
X195191094Y-20965432D01*
X195277973Y-20975981D01*
X195360524Y-20989545D01*
X195438051Y-21006053D01*
X195509862Y-21025436D01*
X195538432Y-21034376D01*
X195606084Y-21058244D01*
X195667431Y-21084070D01*
X195722820Y-21112036D01*
X195772598Y-21142330D01*
X195817109Y-21175135D01*
X195856702Y-21210637D01*
X195877848Y-21233143D01*
X195907207Y-21271591D01*
X195929898Y-21311989D01*
X195946008Y-21354533D01*
X195955619Y-21399420D01*
X195958818Y-21446846D01*
X195958406Y-21463393D01*
X195958271Y-21468824D01*
G37*
G36*
X198024875Y-21849174D02*
G01*
X198024964Y-21856333D01*
X198023006Y-21861359D01*
X198018703Y-21866493D01*
X198013701Y-21870536D01*
X198004790Y-21874851D01*
X197991377Y-21879203D01*
X197972248Y-21884052D01*
X197956723Y-21887526D01*
X197919262Y-21894895D01*
X197877481Y-21901973D01*
X197833206Y-21908501D01*
X197788259Y-21914221D01*
X197744466Y-21918872D01*
X197703651Y-21922197D01*
X197703434Y-21922211D01*
X197695279Y-21922477D01*
X197681084Y-21922679D01*
X197661760Y-21922816D01*
X197638223Y-21922884D01*
X197611385Y-21922880D01*
X197582159Y-21922802D01*
X197551461Y-21922647D01*
X197519972Y-21922395D01*
X197482116Y-21921857D01*
X197449287Y-21921008D01*
X197420344Y-21919751D01*
X197394151Y-21917990D01*
X197369568Y-21915626D01*
X197345457Y-21912564D01*
X197320680Y-21908706D01*
X197294098Y-21903956D01*
X197264574Y-21898216D01*
X197249312Y-21895063D01*
X197190016Y-21880759D01*
X197133736Y-21863902D01*
X197080966Y-21844745D01*
X197032202Y-21823540D01*
X196987939Y-21800538D01*
X196948672Y-21775990D01*
X196914896Y-21750148D01*
X196887106Y-21723264D01*
X196865798Y-21695590D01*
X196852824Y-21672553D01*
X196840220Y-21639728D01*
X196834361Y-21607181D01*
X196834595Y-21597184D01*
X196899114Y-21597184D01*
X196903128Y-21626813D01*
X196913388Y-21656452D01*
X196929864Y-21685511D01*
X196952526Y-21713399D01*
X196962441Y-21723315D01*
X196995904Y-21751078D01*
X197035676Y-21776792D01*
X197081435Y-21800335D01*
X197132858Y-21821582D01*
X197189625Y-21840410D01*
X197251415Y-21856696D01*
X197317905Y-21870315D01*
X197388775Y-21881144D01*
X197399864Y-21882293D01*
X197420066Y-21883703D01*
X197445272Y-21884941D01*
X197474341Y-21885991D01*
X197506131Y-21886836D01*
X197539500Y-21887462D01*
X197573305Y-21887850D01*
X197606404Y-21887986D01*
X197637655Y-21887854D01*
X197665916Y-21887436D01*
X197690045Y-21886717D01*
X197708899Y-21885680D01*
X197716256Y-21885093D01*
X197740861Y-21882794D01*
X197767648Y-21879865D01*
X197795704Y-21876444D01*
X197824114Y-21872670D01*
X197851965Y-21868682D01*
X197878343Y-21864620D01*
X197902335Y-21860623D01*
X197923026Y-21856829D01*
X197939502Y-21853377D01*
X197950850Y-21850407D01*
X197956157Y-21848058D01*
X197956646Y-21845699D01*
X197956535Y-21837524D01*
X197955562Y-21825107D01*
X197953824Y-21810021D01*
X197951956Y-21793875D01*
X197949871Y-21771993D01*
X197948010Y-21748702D01*
X197946625Y-21726929D01*
X197946035Y-21716234D01*
X197944960Y-21700201D01*
X197943821Y-21689565D01*
X197942428Y-21683273D01*
X197940593Y-21680271D01*
X197938128Y-21679504D01*
X197936523Y-21679774D01*
X197934009Y-21682236D01*
X197931943Y-21688221D01*
X197929996Y-21698880D01*
X197927836Y-21715365D01*
X197927293Y-21719753D01*
X197923408Y-21743749D01*
X197918086Y-21762295D01*
X197910423Y-21776717D01*
X197899515Y-21788341D01*
X197884457Y-21798492D01*
X197864346Y-21808498D01*
X197840779Y-21818011D01*
X197803159Y-21829887D01*
X197760428Y-21840278D01*
X197713609Y-21849084D01*
X197663721Y-21856205D01*
X197611785Y-21861543D01*
X197558821Y-21864997D01*
X197505851Y-21866467D01*
X197453895Y-21865855D01*
X197403974Y-21863061D01*
X197357109Y-21857985D01*
X197305086Y-21849335D01*
X197249672Y-21836344D01*
X197200378Y-21820306D01*
X197157245Y-21801242D01*
X197120312Y-21779173D01*
X197089619Y-21754118D01*
X197065204Y-21726099D01*
X197047107Y-21695136D01*
X197042727Y-21684801D01*
X197039462Y-21673604D01*
X197037898Y-21661124D01*
X197037497Y-21644518D01*
X197037714Y-21631568D01*
X197038945Y-21618254D01*
X197041711Y-21607153D01*
X197046515Y-21595537D01*
X197054731Y-21580424D01*
X197072178Y-21557835D01*
X197094776Y-21537898D01*
X197122789Y-21520482D01*
X197156484Y-21505457D01*
X197196125Y-21492691D01*
X197241980Y-21482054D01*
X197294312Y-21473415D01*
X197298599Y-21472838D01*
X197316959Y-21470556D01*
X197340494Y-21467842D01*
X197367821Y-21464845D01*
X197397560Y-21461713D01*
X197428329Y-21458597D01*
X197458747Y-21455645D01*
X197492660Y-21452414D01*
X197534231Y-21448368D01*
X197570101Y-21444736D01*
X197601009Y-21441413D01*
X197627694Y-21438297D01*
X197650895Y-21435282D01*
X197671350Y-21432265D01*
X197689799Y-21429142D01*
X197706979Y-21425809D01*
X197723631Y-21422162D01*
X197740492Y-21418097D01*
X197758302Y-21413511D01*
X197765654Y-21411537D01*
X197802123Y-21400354D01*
X197832971Y-21388118D01*
X197859358Y-21374236D01*
X197882439Y-21358114D01*
X197903373Y-21339160D01*
X197904312Y-21338199D01*
X197924067Y-21313177D01*
X197937550Y-21285897D01*
X197944806Y-21257077D01*
X197945880Y-21227434D01*
X197940817Y-21197686D01*
X197929663Y-21168550D01*
X197912462Y-21140744D01*
X197889260Y-21114986D01*
X197865714Y-21095243D01*
X197827633Y-21070346D01*
X197783766Y-21048625D01*
X197734405Y-21030136D01*
X197679838Y-21014933D01*
X197620354Y-21003071D01*
X197556244Y-20994605D01*
X197487796Y-20989590D01*
X197415301Y-20988080D01*
X197339048Y-20990131D01*
X197259326Y-20995797D01*
X197256260Y-20996081D01*
X197210729Y-21000804D01*
X197166029Y-21006329D01*
X197123393Y-21012468D01*
X197084053Y-21019029D01*
X197049243Y-21025824D01*
X197020196Y-21032661D01*
X197011889Y-21035370D01*
X197008460Y-21038644D01*
X197008960Y-21043858D01*
X197015177Y-21066302D01*
X197023598Y-21103243D01*
X197028762Y-21137218D01*
X197029137Y-21140597D01*
X197031258Y-21158973D01*
X197033005Y-21171618D01*
X197034668Y-21179596D01*
X197036535Y-21183975D01*
X197038896Y-21185820D01*
X197042040Y-21186198D01*
X197046680Y-21184160D01*
X197050208Y-21176944D01*
X197052284Y-21163965D01*
X197053059Y-21144652D01*
X197053074Y-21143234D01*
X197054888Y-21118003D01*
X197059583Y-21098972D01*
X197067134Y-21086240D01*
X197071910Y-21081961D01*
X197086223Y-21072912D01*
X197106129Y-21063454D01*
X197130729Y-21053873D01*
X197159120Y-21044457D01*
X197190400Y-21035495D01*
X197223668Y-21027275D01*
X197258023Y-21020084D01*
X197292562Y-21014212D01*
X197300845Y-21013186D01*
X197321442Y-21011606D01*
X197348457Y-21010466D01*
X197381520Y-21009779D01*
X197420262Y-21009558D01*
X197436347Y-21009580D01*
X197463404Y-21009734D01*
X197485265Y-21010091D01*
X197503125Y-21010718D01*
X197518179Y-21011680D01*
X197531623Y-21013045D01*
X197544651Y-21014879D01*
X197558458Y-21017248D01*
X197586476Y-21022816D01*
X197633660Y-21034794D01*
X197674706Y-21049034D01*
X197709989Y-21065726D01*
X197739885Y-21085061D01*
X197764768Y-21107229D01*
X197785014Y-21132422D01*
X197798641Y-21156291D01*
X197808242Y-21183907D01*
X197811024Y-21210793D01*
X197807083Y-21236640D01*
X197796515Y-21261137D01*
X197779417Y-21283975D01*
X197755882Y-21304844D01*
X197726008Y-21323434D01*
X197719279Y-21326877D01*
X197705021Y-21333508D01*
X197689993Y-21339474D01*
X197673629Y-21344872D01*
X197655365Y-21349800D01*
X197634635Y-21354353D01*
X197610875Y-21358628D01*
X197583519Y-21362723D01*
X197552003Y-21366734D01*
X197515761Y-21370758D01*
X197474228Y-21374891D01*
X197426840Y-21379230D01*
X197373031Y-21383873D01*
X197371281Y-21384020D01*
X197310162Y-21389459D01*
X197255532Y-21394946D01*
X197206899Y-21400607D01*
X197163767Y-21406569D01*
X197125645Y-21412959D01*
X197092038Y-21419904D01*
X197062452Y-21427531D01*
X197036394Y-21435967D01*
X197013370Y-21445339D01*
X196992887Y-21455773D01*
X196974450Y-21467397D01*
X196957566Y-21480337D01*
X196941742Y-21494720D01*
X196924834Y-21514280D01*
X196909937Y-21540326D01*
X196901374Y-21568158D01*
X196899114Y-21597184D01*
X196834595Y-21597184D01*
X196835106Y-21575288D01*
X196842311Y-21544426D01*
X196855834Y-21514973D01*
X196875533Y-21487306D01*
X196901266Y-21461801D01*
X196932890Y-21438836D01*
X196970263Y-21418789D01*
X196975996Y-21416200D01*
X196995490Y-21408081D01*
X197015984Y-21400678D01*
X197038025Y-21393896D01*
X197062155Y-21387642D01*
X197088920Y-21381822D01*
X197118863Y-21376341D01*
X197152531Y-21371105D01*
X197190465Y-21366021D01*
X197233213Y-21360995D01*
X197281316Y-21355932D01*
X197335321Y-21350738D01*
X197395772Y-21345320D01*
X197426840Y-21342587D01*
X197466731Y-21338963D01*
X197500792Y-21335693D01*
X197529706Y-21332690D01*
X197554157Y-21329870D01*
X197574826Y-21327147D01*
X197592396Y-21324434D01*
X197607549Y-21321647D01*
X197620969Y-21318700D01*
X197633337Y-21315507D01*
X197652592Y-21309380D01*
X197681840Y-21296508D01*
X197706483Y-21280868D01*
X197725759Y-21262982D01*
X197738906Y-21243371D01*
X197739484Y-21242135D01*
X197744754Y-21223137D01*
X197745364Y-21201406D01*
X197741460Y-21179121D01*
X197733190Y-21158463D01*
X197724761Y-21145257D01*
X197708211Y-21125560D01*
X197688474Y-21107236D01*
X197667611Y-21092363D01*
X197649311Y-21082653D01*
X197615723Y-21069463D01*
X197577137Y-21058890D01*
X197534481Y-21050973D01*
X197488683Y-21045749D01*
X197440670Y-21043257D01*
X197391371Y-21043534D01*
X197341713Y-21046620D01*
X197292624Y-21052552D01*
X197245032Y-21061368D01*
X197199864Y-21073108D01*
X197183475Y-21078170D01*
X197161321Y-21085534D01*
X197144871Y-21091873D01*
X197133421Y-21097505D01*
X197126270Y-21102745D01*
X197122715Y-21107911D01*
X197122600Y-21108240D01*
X197121238Y-21115276D01*
X197119784Y-21127522D01*
X197118405Y-21143349D01*
X197117267Y-21161125D01*
X197114884Y-21206281D01*
X197099545Y-21213733D01*
X197093209Y-21216500D01*
X197085066Y-21218881D01*
X197075015Y-21220308D01*
X197061361Y-21221002D01*
X197042411Y-21221185D01*
X197026613Y-21221070D01*
X197012084Y-21220491D01*
X197001479Y-21219221D01*
X196993103Y-21217040D01*
X196985261Y-21213725D01*
X196969908Y-21206266D01*
X196967577Y-21173114D01*
X196966618Y-21161686D01*
X196962915Y-21131961D01*
X196957672Y-21101861D01*
X196951351Y-21073843D01*
X196944417Y-21050364D01*
X196936726Y-21028235D01*
X196944756Y-21019688D01*
X196946974Y-21017544D01*
X196952941Y-21013340D01*
X196961343Y-21009386D01*
X196973074Y-21005401D01*
X196989025Y-21001100D01*
X197010091Y-20996200D01*
X197037163Y-20990421D01*
X197070614Y-20983930D01*
X197123893Y-20975198D01*
X197183130Y-20967235D01*
X197248830Y-20959968D01*
X197276243Y-20957727D01*
X197308596Y-20955956D01*
X197344308Y-20954683D01*
X197382085Y-20953910D01*
X197420636Y-20953638D01*
X197458669Y-20953867D01*
X197494891Y-20954597D01*
X197528010Y-20955830D01*
X197556735Y-20957566D01*
X197579773Y-20959805D01*
X197599765Y-20962484D01*
X197663541Y-20973316D01*
X197722596Y-20986956D01*
X197776734Y-21003273D01*
X197825761Y-21022137D01*
X197869483Y-21043417D01*
X197907706Y-21066982D01*
X197940234Y-21092703D01*
X197966873Y-21120448D01*
X197987429Y-21150086D01*
X198001707Y-21181488D01*
X198009512Y-21214522D01*
X198010651Y-21249058D01*
X198005832Y-21279970D01*
X197994966Y-21309003D01*
X197977598Y-21336822D01*
X197973173Y-21342488D01*
X197946907Y-21369509D01*
X197914313Y-21393601D01*
X197875422Y-21414747D01*
X197830264Y-21432931D01*
X197778871Y-21448135D01*
X197759416Y-21452864D01*
X197739856Y-21457226D01*
X197719804Y-21461234D01*
X197698541Y-21464988D01*
X197675347Y-21468586D01*
X197649499Y-21472127D01*
X197620279Y-21475708D01*
X197586964Y-21479430D01*
X197548834Y-21483390D01*
X197505170Y-21487688D01*
X197455248Y-21492421D01*
X197410644Y-21496764D01*
X197363405Y-21501824D01*
X197322404Y-21506771D01*
X197287831Y-21511579D01*
X197259873Y-21516225D01*
X197238721Y-21520683D01*
X197215214Y-21527205D01*
X197180316Y-21540407D01*
X197151812Y-21556253D01*
X197129738Y-21574722D01*
X197114133Y-21595790D01*
X197112491Y-21598802D01*
X197107798Y-21608627D01*
X197105122Y-21617831D01*
X197103917Y-21628949D01*
X197103637Y-21644518D01*
X197103968Y-21660277D01*
X197105347Y-21672308D01*
X197108308Y-21682681D01*
X197113380Y-21694098D01*
X197127990Y-21717073D01*
X197149630Y-21739714D01*
X197177156Y-21760367D01*
X197210063Y-21778708D01*
X197247850Y-21794416D01*
X197290014Y-21807170D01*
X197305321Y-21810960D01*
X197327044Y-21815926D01*
X197347225Y-21819844D01*
X197367085Y-21822835D01*
X197387842Y-21825016D01*
X197410715Y-21826507D01*
X197436925Y-21827426D01*
X197467690Y-21827892D01*
X197504229Y-21828024D01*
X197531991Y-21827984D01*
X197559145Y-21827794D01*
X197581539Y-21827391D01*
X197600382Y-21826718D01*
X197616883Y-21825714D01*
X197632249Y-21824319D01*
X197647689Y-21822473D01*
X197664411Y-21820118D01*
X197698043Y-21814595D01*
X197733134Y-21807571D01*
X197765012Y-21799843D01*
X197793048Y-21791616D01*
X197816615Y-21783098D01*
X197835087Y-21774493D01*
X197847836Y-21766008D01*
X197854234Y-21757847D01*
X197855028Y-21755498D01*
X197857863Y-21743616D01*
X197860836Y-21726512D01*
X197863732Y-21705540D01*
X197866335Y-21682053D01*
X197866919Y-21676262D01*
X197868399Y-21665844D01*
X197870747Y-21659576D01*
X197875008Y-21655446D01*
X197882228Y-21651440D01*
X197890640Y-21648439D01*
X197906364Y-21645610D01*
X197925392Y-21644110D01*
X197945690Y-21643942D01*
X197965223Y-21645104D01*
X197981956Y-21647597D01*
X197993854Y-21651422D01*
X198007387Y-21658326D01*
X198009501Y-21689032D01*
X198009951Y-21695536D01*
X198012614Y-21732831D01*
X198014996Y-21763807D01*
X198017149Y-21789040D01*
X198019125Y-21809110D01*
X198020976Y-21824595D01*
X198022754Y-21836072D01*
X198023039Y-21837641D01*
X198024322Y-21845699D01*
X198024875Y-21849174D01*
G37*
G36*
X199480951Y-21032117D02*
G01*
X199467260Y-21039101D01*
X199466699Y-21039383D01*
X199460612Y-21041880D01*
X199452917Y-21043880D01*
X199442537Y-21045522D01*
X199428394Y-21046944D01*
X199409412Y-21048283D01*
X199384512Y-21049676D01*
X199366379Y-21050661D01*
X199341960Y-21052231D01*
X199323202Y-21053902D01*
X199309278Y-21055839D01*
X199299363Y-21058210D01*
X199292629Y-21061179D01*
X199288250Y-21064913D01*
X199285399Y-21069578D01*
X199283745Y-21074100D01*
X199281949Y-21081785D01*
X199280391Y-21092230D01*
X199279056Y-21105861D01*
X199277930Y-21123099D01*
X199276998Y-21144369D01*
X199276246Y-21170094D01*
X199275658Y-21200697D01*
X199275221Y-21236604D01*
X199274920Y-21278236D01*
X199274740Y-21326017D01*
X199274666Y-21380372D01*
X199274669Y-21410334D01*
X199274773Y-21463061D01*
X199275014Y-21509702D01*
X199275403Y-21550854D01*
X199275949Y-21587117D01*
X199276662Y-21619090D01*
X199277552Y-21647370D01*
X199278629Y-21672556D01*
X199279904Y-21695248D01*
X199279985Y-21696526D01*
X199282408Y-21732019D01*
X199284785Y-21762082D01*
X199287084Y-21786402D01*
X199289272Y-21804666D01*
X199291317Y-21816561D01*
X199293185Y-21821775D01*
X199295446Y-21822737D01*
X199303286Y-21825331D01*
X199315298Y-21829006D01*
X199330018Y-21833303D01*
X199340196Y-21836387D01*
X199355539Y-21841676D01*
X199368136Y-21846779D01*
X199375970Y-21850921D01*
X199377033Y-21851689D01*
X199383129Y-21857326D01*
X199385859Y-21864124D01*
X199386488Y-21874978D01*
X199386439Y-21879553D01*
X199385391Y-21888124D01*
X199381899Y-21893478D01*
X199374567Y-21898355D01*
X199372953Y-21899209D01*
X199370990Y-21900004D01*
X199368394Y-21900725D01*
X199364845Y-21901375D01*
X199360026Y-21901959D01*
X199353618Y-21902479D01*
X199345303Y-21902940D01*
X199334764Y-21903345D01*
X199321681Y-21903698D01*
X199305737Y-21904002D01*
X199286614Y-21904260D01*
X199263993Y-21904478D01*
X199237557Y-21904657D01*
X199206987Y-21904802D01*
X199171964Y-21904917D01*
X199132172Y-21905005D01*
X199087291Y-21905069D01*
X199037004Y-21905113D01*
X198980992Y-21905141D01*
X198918938Y-21905157D01*
X198850522Y-21905164D01*
X198775428Y-21905165D01*
X198188210Y-21905165D01*
X198177369Y-21897433D01*
X198166529Y-21889700D01*
X198164453Y-21843204D01*
X198163434Y-21826287D01*
X198160620Y-21796503D01*
X198156647Y-21765870D01*
X198151816Y-21736349D01*
X198146427Y-21709903D01*
X198140868Y-21688830D01*
X198207945Y-21688830D01*
X198209091Y-21695776D01*
X198210874Y-21703205D01*
X198214948Y-21723299D01*
X198219111Y-21747447D01*
X198223054Y-21773655D01*
X198226467Y-21799930D01*
X198229042Y-21824279D01*
X198233187Y-21870179D01*
X198774557Y-21870179D01*
X198802505Y-21870178D01*
X198862622Y-21870173D01*
X198920630Y-21870161D01*
X198976153Y-21870143D01*
X199028815Y-21870121D01*
X199078240Y-21870093D01*
X199124051Y-21870061D01*
X199165873Y-21870025D01*
X199203330Y-21869985D01*
X199236046Y-21869942D01*
X199263645Y-21869896D01*
X199285750Y-21869846D01*
X199301986Y-21869794D01*
X199311977Y-21869740D01*
X199315347Y-21869685D01*
X199314872Y-21869498D01*
X199309558Y-21867879D01*
X199299656Y-21865027D01*
X199286777Y-21861409D01*
X199279412Y-21859304D01*
X199258917Y-21852517D01*
X199244320Y-21845830D01*
X199234801Y-21838804D01*
X199229535Y-21831004D01*
X199228181Y-21827176D01*
X199225883Y-21817831D01*
X199223719Y-21804856D01*
X199221632Y-21787691D01*
X199219566Y-21765775D01*
X199217465Y-21738547D01*
X199215272Y-21705447D01*
X199212930Y-21665913D01*
X199212218Y-21652925D01*
X199211120Y-21630424D01*
X199210225Y-21607931D01*
X199209525Y-21584668D01*
X199209011Y-21559857D01*
X199208674Y-21532719D01*
X199208507Y-21502476D01*
X199208501Y-21468350D01*
X199208648Y-21429562D01*
X199208939Y-21385335D01*
X199209367Y-21334890D01*
X199209673Y-21302344D01*
X199210147Y-21257335D01*
X199210647Y-21218484D01*
X199211203Y-21185282D01*
X199211848Y-21157219D01*
X199212612Y-21133784D01*
X199213528Y-21114468D01*
X199214626Y-21098761D01*
X199215939Y-21086154D01*
X199217496Y-21076136D01*
X199219331Y-21068197D01*
X199221474Y-21061828D01*
X199223957Y-21056518D01*
X199226811Y-21051759D01*
X199229895Y-21047593D01*
X199239666Y-21038744D01*
X199253209Y-21031504D01*
X199271161Y-21025694D01*
X199294161Y-21021134D01*
X199322846Y-21017647D01*
X199357854Y-21015054D01*
X199368092Y-21014442D01*
X199385428Y-21013288D01*
X199399481Y-21012198D01*
X199409017Y-21011273D01*
X199412800Y-21010612D01*
X199410549Y-21010487D01*
X199401731Y-21010341D01*
X199386586Y-21010201D01*
X199365479Y-21010066D01*
X199338777Y-21009938D01*
X199306844Y-21009818D01*
X199270048Y-21009707D01*
X199228753Y-21009605D01*
X199183327Y-21009514D01*
X199134134Y-21009434D01*
X199081541Y-21009366D01*
X199025913Y-21009312D01*
X198967617Y-21009271D01*
X198907018Y-21009246D01*
X198844483Y-21009236D01*
X198274803Y-21009223D01*
X198281497Y-21028613D01*
X198283423Y-21034719D01*
X198287642Y-21050535D01*
X198292296Y-21070372D01*
X198296989Y-21092340D01*
X198301325Y-21114543D01*
X198304907Y-21135090D01*
X198307339Y-21152087D01*
X198308379Y-21159332D01*
X198311054Y-21169034D01*
X198314563Y-21172204D01*
X198314988Y-21172179D01*
X198318324Y-21168584D01*
X198319408Y-21158668D01*
X198319656Y-21152738D01*
X198321218Y-21137990D01*
X198323864Y-21120167D01*
X198327185Y-21101661D01*
X198330771Y-21084865D01*
X198334213Y-21072172D01*
X198335920Y-21067281D01*
X198338764Y-21062101D01*
X198343411Y-21058640D01*
X198351539Y-21055825D01*
X198364824Y-21052582D01*
X198389749Y-21047677D01*
X198422504Y-21042891D01*
X198460786Y-21038618D01*
X198503844Y-21034892D01*
X198550925Y-21031744D01*
X198601275Y-21029206D01*
X198654144Y-21027311D01*
X198708778Y-21026090D01*
X198764425Y-21025574D01*
X198820332Y-21025797D01*
X198875747Y-21026790D01*
X198929918Y-21028584D01*
X198939689Y-21028991D01*
X198965239Y-21030077D01*
X198988097Y-21031080D01*
X199007403Y-21031960D01*
X199022298Y-21032678D01*
X199031921Y-21033194D01*
X199035413Y-21033469D01*
X199035607Y-21034431D01*
X199036151Y-21041204D01*
X199036859Y-21053721D01*
X199037699Y-21071138D01*
X199038638Y-21092611D01*
X199039645Y-21117296D01*
X199040687Y-21144349D01*
X199041732Y-21172925D01*
X199042748Y-21202180D01*
X199043704Y-21231270D01*
X199044566Y-21259351D01*
X199045304Y-21285579D01*
X199045885Y-21309110D01*
X199048211Y-21412779D01*
X198940083Y-21415424D01*
X198911401Y-21415997D01*
X198875720Y-21416427D01*
X198837813Y-21416630D01*
X198798603Y-21416617D01*
X198759012Y-21416402D01*
X198719963Y-21415996D01*
X198682376Y-21415411D01*
X198647176Y-21414660D01*
X198615283Y-21413755D01*
X198587620Y-21412709D01*
X198565109Y-21411532D01*
X198548672Y-21410239D01*
X198528216Y-21407823D01*
X198510698Y-21404781D01*
X198497596Y-21400996D01*
X198487546Y-21396061D01*
X198479184Y-21389571D01*
X198478569Y-21388994D01*
X198470497Y-21379591D01*
X198464421Y-21367967D01*
X198459697Y-21352529D01*
X198455676Y-21331687D01*
X198455195Y-21328789D01*
X198452850Y-21316774D01*
X198450636Y-21308337D01*
X198448976Y-21305152D01*
X198448965Y-21305153D01*
X198448414Y-21308652D01*
X198447907Y-21318358D01*
X198447460Y-21333495D01*
X198447086Y-21353288D01*
X198446801Y-21376962D01*
X198446619Y-21403742D01*
X198446556Y-21432851D01*
X198446556Y-21433441D01*
X198446631Y-21462512D01*
X198446842Y-21489238D01*
X198447169Y-21512843D01*
X198447598Y-21532553D01*
X198448111Y-21547590D01*
X198448690Y-21557182D01*
X198449321Y-21560551D01*
X198450228Y-21559972D01*
X198452977Y-21554689D01*
X198455787Y-21545682D01*
X198458822Y-21533593D01*
X198464326Y-21512570D01*
X198468918Y-21496846D01*
X198472996Y-21485379D01*
X198476957Y-21477127D01*
X198481199Y-21471046D01*
X198486119Y-21466096D01*
X198490949Y-21462299D01*
X198504105Y-21455123D01*
X198521354Y-21449493D01*
X198543651Y-21445140D01*
X198571950Y-21441791D01*
X198594142Y-21440100D01*
X198624197Y-21438510D01*
X198659348Y-21437207D01*
X198698604Y-21436204D01*
X198740974Y-21435519D01*
X198785467Y-21435166D01*
X198831094Y-21435162D01*
X198876864Y-21435522D01*
X198921785Y-21436261D01*
X199046600Y-21438902D01*
X199049485Y-21465615D01*
X199049787Y-21469019D01*
X199050478Y-21482163D01*
X199051057Y-21500962D01*
X199051526Y-21524455D01*
X199051883Y-21551677D01*
X199052129Y-21581667D01*
X199052265Y-21613460D01*
X199052291Y-21646095D01*
X199052206Y-21678609D01*
X199052012Y-21710038D01*
X199051707Y-21739420D01*
X199051294Y-21765792D01*
X199050771Y-21788191D01*
X199050139Y-21805654D01*
X199049399Y-21817219D01*
X199046428Y-21848226D01*
X198743269Y-21846504D01*
X198704376Y-21846277D01*
X198651891Y-21845935D01*
X198605531Y-21845570D01*
X198564771Y-21845160D01*
X198529092Y-21844684D01*
X198497968Y-21844118D01*
X198470879Y-21843441D01*
X198447301Y-21842630D01*
X198426713Y-21841664D01*
X198408590Y-21840521D01*
X198392412Y-21839178D01*
X198377655Y-21837613D01*
X198363797Y-21835804D01*
X198350315Y-21833729D01*
X198336687Y-21831366D01*
X198322391Y-21828692D01*
X198282932Y-21821134D01*
X198273248Y-21805423D01*
X198271319Y-21802101D01*
X198265438Y-21790924D01*
X198257880Y-21775629D01*
X198249415Y-21757790D01*
X198240809Y-21738981D01*
X198239316Y-21735668D01*
X198229901Y-21715633D01*
X198222055Y-21700479D01*
X198216082Y-21690760D01*
X198212287Y-21687030D01*
X198210015Y-21686765D01*
X198207945Y-21688830D01*
X198140868Y-21688830D01*
X198140779Y-21688492D01*
X198137780Y-21678502D01*
X198135567Y-21670326D01*
X198134997Y-21666965D01*
X198136002Y-21666386D01*
X198141656Y-21663426D01*
X198150460Y-21658943D01*
X198155453Y-21656631D01*
X198163444Y-21654036D01*
X198173193Y-21652477D01*
X198186444Y-21651716D01*
X198204940Y-21651515D01*
X198223259Y-21651847D01*
X198245138Y-21653596D01*
X198260183Y-21656847D01*
X198260801Y-21657060D01*
X198269180Y-21660485D01*
X198274727Y-21664840D01*
X198279117Y-21672030D01*
X198284024Y-21683961D01*
X198284394Y-21684918D01*
X198289390Y-21697037D01*
X198296449Y-21713246D01*
X198304683Y-21731542D01*
X198313207Y-21749923D01*
X198334042Y-21794102D01*
X198359087Y-21798054D01*
X198362719Y-21798620D01*
X198376230Y-21800584D01*
X198389957Y-21802308D01*
X198404465Y-21803811D01*
X198420320Y-21805115D01*
X198438085Y-21806241D01*
X198458327Y-21807210D01*
X198481610Y-21808042D01*
X198508500Y-21808760D01*
X198539561Y-21809384D01*
X198575360Y-21809934D01*
X198616460Y-21810433D01*
X198663427Y-21810901D01*
X198716826Y-21811358D01*
X198983046Y-21813513D01*
X198985315Y-21794615D01*
X198985674Y-21790149D01*
X198986172Y-21778167D01*
X198986593Y-21760919D01*
X198986937Y-21739350D01*
X198987202Y-21714402D01*
X198987389Y-21687019D01*
X198987497Y-21658144D01*
X198987526Y-21628720D01*
X198987475Y-21599690D01*
X198987344Y-21571998D01*
X198987131Y-21546587D01*
X198986838Y-21524399D01*
X198986463Y-21506379D01*
X198986006Y-21493469D01*
X198985466Y-21486613D01*
X198983363Y-21473900D01*
X198876172Y-21471485D01*
X198867201Y-21471302D01*
X198836409Y-21470927D01*
X198803373Y-21470857D01*
X198769016Y-21471066D01*
X198734263Y-21471530D01*
X198700038Y-21472225D01*
X198667264Y-21473127D01*
X198636867Y-21474212D01*
X198609770Y-21475454D01*
X198586897Y-21476830D01*
X198569173Y-21478315D01*
X198557522Y-21479885D01*
X198553386Y-21480844D01*
X198543715Y-21484378D01*
X198537966Y-21488382D01*
X198537817Y-21488605D01*
X198535422Y-21494525D01*
X198532026Y-21505645D01*
X198528059Y-21520457D01*
X198523951Y-21537453D01*
X198523621Y-21538891D01*
X198519521Y-21556431D01*
X198516332Y-21568525D01*
X198513473Y-21576465D01*
X198510360Y-21581543D01*
X198506412Y-21585051D01*
X198501047Y-21588282D01*
X198492501Y-21591492D01*
X198477327Y-21594287D01*
X198458907Y-21595792D01*
X198439248Y-21595998D01*
X198420356Y-21594896D01*
X198404239Y-21592479D01*
X198392903Y-21588738D01*
X198380681Y-21582232D01*
X198380516Y-21431788D01*
X198380351Y-21281343D01*
X198395455Y-21274005D01*
X198398368Y-21272653D01*
X198406822Y-21269649D01*
X198416686Y-21267831D01*
X198429818Y-21266942D01*
X198448076Y-21266724D01*
X198460470Y-21266822D01*
X198474443Y-21267385D01*
X198484409Y-21268694D01*
X198492160Y-21271024D01*
X198499488Y-21274652D01*
X198500745Y-21275358D01*
X198505761Y-21278228D01*
X198509412Y-21281085D01*
X198512127Y-21285081D01*
X198514337Y-21291365D01*
X198516474Y-21301089D01*
X198518967Y-21315402D01*
X198522248Y-21335455D01*
X198522304Y-21335801D01*
X198525019Y-21350846D01*
X198528200Y-21361135D01*
X198533148Y-21367740D01*
X198541164Y-21371735D01*
X198553550Y-21374194D01*
X198571605Y-21376190D01*
X198578258Y-21376656D01*
X198591854Y-21377224D01*
X198610469Y-21377759D01*
X198633353Y-21378254D01*
X198659753Y-21378706D01*
X198688920Y-21379111D01*
X198720103Y-21379463D01*
X198752549Y-21379759D01*
X198785509Y-21379994D01*
X198818231Y-21380163D01*
X198849965Y-21380262D01*
X198879959Y-21380287D01*
X198907463Y-21380233D01*
X198931725Y-21380095D01*
X198951994Y-21379870D01*
X198967520Y-21379553D01*
X198977552Y-21379138D01*
X198981338Y-21378623D01*
X198981571Y-21376166D01*
X198981658Y-21367264D01*
X198981515Y-21352497D01*
X198981158Y-21332498D01*
X198980603Y-21307904D01*
X198979864Y-21279350D01*
X198978959Y-21247472D01*
X198977903Y-21212906D01*
X198976711Y-21176286D01*
X198975399Y-21138250D01*
X198972892Y-21067560D01*
X198956653Y-21065007D01*
X198955569Y-21064857D01*
X198945735Y-21064121D01*
X198929897Y-21063521D01*
X198908894Y-21063053D01*
X198883563Y-21062715D01*
X198854742Y-21062502D01*
X198823271Y-21062413D01*
X198789988Y-21062442D01*
X198755730Y-21062588D01*
X198721336Y-21062847D01*
X198687645Y-21063215D01*
X198655494Y-21063689D01*
X198625722Y-21064266D01*
X198599168Y-21064942D01*
X198576669Y-21065715D01*
X198559064Y-21066580D01*
X198531947Y-21068401D01*
X198503390Y-21070656D01*
X198476527Y-21073110D01*
X198452239Y-21075661D01*
X198431410Y-21078209D01*
X198414920Y-21080655D01*
X198403653Y-21082898D01*
X198398489Y-21084837D01*
X198396250Y-21088929D01*
X198393322Y-21099132D01*
X198390570Y-21113367D01*
X198388259Y-21129971D01*
X198386652Y-21147281D01*
X198386011Y-21163635D01*
X198385882Y-21191801D01*
X198370045Y-21199496D01*
X198362567Y-21202729D01*
X198354439Y-21205016D01*
X198344392Y-21206373D01*
X198330733Y-21207023D01*
X198311773Y-21207190D01*
X198300408Y-21207164D01*
X198285700Y-21206897D01*
X198275606Y-21206142D01*
X198268623Y-21204656D01*
X198263247Y-21202198D01*
X198257977Y-21198524D01*
X198257659Y-21198280D01*
X198250540Y-21191543D01*
X198246563Y-21183541D01*
X198244280Y-21171410D01*
X198242657Y-21159115D01*
X198236992Y-21122317D01*
X198230523Y-21088065D01*
X198223497Y-21057471D01*
X198216161Y-21031647D01*
X198208763Y-21011707D01*
X198205177Y-21003334D01*
X198201771Y-20994687D01*
X198200455Y-20990316D01*
X198200983Y-20989251D01*
X198205651Y-20984915D01*
X198213575Y-20979290D01*
X198226695Y-20970852D01*
X198571309Y-20972692D01*
X198598759Y-20972829D01*
X198656957Y-20973062D01*
X198718136Y-20973240D01*
X198781186Y-20973361D01*
X198844998Y-20973427D01*
X198908466Y-20973437D01*
X198970479Y-20973392D01*
X199029929Y-20973291D01*
X199085709Y-20973134D01*
X199136708Y-20972922D01*
X199181819Y-20972654D01*
X199207733Y-20972473D01*
X199253896Y-20972161D01*
X199293805Y-20971918D01*
X199327952Y-20971752D01*
X199356831Y-20971673D01*
X199380935Y-20971689D01*
X199400756Y-20971807D01*
X199416789Y-20972036D01*
X199429525Y-20972385D01*
X199439458Y-20972862D01*
X199447081Y-20973475D01*
X199452887Y-20974233D01*
X199457369Y-20975144D01*
X199461019Y-20976216D01*
X199464332Y-20977459D01*
X199480951Y-20984140D01*
X199480951Y-21008128D01*
X199480951Y-21010612D01*
X199480951Y-21032117D01*
G37*
G36*
X194148339Y-21012194D02*
G01*
X194148223Y-21014548D01*
X194147350Y-21025646D01*
X194145416Y-21032322D01*
X194141330Y-21036789D01*
X194134000Y-21041263D01*
X194130291Y-21043179D01*
X194124607Y-21045347D01*
X194117430Y-21046990D01*
X194107660Y-21048236D01*
X194094196Y-21049214D01*
X194075937Y-21050053D01*
X194051782Y-21050882D01*
X194025667Y-21051826D01*
X194002681Y-21053029D01*
X193984876Y-21054539D01*
X193971298Y-21056497D01*
X193960995Y-21059044D01*
X193953013Y-21062320D01*
X193946401Y-21066466D01*
X193945938Y-21066809D01*
X193942787Y-21069268D01*
X193940054Y-21071957D01*
X193937708Y-21075360D01*
X193935721Y-21079960D01*
X193934061Y-21086241D01*
X193932698Y-21094686D01*
X193931602Y-21105778D01*
X193930744Y-21120001D01*
X193930092Y-21137838D01*
X193929617Y-21159772D01*
X193929288Y-21186287D01*
X193929076Y-21217865D01*
X193928949Y-21254991D01*
X193928879Y-21298148D01*
X193928834Y-21347818D01*
X193928842Y-21389368D01*
X193929072Y-21460320D01*
X193929586Y-21524462D01*
X193930389Y-21581910D01*
X193931484Y-21632780D01*
X193932878Y-21677189D01*
X193934575Y-21715255D01*
X193936579Y-21747094D01*
X193938896Y-21772823D01*
X193941530Y-21792560D01*
X193944485Y-21806420D01*
X193947767Y-21814521D01*
X193949152Y-21816457D01*
X193952545Y-21819730D01*
X193957479Y-21822249D01*
X193964864Y-21824155D01*
X193975609Y-21825591D01*
X193990623Y-21826700D01*
X194010815Y-21827624D01*
X194037094Y-21828504D01*
X194057158Y-21829192D01*
X194076848Y-21830144D01*
X194091762Y-21831327D01*
X194103135Y-21832877D01*
X194112198Y-21834929D01*
X194120186Y-21837619D01*
X194138554Y-21844752D01*
X194138554Y-21868305D01*
X194138554Y-21891857D01*
X194124335Y-21898269D01*
X194123628Y-21898582D01*
X194120590Y-21899732D01*
X194116869Y-21900727D01*
X194111980Y-21901576D01*
X194105435Y-21902291D01*
X194096751Y-21902881D01*
X194085441Y-21903357D01*
X194071019Y-21903729D01*
X194053000Y-21904008D01*
X194030897Y-21904204D01*
X194004226Y-21904327D01*
X193972501Y-21904388D01*
X193935235Y-21904397D01*
X193891944Y-21904364D01*
X193842141Y-21904301D01*
X193841274Y-21904300D01*
X193789271Y-21904246D01*
X193743822Y-21904205D01*
X193704489Y-21904122D01*
X193670836Y-21903945D01*
X193642427Y-21903619D01*
X193618824Y-21903090D01*
X193599591Y-21902304D01*
X193584291Y-21901209D01*
X193572487Y-21899750D01*
X193563743Y-21897874D01*
X193557622Y-21895526D01*
X193553687Y-21892653D01*
X193551502Y-21889201D01*
X193550629Y-21885116D01*
X193550632Y-21880345D01*
X193551075Y-21874835D01*
X193551520Y-21868530D01*
X193551734Y-21863951D01*
X193552615Y-21853409D01*
X193554602Y-21847050D01*
X193558718Y-21842742D01*
X193565984Y-21838353D01*
X193570093Y-21836237D01*
X193575757Y-21834105D01*
X193582888Y-21832509D01*
X193592592Y-21831322D01*
X193605975Y-21830418D01*
X193624143Y-21829671D01*
X193648201Y-21828953D01*
X193649624Y-21828914D01*
X193671492Y-21828157D01*
X193691492Y-21827198D01*
X193708343Y-21826116D01*
X193720762Y-21824995D01*
X193727466Y-21823914D01*
X193729593Y-21823224D01*
X193733741Y-21821403D01*
X193737402Y-21818765D01*
X193740612Y-21814895D01*
X193743403Y-21809384D01*
X193745807Y-21801818D01*
X193747858Y-21791787D01*
X193749589Y-21778877D01*
X193751032Y-21762678D01*
X193752221Y-21742776D01*
X193753189Y-21718761D01*
X193753969Y-21690220D01*
X193754593Y-21656742D01*
X193755096Y-21617914D01*
X193755509Y-21573325D01*
X193755865Y-21522562D01*
X193756198Y-21465214D01*
X193756301Y-21445682D01*
X193756494Y-21402752D01*
X193756633Y-21362128D01*
X193756719Y-21324331D01*
X193756751Y-21289883D01*
X193756732Y-21259304D01*
X193756661Y-21233117D01*
X193756539Y-21211841D01*
X193756366Y-21195999D01*
X193756144Y-21186111D01*
X193755873Y-21182700D01*
X193755246Y-21183053D01*
X193749806Y-21186573D01*
X193739094Y-21193668D01*
X193723476Y-21204094D01*
X193703317Y-21217603D01*
X193678981Y-21233951D01*
X193650834Y-21252892D01*
X193619241Y-21274180D01*
X193584567Y-21297569D01*
X193547176Y-21322813D01*
X193507435Y-21349667D01*
X193465707Y-21377885D01*
X193422358Y-21407222D01*
X193368903Y-21443393D01*
X193293958Y-21494041D01*
X193222291Y-21542395D01*
X193154130Y-21588303D01*
X193089702Y-21631614D01*
X193029231Y-21672178D01*
X192972946Y-21709841D01*
X192921072Y-21744453D01*
X192873835Y-21775863D01*
X192831462Y-21803919D01*
X192794179Y-21828469D01*
X192762213Y-21849363D01*
X192735789Y-21866448D01*
X192682523Y-21900634D01*
X192611978Y-21909057D01*
X192591245Y-21911622D01*
X192563996Y-21915209D01*
X192536946Y-21918974D01*
X192512348Y-21922602D01*
X192492452Y-21925778D01*
X192484608Y-21927123D01*
X192463688Y-21930776D01*
X192448564Y-21933152D01*
X192438357Y-21933898D01*
X192432185Y-21932659D01*
X192429170Y-21929082D01*
X192428432Y-21922815D01*
X192429091Y-21913503D01*
X192430268Y-21900792D01*
X192430488Y-21896812D01*
X192430855Y-21884722D01*
X192431204Y-21866467D01*
X192431533Y-21842573D01*
X192431837Y-21813566D01*
X192432112Y-21779972D01*
X192432355Y-21742319D01*
X192432563Y-21701131D01*
X192432731Y-21656936D01*
X192432856Y-21610260D01*
X192432934Y-21561629D01*
X192432963Y-21511570D01*
X192432955Y-21457304D01*
X192432907Y-21397381D01*
X192432794Y-21343800D01*
X192432591Y-21296201D01*
X192432275Y-21254224D01*
X192431822Y-21217510D01*
X192431207Y-21185698D01*
X192430407Y-21158430D01*
X192429397Y-21135346D01*
X192428154Y-21116085D01*
X192426653Y-21100289D01*
X192424870Y-21087597D01*
X192422782Y-21077649D01*
X192420364Y-21070087D01*
X192417592Y-21064549D01*
X192414443Y-21060678D01*
X192410892Y-21058112D01*
X192406915Y-21056492D01*
X192402488Y-21055459D01*
X192396348Y-21054756D01*
X192384081Y-21053874D01*
X192367405Y-21052960D01*
X192347679Y-21052087D01*
X192326268Y-21051329D01*
X192322758Y-21051219D01*
X192299744Y-21050382D01*
X192282360Y-21049447D01*
X192269395Y-21048275D01*
X192259640Y-21046727D01*
X192251886Y-21044662D01*
X192244925Y-21041942D01*
X192228306Y-21034562D01*
X192228306Y-21011640D01*
X192294781Y-21011640D01*
X192295763Y-21012081D01*
X192302329Y-21013007D01*
X192314045Y-21013990D01*
X192329713Y-21014938D01*
X192348134Y-21015759D01*
X192362678Y-21016388D01*
X192393913Y-21018546D01*
X192419240Y-21021719D01*
X192439403Y-21026098D01*
X192455148Y-21031872D01*
X192467220Y-21039230D01*
X192476366Y-21048362D01*
X192479313Y-21052484D01*
X192482492Y-21058157D01*
X192485323Y-21065021D01*
X192487825Y-21073461D01*
X192490018Y-21083865D01*
X192491922Y-21096620D01*
X192493556Y-21112113D01*
X192494941Y-21130732D01*
X192496094Y-21152863D01*
X192497037Y-21178894D01*
X192497788Y-21209212D01*
X192498368Y-21244203D01*
X192498795Y-21284256D01*
X192499090Y-21329758D01*
X192499272Y-21381095D01*
X192499361Y-21438654D01*
X192499376Y-21502824D01*
X192499375Y-21507365D01*
X192499331Y-21555073D01*
X192499234Y-21601231D01*
X192499088Y-21645296D01*
X192498898Y-21686723D01*
X192498667Y-21724965D01*
X192498401Y-21759480D01*
X192498102Y-21789721D01*
X192497775Y-21815145D01*
X192497425Y-21835205D01*
X192497055Y-21849359D01*
X192496670Y-21857059D01*
X192494038Y-21885923D01*
X192505490Y-21885429D01*
X192509044Y-21885172D01*
X192519744Y-21884075D01*
X192534899Y-21882316D01*
X192553085Y-21880081D01*
X192572875Y-21877555D01*
X192592844Y-21874925D01*
X192611568Y-21872378D01*
X192627619Y-21870098D01*
X192639573Y-21868272D01*
X192646005Y-21867087D01*
X192648842Y-21865810D01*
X192657804Y-21860661D01*
X192672326Y-21851701D01*
X192692281Y-21839015D01*
X192717541Y-21822688D01*
X192747979Y-21802805D01*
X192783466Y-21779450D01*
X192823875Y-21752709D01*
X192869079Y-21722666D01*
X192918949Y-21689407D01*
X192973359Y-21653015D01*
X193032181Y-21613577D01*
X193095287Y-21571176D01*
X193162549Y-21525898D01*
X193233839Y-21477828D01*
X193309032Y-21427050D01*
X193387997Y-21373649D01*
X193397249Y-21367389D01*
X193446560Y-21334031D01*
X193494229Y-21301800D01*
X193539935Y-21270910D01*
X193583360Y-21241578D01*
X193624185Y-21214019D01*
X193662089Y-21188447D01*
X193696755Y-21165077D01*
X193727862Y-21144126D01*
X193755091Y-21125807D01*
X193778122Y-21110337D01*
X193796638Y-21097929D01*
X193810318Y-21088801D01*
X193818843Y-21083166D01*
X193821894Y-21081240D01*
X193821921Y-21081252D01*
X193822332Y-21085053D01*
X193822686Y-21095215D01*
X193822984Y-21111136D01*
X193823228Y-21132216D01*
X193823419Y-21157854D01*
X193823560Y-21187451D01*
X193823651Y-21220405D01*
X193823695Y-21256116D01*
X193823693Y-21293984D01*
X193823647Y-21333407D01*
X193823557Y-21373786D01*
X193823427Y-21414519D01*
X193823257Y-21455007D01*
X193823049Y-21494648D01*
X193822805Y-21532842D01*
X193822525Y-21568989D01*
X193822213Y-21602488D01*
X193821869Y-21632738D01*
X193821496Y-21659139D01*
X193821094Y-21681091D01*
X193820665Y-21697992D01*
X193820211Y-21709243D01*
X193819589Y-21719890D01*
X193817428Y-21750961D01*
X193814944Y-21776071D01*
X193811906Y-21796016D01*
X193808080Y-21811593D01*
X193803234Y-21823598D01*
X193797136Y-21832828D01*
X193789553Y-21840078D01*
X193780254Y-21846146D01*
X193777743Y-21847493D01*
X193764619Y-21852912D01*
X193748170Y-21857204D01*
X193727483Y-21860525D01*
X193701644Y-21863029D01*
X193669739Y-21864870D01*
X193669293Y-21864890D01*
X193661648Y-21865379D01*
X193660859Y-21865834D01*
X193666791Y-21866255D01*
X193679308Y-21866637D01*
X193698274Y-21866980D01*
X193723554Y-21867280D01*
X193755013Y-21867535D01*
X193792515Y-21867742D01*
X193835923Y-21867900D01*
X193843248Y-21867922D01*
X193881768Y-21868075D01*
X193918238Y-21868283D01*
X193952042Y-21868538D01*
X193982559Y-21868832D01*
X194009172Y-21869158D01*
X194031262Y-21869509D01*
X194048211Y-21869877D01*
X194059399Y-21870255D01*
X194064208Y-21870635D01*
X194069266Y-21871194D01*
X194072080Y-21869360D01*
X194071325Y-21868736D01*
X194065047Y-21867384D01*
X194053233Y-21866080D01*
X194036879Y-21864922D01*
X194016977Y-21864006D01*
X193989794Y-21862692D01*
X193961822Y-21860243D01*
X193939344Y-21856719D01*
X193921550Y-21851945D01*
X193907632Y-21845745D01*
X193896781Y-21837943D01*
X193893514Y-21834880D01*
X193889548Y-21830605D01*
X193886022Y-21825764D01*
X193882908Y-21819954D01*
X193880179Y-21812774D01*
X193877804Y-21803822D01*
X193875757Y-21792696D01*
X193874008Y-21778993D01*
X193872530Y-21762313D01*
X193871294Y-21742252D01*
X193870271Y-21718410D01*
X193869434Y-21690384D01*
X193868753Y-21657772D01*
X193868202Y-21620172D01*
X193867750Y-21577183D01*
X193867370Y-21528403D01*
X193867034Y-21473429D01*
X193866712Y-21411860D01*
X193866544Y-21375918D01*
X193866326Y-21318605D01*
X193866206Y-21267955D01*
X193866186Y-21223754D01*
X193866267Y-21185792D01*
X193866451Y-21153854D01*
X193866738Y-21127728D01*
X193867131Y-21107203D01*
X193867630Y-21092065D01*
X193868238Y-21082102D01*
X193868955Y-21077102D01*
X193869578Y-21075235D01*
X193877559Y-21061733D01*
X193890700Y-21048677D01*
X193907456Y-21037359D01*
X193926284Y-21029073D01*
X193943702Y-21024320D01*
X193973329Y-21019119D01*
X194007494Y-21015881D01*
X194044874Y-21014766D01*
X194057512Y-21014613D01*
X194070486Y-21014063D01*
X194079316Y-21013206D01*
X194082577Y-21012142D01*
X194081842Y-21011912D01*
X194075437Y-21011455D01*
X194062975Y-21011063D01*
X194045100Y-21010739D01*
X194022453Y-21010492D01*
X193995680Y-21010326D01*
X193965422Y-21010248D01*
X193932322Y-21010264D01*
X193897025Y-21010380D01*
X193711472Y-21011242D01*
X193530543Y-21138390D01*
X193506640Y-21155129D01*
X193476470Y-21176139D01*
X193442353Y-21199801D01*
X193404801Y-21225765D01*
X193364323Y-21253683D01*
X193321431Y-21283205D01*
X193276635Y-21313982D01*
X193230446Y-21345667D01*
X193183375Y-21377909D01*
X193135932Y-21410361D01*
X193088628Y-21442673D01*
X193041975Y-21474496D01*
X192996482Y-21505482D01*
X192952660Y-21535282D01*
X192911020Y-21563546D01*
X192872073Y-21589927D01*
X192836330Y-21614075D01*
X192804301Y-21635641D01*
X192776497Y-21654277D01*
X192753429Y-21669633D01*
X192735607Y-21681362D01*
X192731546Y-21683994D01*
X192716433Y-21693634D01*
X192697889Y-21705290D01*
X192676954Y-21718325D01*
X192654668Y-21732100D01*
X192632071Y-21745979D01*
X192610201Y-21759325D01*
X192590100Y-21771500D01*
X192572807Y-21781867D01*
X192559360Y-21789789D01*
X192550801Y-21794628D01*
X192542676Y-21798975D01*
X192544249Y-21470720D01*
X192544330Y-21454388D01*
X192544713Y-21388562D01*
X192545155Y-21329551D01*
X192545656Y-21277380D01*
X192546216Y-21232069D01*
X192546834Y-21193643D01*
X192547509Y-21162123D01*
X192548242Y-21137532D01*
X192549032Y-21119893D01*
X192549879Y-21109229D01*
X192550375Y-21105360D01*
X192555454Y-21078986D01*
X192563061Y-21058514D01*
X192573672Y-21043230D01*
X192587763Y-21032422D01*
X192605811Y-21025374D01*
X192608954Y-21024593D01*
X192625243Y-21021592D01*
X192646035Y-21018920D01*
X192669336Y-21016768D01*
X192693152Y-21015329D01*
X192715489Y-21014795D01*
X192724867Y-21014685D01*
X192737608Y-21014146D01*
X192746353Y-21013259D01*
X192749601Y-21012142D01*
X192749134Y-21011973D01*
X192743307Y-21011530D01*
X192731276Y-21011113D01*
X192713625Y-21010730D01*
X192690932Y-21010388D01*
X192663780Y-21010092D01*
X192632749Y-21009851D01*
X192598419Y-21009671D01*
X192561373Y-21009557D01*
X192522192Y-21009518D01*
X192507581Y-21009522D01*
X192469116Y-21009577D01*
X192433001Y-21009689D01*
X192399816Y-21009854D01*
X192370143Y-21010065D01*
X192344562Y-21010319D01*
X192323654Y-21010608D01*
X192308001Y-21010928D01*
X192298183Y-21011274D01*
X192294781Y-21011640D01*
X192228306Y-21011640D01*
X192228306Y-21011424D01*
X192228304Y-21010794D01*
X192228102Y-21004437D01*
X192227876Y-20998886D01*
X192228065Y-20994085D01*
X192229108Y-20989979D01*
X192231444Y-20986514D01*
X192235511Y-20983635D01*
X192241749Y-20981286D01*
X192250596Y-20979412D01*
X192262491Y-20977960D01*
X192277872Y-20976873D01*
X192297179Y-20976098D01*
X192320851Y-20975578D01*
X192349325Y-20975259D01*
X192383041Y-20975086D01*
X192422437Y-20975005D01*
X192467953Y-20974959D01*
X192520027Y-20974895D01*
X192789835Y-20974448D01*
X192802955Y-20982406D01*
X192803851Y-20982951D01*
X192810788Y-20987638D01*
X192814432Y-20992354D01*
X192815841Y-20999422D01*
X192816075Y-21011164D01*
X192816075Y-21031964D01*
X192801206Y-21040460D01*
X192795913Y-21043278D01*
X192790144Y-21045581D01*
X192783152Y-21047287D01*
X192773782Y-21048548D01*
X192760880Y-21049517D01*
X192743292Y-21050346D01*
X192719863Y-21051186D01*
X192700232Y-21051877D01*
X192677309Y-21052851D01*
X192659911Y-21053915D01*
X192647169Y-21055197D01*
X192638214Y-21056824D01*
X192632179Y-21058923D01*
X192628195Y-21061621D01*
X192625393Y-21065048D01*
X192623444Y-21069056D01*
X192619985Y-21082035D01*
X192616915Y-21101869D01*
X192614238Y-21128472D01*
X192611957Y-21161756D01*
X192610077Y-21201636D01*
X192608601Y-21248024D01*
X192607532Y-21300834D01*
X192606875Y-21359980D01*
X192606633Y-21425374D01*
X192606810Y-21496930D01*
X192607907Y-21707951D01*
X192662135Y-21673436D01*
X192664282Y-21672066D01*
X192681075Y-21661174D01*
X192703077Y-21646674D01*
X192729815Y-21628887D01*
X192760818Y-21608135D01*
X192795614Y-21584740D01*
X192833733Y-21559023D01*
X192874701Y-21531306D01*
X192918048Y-21501910D01*
X192963302Y-21471158D01*
X193009990Y-21439371D01*
X193057643Y-21406870D01*
X193105787Y-21373977D01*
X193153951Y-21341014D01*
X193201664Y-21308303D01*
X193248454Y-21276164D01*
X193293849Y-21244920D01*
X193337377Y-21214893D01*
X193378568Y-21186404D01*
X193416948Y-21159774D01*
X193452048Y-21135326D01*
X193483394Y-21113380D01*
X193680148Y-20975196D01*
X193901479Y-20974608D01*
X194122810Y-20974019D01*
X194136093Y-20982294D01*
X194149376Y-20990569D01*
X194148341Y-21012142D01*
X194148339Y-21012194D01*
G37*
%TD*%
M02*
