%TF.GenerationSoftware,KiCad,Pcbnew,7.0.2*%
%TF.CreationDate,2024-12-03T13:42:56-08:00*%
%TF.ProjectId,AA_P_CtrlBd,41415f50-5f43-4747-926c-42642e6b6963,1.0*%
%TF.SameCoordinates,Original*%
%TF.FileFunction,Plated,1,4,PTH,Mixed*%
%TF.FilePolarity,Positive*%
%FSLAX46Y46*%
G04 Gerber Fmt 4.6, Leading zero omitted, Abs format (unit mm)*
G04 Created by KiCad (PCBNEW 7.0.2) date 2024-12-03 13:42:56*
%MOMM*%
%LPD*%
G01*
G04 APERTURE LIST*
%TA.AperFunction,ViaDrill*%
%ADD10C,0.300000*%
%TD*%
%TA.AperFunction,ViaDrill*%
%ADD11C,0.400000*%
%TD*%
G04 aperture for slot hole*
%TA.AperFunction,ComponentDrill*%
%ADD12O,0.600000X1.400000*%
%TD*%
G04 aperture for slot hole*
%TA.AperFunction,ComponentDrill*%
%ADD13O,0.600000X1.700000*%
%TD*%
%TA.AperFunction,ComponentDrill*%
%ADD14C,0.600000*%
%TD*%
%TA.AperFunction,ComponentDrill*%
%ADD15C,0.750000*%
%TD*%
%TA.AperFunction,ComponentDrill*%
%ADD16C,0.850000*%
%TD*%
%TA.AperFunction,ComponentDrill*%
%ADD17C,0.870000*%
%TD*%
%TA.AperFunction,ComponentDrill*%
%ADD18C,1.000000*%
%TD*%
%TA.AperFunction,ComponentDrill*%
%ADD19C,1.020000*%
%TD*%
%TA.AperFunction,ComponentDrill*%
%ADD20C,1.190000*%
%TD*%
%TA.AperFunction,ComponentDrill*%
%ADD21C,1.200000*%
%TD*%
G04 APERTURE END LIST*
D10*
X96909480Y-69857480D03*
X97790000Y-58592000D03*
X99095767Y-60710233D03*
X101894000Y-58674000D03*
X105254354Y-60654570D03*
X106728000Y-52078000D03*
X107126500Y-57704000D03*
X107702000Y-67304000D03*
X110102000Y-50304000D03*
X110127500Y-51882500D03*
X117502000Y-120304000D03*
X119102000Y-88504000D03*
X122102000Y-85104000D03*
X130302000Y-132704000D03*
X137302000Y-128504000D03*
X137902000Y-106904000D03*
X138102000Y-86104000D03*
X138102000Y-104104000D03*
X144102000Y-90704000D03*
X144302000Y-99104000D03*
X145502000Y-83704000D03*
X145502000Y-98504000D03*
X146302000Y-83104000D03*
X146302000Y-97904000D03*
X147102000Y-82104000D03*
X148659017Y-109734517D03*
X153702000Y-56304000D03*
X157502000Y-111904000D03*
X157902000Y-81704000D03*
X157902000Y-97904000D03*
X158702000Y-81304000D03*
X158702000Y-98504000D03*
X159102000Y-108104000D03*
X159302000Y-81704000D03*
X159302000Y-97904000D03*
X159902000Y-99504000D03*
X161902000Y-104504000D03*
X162502000Y-127504000D03*
X162902000Y-105904000D03*
X166302000Y-81704000D03*
X167102000Y-37304000D03*
X167502000Y-105304000D03*
X167502000Y-109704000D03*
X168702000Y-109704000D03*
X169926000Y-116304000D03*
X170302000Y-84202000D03*
X170609275Y-88611274D03*
X172302000Y-104704000D03*
X173702000Y-109704000D03*
X174102000Y-58704000D03*
X176102000Y-84104000D03*
X178902000Y-84704000D03*
X185902000Y-108504000D03*
X186902000Y-96104000D03*
D11*
X92936694Y-36063625D03*
X93258000Y-55372000D03*
X103902000Y-72104000D03*
X103902000Y-85304000D03*
X104823306Y-125204369D03*
X105131241Y-122593360D03*
X108800199Y-55857797D03*
X114050685Y-120077325D03*
X115902000Y-92704000D03*
X132702000Y-109104000D03*
X145302000Y-118304000D03*
X155702000Y-112547250D03*
X170982000Y-68834000D03*
X172502000Y-114904000D03*
X177502000Y-114904000D03*
D12*
%TO.C,J19*%
X99793156Y-37027242D03*
D13*
X99793156Y-41207242D03*
D12*
X108433156Y-37027242D03*
D13*
X108433156Y-41207242D03*
D14*
%TO.C,J21*%
X113586000Y-108254000D03*
X113586000Y-109504000D03*
X113586000Y-110754000D03*
X113586000Y-112004000D03*
X113586000Y-113254000D03*
X113586000Y-114504000D03*
%TO.C,J16*%
X124507909Y-92950805D03*
X124507909Y-94200805D03*
X124507909Y-95450805D03*
X124507909Y-96700805D03*
X124507909Y-97950805D03*
X124507909Y-99200805D03*
%TO.C,J36*%
X186095000Y-54630000D03*
X186095000Y-55880000D03*
%TO.C,J35*%
X186095000Y-61234000D03*
X186095000Y-62484000D03*
%TO.C,J28*%
X189598173Y-124502976D03*
X190848173Y-124502976D03*
X192098173Y-124502976D03*
X193348173Y-124502976D03*
D15*
%TO.C,J1*%
X92750000Y-74168000D03*
%TO.C,J2*%
X92750000Y-80451200D03*
%TO.C,J5*%
X92782000Y-100100800D03*
%TO.C,J6*%
X92782000Y-106384000D03*
%TO.C,J1*%
X94750000Y-74168000D03*
%TO.C,J2*%
X94750000Y-80451200D03*
%TO.C,J5*%
X94782000Y-100100800D03*
%TO.C,J6*%
X94782000Y-106384000D03*
%TO.C,J1*%
X96750000Y-74168000D03*
%TO.C,J2*%
X96750000Y-80451200D03*
%TO.C,J5*%
X96782000Y-100100800D03*
%TO.C,J6*%
X96782000Y-106384000D03*
D16*
%TO.C,J3*%
X93258000Y-88134400D03*
%TO.C,J4*%
X93258000Y-94817600D03*
%TO.C,J3*%
X95758000Y-88134400D03*
%TO.C,J4*%
X95758000Y-94817600D03*
%TO.C,J3*%
X98258000Y-88134400D03*
%TO.C,J4*%
X98258000Y-94817600D03*
D17*
%TO.C,J13*%
X122722000Y-128016000D03*
X124222000Y-128016000D03*
X125722000Y-128016000D03*
%TO.C,J27*%
X188834000Y-131572000D03*
X190334000Y-131572000D03*
X191834000Y-131572000D03*
X193334000Y-131572000D03*
D18*
%TO.C,OP4*%
X92735000Y-47752000D03*
%TO.C,J15*%
X92745000Y-59944000D03*
X92745000Y-62484000D03*
X92745000Y-65024000D03*
X92745000Y-67564000D03*
%TO.C,J12*%
X92750000Y-113792000D03*
X92750000Y-116332000D03*
X92750000Y-118872000D03*
X92750000Y-121412000D03*
X92750000Y-123952000D03*
X92750000Y-126492000D03*
X92750000Y-129032000D03*
X92750000Y-131572000D03*
X92750000Y-134112000D03*
X92750000Y-136652000D03*
%TO.C,OP4*%
X95275000Y-47752000D03*
%TO.C,J15*%
X95285000Y-59944000D03*
X95285000Y-62484000D03*
X95285000Y-65024000D03*
X95285000Y-67564000D03*
%TO.C,J12*%
X95290000Y-113792000D03*
X95290000Y-116332000D03*
X95290000Y-118872000D03*
X95290000Y-121412000D03*
X95290000Y-123952000D03*
X95290000Y-126492000D03*
X95290000Y-129032000D03*
X95290000Y-131572000D03*
X95290000Y-134112000D03*
X95290000Y-136652000D03*
%TO.C,OP4*%
X97815000Y-47752000D03*
%TO.C,JP3*%
X105958000Y-109220000D03*
X105958000Y-111760000D03*
%TO.C,SPARE2*%
X108503000Y-137160000D03*
X108503000Y-139700000D03*
%TO.C,SPARE1*%
X108503000Y-142240000D03*
%TO.C,OP3*%
X109387000Y-75072000D03*
X109387000Y-77612000D03*
X109387000Y-80152000D03*
%TO.C,OP5*%
X110974912Y-101610729D03*
%TO.C,SPARE2*%
X111043000Y-137160000D03*
X111043000Y-139700000D03*
%TO.C,SPARE1*%
X111043000Y-142240000D03*
%TO.C,OP5*%
X113514912Y-101610729D03*
%TO.C,SPARE2*%
X113583000Y-137160000D03*
X113583000Y-139700000D03*
%TO.C,SPARE1*%
X113583000Y-142240000D03*
%TO.C,OP5*%
X116054912Y-101610729D03*
%TO.C,SPARE2*%
X116123000Y-137160000D03*
X116123000Y-139700000D03*
%TO.C,SPARE1*%
X116123000Y-142240000D03*
%TO.C,SPARE2*%
X118663000Y-137160000D03*
X118663000Y-139700000D03*
%TO.C,SPARE1*%
X118663000Y-142240000D03*
%TO.C,J9*%
X120690000Y-123063000D03*
%TO.C,SPARE2*%
X121203000Y-137160000D03*
X121203000Y-139700000D03*
%TO.C,SPARE1*%
X121203000Y-142240000D03*
%TO.C,OP2*%
X123179820Y-78741539D03*
%TO.C,J9*%
X123230000Y-123063000D03*
%TO.C,J22*%
X123738000Y-108189000D03*
X123738000Y-110729000D03*
X123738000Y-113269000D03*
%TO.C,SPARE2*%
X123743000Y-137160000D03*
X123743000Y-139700000D03*
%TO.C,SPARE1*%
X123743000Y-142240000D03*
%TO.C,JP1*%
X124246000Y-48763000D03*
X124246000Y-51303000D03*
%TO.C,OP2*%
X125719820Y-78741539D03*
%TO.C,J9*%
X125770000Y-123063000D03*
%TO.C,SPARE2*%
X126283000Y-137160000D03*
X126283000Y-139700000D03*
%TO.C,SPARE1*%
X126283000Y-142240000D03*
%TO.C,OP2*%
X128259820Y-78741539D03*
%TO.C,J17*%
X128310000Y-81280000D03*
%TO.C,J18*%
X128310000Y-84328000D03*
%TO.C,SPARE2*%
X128823000Y-137160000D03*
X128823000Y-139700000D03*
%TO.C,SPARE1*%
X128823000Y-142240000D03*
%TO.C,J14*%
X129961000Y-92329000D03*
X129961000Y-94869000D03*
X129961000Y-97409000D03*
X129961000Y-99949000D03*
%TO.C,SPARE2*%
X131363000Y-137160000D03*
X131363000Y-139700000D03*
%TO.C,SPARE1*%
X131363000Y-142240000D03*
%TO.C,OP1*%
X133913000Y-122428000D03*
%TO.C,JP2*%
X134914000Y-94991000D03*
X134914000Y-97531000D03*
%TO.C,OP1*%
X136453000Y-122428000D03*
%TO.C,J29*%
X138419200Y-136144000D03*
X138419200Y-138684000D03*
%TO.C,OP1*%
X138993000Y-122428000D03*
%TO.C,J29*%
X140959200Y-136144000D03*
X140959200Y-138684000D03*
X143499200Y-136144000D03*
X143499200Y-138684000D03*
X146039200Y-136144000D03*
X146039200Y-138684000D03*
X148579200Y-136144000D03*
X148579200Y-138684000D03*
X151119200Y-136144000D03*
X151119200Y-138684000D03*
X153659200Y-136144000D03*
X153659200Y-138684000D03*
X156199200Y-136144000D03*
X156199200Y-138684000D03*
X158739200Y-136144000D03*
X158739200Y-138684000D03*
X161279200Y-136144000D03*
X161279200Y-138684000D03*
%TO.C,OP6*%
X165760000Y-95123000D03*
X168300000Y-95123000D03*
X170840000Y-95123000D03*
%TO.C,JP4*%
X171570709Y-61333099D03*
%TO.C,J23*%
X173014000Y-46736000D03*
X173014000Y-49276000D03*
%TO.C,JP4*%
X174110709Y-61333099D03*
%TO.C,J20*%
X178602000Y-36957000D03*
X178602000Y-39497000D03*
%TO.C,J24*%
X185714000Y-46736000D03*
X185714000Y-49276000D03*
%TO.C,J26*%
X185714000Y-136906000D03*
X188254000Y-136906000D03*
%TO.C,J33*%
X190159000Y-67564000D03*
%TO.C,J32*%
X190159000Y-72136000D03*
%TO.C,J31*%
X190159000Y-76708000D03*
%TO.C,J30*%
X190159000Y-81280000D03*
%TO.C,J34*%
X190159000Y-86487000D03*
X190159000Y-89027000D03*
X190159000Y-91567000D03*
X190159000Y-94107000D03*
X190159000Y-96647000D03*
X190159000Y-99187000D03*
X190159000Y-101727000D03*
X190159000Y-104267000D03*
X190159000Y-106807000D03*
X190159000Y-109347000D03*
%TO.C,J26*%
X190794000Y-136906000D03*
%TO.C,J33*%
X192699000Y-67564000D03*
%TO.C,J32*%
X192699000Y-72136000D03*
%TO.C,J31*%
X192699000Y-76708000D03*
%TO.C,J30*%
X192699000Y-81280000D03*
%TO.C,J34*%
X192699000Y-86487000D03*
X192699000Y-89027000D03*
X192699000Y-91567000D03*
X192699000Y-94107000D03*
X192699000Y-96647000D03*
X192699000Y-99187000D03*
X192699000Y-101727000D03*
X192699000Y-104267000D03*
X192699000Y-106807000D03*
X192699000Y-109347000D03*
%TO.C,JP5*%
X193329000Y-48768000D03*
%TO.C,J26*%
X193334000Y-136906000D03*
%TO.C,J33*%
X195239000Y-67564000D03*
%TO.C,J32*%
X195239000Y-72136000D03*
%TO.C,J31*%
X195239000Y-76708000D03*
%TO.C,J30*%
X195239000Y-81280000D03*
%TO.C,J37*%
X195239000Y-86487000D03*
X195239000Y-89027000D03*
X195239000Y-91567000D03*
X195239000Y-94107000D03*
X195239000Y-96647000D03*
X195239000Y-99187000D03*
X195239000Y-101727000D03*
X195239000Y-104267000D03*
X195239000Y-106807000D03*
X195239000Y-109347000D03*
%TO.C,JP5*%
X195869000Y-48768000D03*
D19*
%TO.C,U5*%
X143764000Y-35942000D03*
X143764000Y-38482000D03*
X143764000Y-41022000D03*
X143764000Y-43562000D03*
X143764000Y-46102000D03*
X143764000Y-48642000D03*
X143764000Y-51182000D03*
X143764000Y-53722000D03*
X143764000Y-56262000D03*
X143764000Y-58802000D03*
X143764000Y-61342000D03*
X143764000Y-63882000D03*
X143764000Y-66422000D03*
X143764000Y-68962000D03*
X143764000Y-71502000D03*
X143764000Y-74042000D03*
X143764000Y-76582000D03*
X143764000Y-79122000D03*
X143764000Y-81662000D03*
X143764000Y-84202000D03*
X150118000Y-84242000D03*
X152658000Y-84242000D03*
X155198000Y-84242000D03*
X161544000Y-35942000D03*
X161544000Y-38482000D03*
X161544000Y-41022000D03*
X161544000Y-43562000D03*
X161544000Y-46102000D03*
X161544000Y-48642000D03*
X161544000Y-51182000D03*
X161544000Y-53722000D03*
X161544000Y-56262000D03*
X161544000Y-58802000D03*
X161544000Y-61342000D03*
X161544000Y-63882000D03*
X161544000Y-66422000D03*
X161544000Y-68962000D03*
X161544000Y-71502000D03*
X161544000Y-74042000D03*
X161544000Y-76582000D03*
X161544000Y-79122000D03*
X161544000Y-81662000D03*
X161544000Y-84202000D03*
D20*
%TO.C,J10*%
X115102000Y-49637000D03*
X117642000Y-49637000D03*
X120182000Y-49637000D03*
%TO.C,J11*%
X128310000Y-49637000D03*
X130850000Y-49637000D03*
X133390000Y-49637000D03*
%TO.C,J25*%
X183555000Y-37719000D03*
X186095000Y-37719000D03*
X188635000Y-37719000D03*
%TO.C,J38*%
X189016000Y-116606000D03*
X191556000Y-116606000D03*
X194096000Y-116606000D03*
D21*
%TO.C,J7*%
X115904000Y-39578000D03*
X120904000Y-39578000D03*
%TO.C,J8*%
X127080000Y-39578000D03*
X132080000Y-39578000D03*
M02*
