%TF.GenerationSoftware,KiCad,Pcbnew,7.0.2*%
%TF.CreationDate,2025-06-08T11:20:15-07:00*%
%TF.ProjectId,AA_PwrSens_Dist,41415f50-7772-4536-956e-735f44697374,rev?*%
%TF.SameCoordinates,Original*%
%TF.FileFunction,Paste,Top*%
%TF.FilePolarity,Positive*%
%FSLAX46Y46*%
G04 Gerber Fmt 4.6, Leading zero omitted, Abs format (unit mm)*
G04 Created by KiCad (PCBNEW 7.0.2) date 2025-06-08 11:20:15*
%MOMM*%
%LPD*%
G01*
G04 APERTURE LIST*
G04 Aperture macros list*
%AMRoundRect*
0 Rectangle with rounded corners*
0 $1 Rounding radius*
0 $2 $3 $4 $5 $6 $7 $8 $9 X,Y pos of 4 corners*
0 Add a 4 corners polygon primitive as box body*
4,1,4,$2,$3,$4,$5,$6,$7,$8,$9,$2,$3,0*
0 Add four circle primitives for the rounded corners*
1,1,$1+$1,$2,$3*
1,1,$1+$1,$4,$5*
1,1,$1+$1,$6,$7*
1,1,$1+$1,$8,$9*
0 Add four rect primitives between the rounded corners*
20,1,$1+$1,$2,$3,$4,$5,0*
20,1,$1+$1,$4,$5,$6,$7,0*
20,1,$1+$1,$6,$7,$8,$9,0*
20,1,$1+$1,$8,$9,$2,$3,0*%
G04 Aperture macros list end*
%ADD10R,1.560000X0.650000*%
%ADD11R,0.400000X1.500000*%
%ADD12RoundRect,0.150000X0.512500X0.150000X-0.512500X0.150000X-0.512500X-0.150000X0.512500X-0.150000X0*%
%ADD13R,0.650000X1.560000*%
%ADD14R,1.500000X0.400000*%
%ADD15RoundRect,0.150000X-0.150000X0.512500X-0.150000X-0.512500X0.150000X-0.512500X0.150000X0.512500X0*%
%ADD16RoundRect,0.381000X-0.381000X0.381000X-0.381000X-0.381000X0.381000X-0.381000X0.381000X0.381000X0*%
%ADD17R,2.032000X1.524000*%
%ADD18RoundRect,0.250000X0.350000X0.450000X-0.350000X0.450000X-0.350000X-0.450000X0.350000X-0.450000X0*%
%ADD19RoundRect,0.237500X0.237500X-0.300000X0.237500X0.300000X-0.237500X0.300000X-0.237500X-0.300000X0*%
%ADD20RoundRect,0.225000X-0.225000X-0.375000X0.225000X-0.375000X0.225000X0.375000X-0.225000X0.375000X0*%
%ADD21RoundRect,0.250000X-0.350000X-0.450000X0.350000X-0.450000X0.350000X0.450000X-0.350000X0.450000X0*%
%ADD22RoundRect,0.250000X-0.650000X1.000000X-0.650000X-1.000000X0.650000X-1.000000X0.650000X1.000000X0*%
%ADD23RoundRect,0.237500X0.300000X0.237500X-0.300000X0.237500X-0.300000X-0.237500X0.300000X-0.237500X0*%
%ADD24RoundRect,0.250000X0.600000X-0.400000X0.600000X0.400000X-0.600000X0.400000X-0.600000X-0.400000X0*%
%ADD25RoundRect,0.225000X-0.375000X0.225000X-0.375000X-0.225000X0.375000X-0.225000X0.375000X0.225000X0*%
%ADD26RoundRect,0.237500X-0.300000X-0.237500X0.300000X-0.237500X0.300000X0.237500X-0.300000X0.237500X0*%
%ADD27RoundRect,0.250000X0.450000X-0.350000X0.450000X0.350000X-0.450000X0.350000X-0.450000X-0.350000X0*%
%ADD28RoundRect,0.250000X0.650000X-1.000000X0.650000X1.000000X-0.650000X1.000000X-0.650000X-1.000000X0*%
%ADD29RoundRect,0.250000X0.325000X0.450000X-0.325000X0.450000X-0.325000X-0.450000X0.325000X-0.450000X0*%
%ADD30RoundRect,0.150000X0.150000X-0.512500X0.150000X0.512500X-0.150000X0.512500X-0.150000X-0.512500X0*%
%ADD31RoundRect,0.250000X-0.450000X0.350000X-0.450000X-0.350000X0.450000X-0.350000X0.450000X0.350000X0*%
%ADD32RoundRect,0.237500X-0.237500X0.300000X-0.237500X-0.300000X0.237500X-0.300000X0.237500X0.300000X0*%
%ADD33RoundRect,0.150000X-0.587500X-0.150000X0.587500X-0.150000X0.587500X0.150000X-0.587500X0.150000X0*%
%ADD34RoundRect,0.150000X0.150000X-0.825000X0.150000X0.825000X-0.150000X0.825000X-0.150000X-0.825000X0*%
%ADD35R,1.310000X0.650000*%
%ADD36R,1.310000X0.600000*%
%ADD37R,0.795000X0.900000*%
%ADD38RoundRect,0.250000X0.400000X0.600000X-0.400000X0.600000X-0.400000X-0.600000X0.400000X-0.600000X0*%
%ADD39RoundRect,0.075000X-0.650000X-0.075000X0.650000X-0.075000X0.650000X0.075000X-0.650000X0.075000X0*%
G04 APERTURE END LIST*
D10*
%TO.C,REF\u002A\u002A*%
X118599500Y-61629000D03*
X118599500Y-60679000D03*
X118599500Y-59729000D03*
X115899500Y-59729000D03*
X115899500Y-61629000D03*
%TD*%
D11*
%TO.C,REF\u002A\u002A*%
X116599500Y-54389000D03*
X117249500Y-54389000D03*
X117899500Y-54389000D03*
X117899500Y-51729000D03*
X117249500Y-51729000D03*
X116599500Y-51729000D03*
%TD*%
D12*
%TO.C,REF\u002A\u002A*%
X118387000Y-47913000D03*
X118387000Y-46013000D03*
X116112000Y-46963000D03*
%TD*%
D10*
%TO.C,REF\u002A\u002A*%
X115889500Y-41944000D03*
X115889500Y-42894000D03*
X115889500Y-43844000D03*
X118589500Y-43844000D03*
X118589500Y-41944000D03*
%TD*%
D13*
%TO.C,REF\u002A\u002A*%
X204623000Y-123464000D03*
X203673000Y-123464000D03*
X202723000Y-123464000D03*
X202723000Y-126164000D03*
X204623000Y-126164000D03*
%TD*%
D14*
%TO.C,REF\u002A\u002A*%
X197383000Y-125464000D03*
X197383000Y-124814000D03*
X197383000Y-124164000D03*
X194723000Y-124164000D03*
X194723000Y-124814000D03*
X194723000Y-125464000D03*
%TD*%
D15*
%TO.C,REF\u002A\u002A*%
X190907000Y-123676500D03*
X189007000Y-123676500D03*
X189957000Y-125951500D03*
%TD*%
D13*
%TO.C,REF\u002A\u002A*%
X184938000Y-126174000D03*
X185888000Y-126174000D03*
X186838000Y-126174000D03*
X186838000Y-123474000D03*
X184938000Y-123474000D03*
%TD*%
D16*
%TO.C,Mod1*%
X187925000Y-16991000D03*
D17*
X186528000Y-16991000D03*
D16*
X187925000Y-19531000D03*
D17*
X186528000Y-19531000D03*
D16*
X187925000Y-22071000D03*
D17*
X186528000Y-22071000D03*
D16*
X187925000Y-24611000D03*
D17*
X186528000Y-24611000D03*
D16*
X187925000Y-27151000D03*
D17*
X186528000Y-27151000D03*
D16*
X187925000Y-29691000D03*
D17*
X186528000Y-29691000D03*
D16*
X187925000Y-32231000D03*
D17*
X186528000Y-32231000D03*
D16*
X187925000Y-34771000D03*
D17*
X186528000Y-34771000D03*
D16*
X187925000Y-37311000D03*
D17*
X186528000Y-37311000D03*
D16*
X187925000Y-39851000D03*
D17*
X186528000Y-39851000D03*
D16*
X187925000Y-42391000D03*
D17*
X186528000Y-42391000D03*
D16*
X187925000Y-44931000D03*
D17*
X186528000Y-44931000D03*
D16*
X187925000Y-47471000D03*
D17*
X186528000Y-47471000D03*
D16*
X203165000Y-47471000D03*
D17*
X204562000Y-47471000D03*
D16*
X203165000Y-44931000D03*
D17*
X204562000Y-44931000D03*
D16*
X203165000Y-42391000D03*
D17*
X204562000Y-42391000D03*
D16*
X203165000Y-39851000D03*
D17*
X204562000Y-39851000D03*
D16*
X203165000Y-37311000D03*
D17*
X204562000Y-37311000D03*
D16*
X203165000Y-34771000D03*
D17*
X204562000Y-34771000D03*
D16*
X203165000Y-32231000D03*
D17*
X204562000Y-32231000D03*
D16*
X203165000Y-29691000D03*
D17*
X204562000Y-29691000D03*
D16*
X203165000Y-27151000D03*
D17*
X204562000Y-27151000D03*
D16*
X203165000Y-24611000D03*
D17*
X204562000Y-24611000D03*
D16*
X203165000Y-22071000D03*
D17*
X204562000Y-22071000D03*
D16*
X203165000Y-19531000D03*
D17*
X204562000Y-19531000D03*
D16*
X203165000Y-16991000D03*
D17*
X204562000Y-16991000D03*
%TD*%
D18*
%TO.C,R24*%
X103073000Y-144880000D03*
X101073000Y-144880000D03*
%TD*%
D11*
%TO.C,U12*%
X183495000Y-19725000D03*
X182845000Y-19725000D03*
X182195000Y-19725000D03*
X182195000Y-22385000D03*
X182845000Y-22385000D03*
X183495000Y-22385000D03*
%TD*%
D19*
%TO.C,C9*%
X140681000Y-61541500D03*
X140681000Y-59816500D03*
%TD*%
D20*
%TO.C,D13*%
X72991000Y-38581000D03*
X76291000Y-38581000D03*
%TD*%
D11*
%TO.C,U11*%
X185751000Y-66708000D03*
X186401000Y-66708000D03*
X187051000Y-66708000D03*
X187051000Y-64048000D03*
X186401000Y-64048000D03*
X185751000Y-64048000D03*
%TD*%
D21*
%TO.C,R6*%
X133585000Y-21563000D03*
X135585000Y-21563000D03*
%TD*%
%TO.C,R14*%
X160890000Y-54075000D03*
X162890000Y-54075000D03*
%TD*%
D22*
%TO.C,D16*%
X102073000Y-99287000D03*
X102073000Y-103287000D03*
%TD*%
D23*
%TO.C,C5*%
X160847500Y-25881000D03*
X159122500Y-25881000D03*
%TD*%
D24*
%TO.C,D10*%
X157699000Y-71065000D03*
X157699000Y-67565000D03*
%TD*%
D25*
%TO.C,D7*%
X134331000Y-27787000D03*
X134331000Y-31087000D03*
%TD*%
D21*
%TO.C,R2*%
X82785000Y-21563000D03*
X84785000Y-21563000D03*
%TD*%
D26*
%TO.C,C1*%
X142497000Y-48741000D03*
X144222000Y-48741000D03*
%TD*%
D10*
%TO.C,U4*%
X105455000Y-23783000D03*
X105455000Y-22833000D03*
X105455000Y-21883000D03*
X102755000Y-21883000D03*
X102755000Y-23783000D03*
%TD*%
D27*
%TO.C,R10*%
X147539000Y-84301000D03*
X147539000Y-82301000D03*
%TD*%
D20*
%TO.C,D20*%
X204690000Y-57377000D03*
X207990000Y-57377000D03*
%TD*%
D25*
%TO.C,D4*%
X96231000Y-27787000D03*
X96231000Y-31087000D03*
%TD*%
D24*
%TO.C,D9*%
X160747000Y-71065000D03*
X160747000Y-67565000D03*
%TD*%
D21*
%TO.C,R19*%
X94215000Y-137895000D03*
X96215000Y-137895000D03*
%TD*%
D28*
%TO.C,D15*%
X102073000Y-94642000D03*
X102073000Y-90642000D03*
%TD*%
D29*
%TO.C,D17*%
X107416000Y-149960000D03*
X105366000Y-149960000D03*
%TD*%
D25*
%TO.C,D6*%
X121631000Y-27787000D03*
X121631000Y-31087000D03*
%TD*%
D27*
%TO.C,R8*%
X147539000Y-88438000D03*
X147539000Y-86438000D03*
%TD*%
%TO.C,R7*%
X142713000Y-88438000D03*
X142713000Y-86438000D03*
%TD*%
D30*
%TO.C,U9*%
X144049000Y-60795000D03*
X144999000Y-60795000D03*
X145949000Y-60795000D03*
X145949000Y-58520000D03*
X144049000Y-58520000D03*
%TD*%
D31*
%TO.C,R22*%
X83150000Y-159755000D03*
X83150000Y-161755000D03*
%TD*%
%TO.C,R1*%
X134443000Y-37835000D03*
X134443000Y-39835000D03*
%TD*%
D21*
%TO.C,R11*%
X81515000Y-137895000D03*
X83515000Y-137895000D03*
%TD*%
%TO.C,R5*%
X120885000Y-21563000D03*
X122885000Y-21563000D03*
%TD*%
D32*
%TO.C,C11*%
X168875000Y-29844500D03*
X168875000Y-31569500D03*
%TD*%
D31*
%TO.C,R17*%
X153635000Y-30977000D03*
X153635000Y-32977000D03*
%TD*%
D23*
%TO.C,C7*%
X102808500Y-153135000D03*
X101083500Y-153135000D03*
%TD*%
D10*
%TO.C,U5*%
X118155000Y-23783000D03*
X118155000Y-22833000D03*
X118155000Y-21883000D03*
X115455000Y-21883000D03*
X115455000Y-23783000D03*
%TD*%
D31*
%TO.C,R25*%
X197323000Y-62219000D03*
X197323000Y-64219000D03*
%TD*%
D10*
%TO.C,U3*%
X92755000Y-23783000D03*
X92755000Y-22833000D03*
X92755000Y-21883000D03*
X90055000Y-21883000D03*
X90055000Y-23783000D03*
%TD*%
D24*
%TO.C,D11*%
X154651000Y-71065000D03*
X154651000Y-67565000D03*
%TD*%
D33*
%TO.C,Q1*%
X198877000Y-55411000D03*
X198877000Y-57311000D03*
X200752000Y-56361000D03*
%TD*%
D27*
%TO.C,R28*%
X178273000Y-47963000D03*
X178273000Y-45963000D03*
%TD*%
D11*
%TO.C,U10*%
X191466000Y-66708000D03*
X192116000Y-66708000D03*
X192766000Y-66708000D03*
X192766000Y-64048000D03*
X192116000Y-64048000D03*
X191466000Y-64048000D03*
%TD*%
D26*
%TO.C,C6*%
X75937500Y-162025000D03*
X77662500Y-162025000D03*
%TD*%
D34*
%TO.C,U8*%
X159350000Y-34706000D03*
X160620000Y-34706000D03*
X161890000Y-34706000D03*
X163160000Y-34706000D03*
X163160000Y-29756000D03*
X161890000Y-29756000D03*
X160620000Y-29756000D03*
X159350000Y-29756000D03*
%TD*%
D31*
%TO.C,R26*%
X183226000Y-41264000D03*
X183226000Y-43264000D03*
%TD*%
%TO.C,R21*%
X83150000Y-155310000D03*
X83150000Y-157310000D03*
%TD*%
D18*
%TO.C,R23*%
X102946000Y-149960000D03*
X100946000Y-149960000D03*
%TD*%
D10*
%TO.C,U6*%
X130855000Y-23783000D03*
X130855000Y-22833000D03*
X130855000Y-21883000D03*
X128155000Y-21883000D03*
X128155000Y-23783000D03*
%TD*%
D35*
%TO.C,U7*%
X90435205Y-144879089D03*
X90435205Y-146149089D03*
X90435205Y-147419089D03*
D36*
X90435205Y-148689089D03*
D35*
X90434089Y-149960000D03*
X90434089Y-151230000D03*
D36*
X90434089Y-152500000D03*
D35*
X96124089Y-152500000D03*
X96124089Y-151230000D03*
X96124089Y-149960000D03*
X96125205Y-148689089D03*
X96125205Y-147419089D03*
X96125205Y-146149089D03*
X96125205Y-144879089D03*
D37*
X92617705Y-146034089D03*
X92617705Y-147534089D03*
X92617983Y-152006538D03*
X92617983Y-153506538D03*
X92618992Y-143052100D03*
X92618992Y-144552100D03*
X92620000Y-149029497D03*
X92620000Y-150529497D03*
X93942705Y-146034089D03*
X93942705Y-147534089D03*
X93942983Y-152006538D03*
X93942983Y-153506538D03*
X93943992Y-143052100D03*
X93943992Y-144552100D03*
X93945000Y-149029497D03*
X93945000Y-150529497D03*
%TD*%
D21*
%TO.C,R20*%
X94215000Y-158215000D03*
X96215000Y-158215000D03*
%TD*%
D18*
%TO.C,R15*%
X171653000Y-36803000D03*
X169653000Y-36803000D03*
%TD*%
D21*
%TO.C,R13*%
X81515000Y-141070000D03*
X83515000Y-141070000D03*
%TD*%
%TO.C,R3*%
X95485000Y-21563000D03*
X97485000Y-21563000D03*
%TD*%
D38*
%TO.C,D12*%
X172641000Y-51112000D03*
X169141000Y-51112000D03*
%TD*%
D20*
%TO.C,D14*%
X72991000Y-28421000D03*
X76291000Y-28421000D03*
%TD*%
D27*
%TO.C,R9*%
X142713000Y-84301000D03*
X142713000Y-82301000D03*
%TD*%
D25*
%TO.C,D5*%
X108931000Y-27787000D03*
X108931000Y-31087000D03*
%TD*%
D29*
%TO.C,D19*%
X107416000Y-144880000D03*
X105366000Y-144880000D03*
%TD*%
D23*
%TO.C,C8*%
X102808500Y-141705000D03*
X101083500Y-141705000D03*
%TD*%
D32*
%TO.C,C4*%
X108169000Y-96360500D03*
X108169000Y-98085500D03*
%TD*%
D33*
%TO.C,Q2*%
X193591500Y-55411000D03*
X193591500Y-57311000D03*
X195466500Y-56361000D03*
%TD*%
D27*
%TO.C,R16*%
X83150000Y-152865000D03*
X83150000Y-150865000D03*
%TD*%
D39*
%TO.C,U1*%
X141275000Y-43931000D03*
X141275000Y-44431000D03*
X141275000Y-44931000D03*
X141275000Y-45431000D03*
X141275000Y-45931000D03*
X145675000Y-45931000D03*
X145675000Y-45431000D03*
X145675000Y-44931000D03*
X145675000Y-44431000D03*
X145675000Y-43931000D03*
%TD*%
D31*
%TO.C,R27*%
X181575000Y-45963000D03*
X181575000Y-47963000D03*
%TD*%
D38*
%TO.C,D18*%
X78550000Y-156945000D03*
X75050000Y-156945000D03*
%TD*%
D24*
%TO.C,D21*%
X211801000Y-25345000D03*
X211801000Y-21845000D03*
%TD*%
D21*
%TO.C,R12*%
X81515000Y-144245000D03*
X83515000Y-144245000D03*
%TD*%
D10*
%TO.C,U2*%
X80055000Y-23783000D03*
X80055000Y-22833000D03*
X80055000Y-21883000D03*
X77355000Y-21883000D03*
X77355000Y-23783000D03*
%TD*%
D21*
%TO.C,R4*%
X108185000Y-21563000D03*
X110185000Y-21563000D03*
%TD*%
D26*
%TO.C,C10*%
X141977500Y-55599000D03*
X143702500Y-55599000D03*
%TD*%
M02*
