%TF.GenerationSoftware,KiCad,Pcbnew,7.0.2*%
%TF.CreationDate,2024-12-03T13:42:34-08:00*%
%TF.ProjectId,AA_P_CtrlBd,41415f50-5f43-4747-926c-42642e6b6963,1.0*%
%TF.SameCoordinates,Original*%
%TF.FileFunction,Soldermask,Bot*%
%TF.FilePolarity,Negative*%
%FSLAX46Y46*%
G04 Gerber Fmt 4.6, Leading zero omitted, Abs format (unit mm)*
G04 Created by KiCad (PCBNEW 7.0.2) date 2024-12-03 13:42:34*
%MOMM*%
%LPD*%
G01*
G04 APERTURE LIST*
G04 Aperture macros list*
%AMRoundRect*
0 Rectangle with rounded corners*
0 $1 Rounding radius*
0 $2 $3 $4 $5 $6 $7 $8 $9 X,Y pos of 4 corners*
0 Add a 4 corners polygon primitive as box body*
4,1,4,$2,$3,$4,$5,$6,$7,$8,$9,$2,$3,0*
0 Add four circle primitives for the rounded corners*
1,1,$1+$1,$2,$3*
1,1,$1+$1,$4,$5*
1,1,$1+$1,$6,$7*
1,1,$1+$1,$8,$9*
0 Add four rect primitives between the rounded corners*
20,1,$1+$1,$2,$3,$4,$5,0*
20,1,$1+$1,$4,$5,$6,$7,0*
20,1,$1+$1,$6,$7,$8,$9,0*
20,1,$1+$1,$8,$9,$2,$3,0*%
G04 Aperture macros list end*
%ADD10R,1.700000X1.700000*%
%ADD11O,1.700000X1.700000*%
%ADD12RoundRect,0.250000X-0.620000X-0.845000X0.620000X-0.845000X0.620000X0.845000X-0.620000X0.845000X0*%
%ADD13O,1.740000X2.190000*%
%ADD14RoundRect,0.225000X0.475000X-0.225000X0.475000X0.225000X-0.475000X0.225000X-0.475000X-0.225000X0*%
%ADD15O,1.400000X0.900000*%
%ADD16RoundRect,0.225000X0.225000X0.475000X-0.225000X0.475000X-0.225000X-0.475000X0.225000X-0.475000X0*%
%ADD17O,0.900000X1.400000*%
%ADD18RoundRect,0.250000X0.335000X0.685000X-0.335000X0.685000X-0.335000X-0.685000X0.335000X-0.685000X0*%
%ADD19O,1.170000X1.870000*%
%ADD20RoundRect,0.250000X0.620000X0.845000X-0.620000X0.845000X-0.620000X-0.845000X0.620000X-0.845000X0*%
%ADD21RoundRect,0.225000X-0.475000X0.225000X-0.475000X-0.225000X0.475000X-0.225000X0.475000X0.225000X0*%
%ADD22C,0.650000*%
%ADD23O,1.000000X1.800000*%
%ADD24O,1.000000X2.100000*%
%ADD25RoundRect,0.250000X-0.335000X-0.685000X0.335000X-0.685000X0.335000X0.685000X-0.335000X0.685000X0*%
%ADD26R,2.400000X2.400000*%
%ADD27C,2.400000*%
%ADD28RoundRect,0.250000X-0.350000X-0.625000X0.350000X-0.625000X0.350000X0.625000X-0.350000X0.625000X0*%
%ADD29O,1.200000X1.750000*%
%ADD30O,1.700000X1.850000*%
%ADD31RoundRect,0.250000X-0.600000X-0.675000X0.600000X-0.675000X0.600000X0.675000X-0.600000X0.675000X0*%
%ADD32C,3.200000*%
%ADD33O,1.800000X1.800000*%
%ADD34O,1.500000X1.500000*%
G04 APERTURE END LIST*
D10*
%TO.C,SPARE1*%
X108503000Y-142240000D03*
D11*
X111043000Y-142240000D03*
X113583000Y-142240000D03*
X116123000Y-142240000D03*
X118663000Y-142240000D03*
X121203000Y-142240000D03*
X123743000Y-142240000D03*
X126283000Y-142240000D03*
X128823000Y-142240000D03*
X131363000Y-142240000D03*
%TD*%
D10*
%TO.C,SPARE2*%
X108503000Y-139700000D03*
D11*
X108503000Y-137160000D03*
X111043000Y-139700000D03*
X111043000Y-137160000D03*
X113583000Y-139700000D03*
X113583000Y-137160000D03*
X116123000Y-139700000D03*
X116123000Y-137160000D03*
X118663000Y-139700000D03*
X118663000Y-137160000D03*
X121203000Y-139700000D03*
X121203000Y-137160000D03*
X123743000Y-139700000D03*
X123743000Y-137160000D03*
X126283000Y-139700000D03*
X126283000Y-137160000D03*
X128823000Y-139700000D03*
X128823000Y-137160000D03*
X131363000Y-139700000D03*
X131363000Y-137160000D03*
%TD*%
D12*
%TO.C,J38*%
X189016000Y-116606000D03*
D13*
X191556000Y-116606000D03*
X194096000Y-116606000D03*
%TD*%
D10*
%TO.C,J37*%
X195239000Y-109347000D03*
D11*
X195239000Y-106807000D03*
X195239000Y-104267000D03*
X195239000Y-101727000D03*
X195239000Y-99187000D03*
X195239000Y-96647000D03*
X195239000Y-94107000D03*
X195239000Y-91567000D03*
X195239000Y-89027000D03*
X195239000Y-86487000D03*
%TD*%
D14*
%TO.C,J36*%
X186095000Y-55880000D03*
D15*
X186095000Y-54630000D03*
%TD*%
D14*
%TO.C,J35*%
X186095000Y-62484000D03*
D15*
X186095000Y-61234000D03*
%TD*%
D10*
%TO.C,J34*%
X192699000Y-109347000D03*
D11*
X190159000Y-109347000D03*
X192699000Y-106807000D03*
X190159000Y-106807000D03*
X192699000Y-104267000D03*
X190159000Y-104267000D03*
X192699000Y-101727000D03*
X190159000Y-101727000D03*
X192699000Y-99187000D03*
X190159000Y-99187000D03*
X192699000Y-96647000D03*
X190159000Y-96647000D03*
X192699000Y-94107000D03*
X190159000Y-94107000D03*
X192699000Y-91567000D03*
X190159000Y-91567000D03*
X192699000Y-89027000D03*
X190159000Y-89027000D03*
X192699000Y-86487000D03*
X190159000Y-86487000D03*
%TD*%
D10*
%TO.C,J33*%
X195239000Y-67564000D03*
D11*
X192699000Y-67564000D03*
X190159000Y-67564000D03*
%TD*%
D10*
%TO.C,J32*%
X195239000Y-72136000D03*
D11*
X192699000Y-72136000D03*
X190159000Y-72136000D03*
%TD*%
D10*
%TO.C,J29*%
X138419200Y-136144000D03*
D11*
X138419200Y-138684000D03*
X140959200Y-136144000D03*
X140959200Y-138684000D03*
X143499200Y-136144000D03*
X143499200Y-138684000D03*
X146039200Y-136144000D03*
X146039200Y-138684000D03*
X148579200Y-136144000D03*
X148579200Y-138684000D03*
X151119200Y-136144000D03*
X151119200Y-138684000D03*
X153659200Y-136144000D03*
X153659200Y-138684000D03*
X156199200Y-136144000D03*
X156199200Y-138684000D03*
X158739200Y-136144000D03*
X158739200Y-138684000D03*
X161279200Y-136144000D03*
X161279200Y-138684000D03*
%TD*%
D16*
%TO.C,J28*%
X193348173Y-124502976D03*
D17*
X192098173Y-124502976D03*
X190848173Y-124502976D03*
X189598173Y-124502976D03*
%TD*%
D18*
%TO.C,J27*%
X193334000Y-131572000D03*
D19*
X191834000Y-131572000D03*
X190334000Y-131572000D03*
X188834000Y-131572000D03*
%TD*%
D10*
%TO.C,J26*%
X193334000Y-136906000D03*
D11*
X190794000Y-136906000D03*
X188254000Y-136906000D03*
X185714000Y-136906000D03*
%TD*%
D20*
%TO.C,J25*%
X188635000Y-37719000D03*
D13*
X186095000Y-37719000D03*
X183555000Y-37719000D03*
%TD*%
D10*
%TO.C,J24*%
X185714000Y-46736000D03*
D11*
X185714000Y-49276000D03*
%TD*%
D10*
%TO.C,J23*%
X173014000Y-46736000D03*
D11*
X173014000Y-49276000D03*
%TD*%
D10*
%TO.C,J22*%
X123738000Y-113269000D03*
D11*
X123738000Y-110729000D03*
X123738000Y-108189000D03*
%TD*%
D21*
%TO.C,J21*%
X113586000Y-108254000D03*
D15*
X113586000Y-109504000D03*
X113586000Y-110754000D03*
X113586000Y-112004000D03*
X113586000Y-113254000D03*
X113586000Y-114504000D03*
%TD*%
D10*
%TO.C,J20*%
X178602000Y-36957000D03*
D11*
X178602000Y-39497000D03*
%TD*%
D22*
%TO.C,J19*%
X107003156Y-40707242D03*
X101223156Y-40707242D03*
D23*
X108433156Y-37027242D03*
X99793156Y-37027242D03*
D24*
X108433156Y-41207242D03*
X99793156Y-41207242D03*
%TD*%
D10*
%TO.C,J18*%
X128310000Y-84328000D03*
%TD*%
%TO.C,J17*%
X128310000Y-81280000D03*
%TD*%
D21*
%TO.C,J16*%
X124507909Y-92950805D03*
D15*
X124507909Y-94200805D03*
X124507909Y-95450805D03*
X124507909Y-96700805D03*
X124507909Y-97950805D03*
X124507909Y-99200805D03*
%TD*%
D11*
%TO.C,J15*%
X95285000Y-67564000D03*
X92745000Y-67564000D03*
X95285000Y-65024000D03*
X92745000Y-65024000D03*
X95285000Y-62484000D03*
X92745000Y-62484000D03*
X95285000Y-59944000D03*
D10*
X92745000Y-59944000D03*
%TD*%
%TO.C,J14*%
X129961000Y-99949000D03*
D11*
X129961000Y-97409000D03*
X129961000Y-94869000D03*
X129961000Y-92329000D03*
%TD*%
D25*
%TO.C,J13*%
X122722000Y-128016000D03*
D19*
X124222000Y-128016000D03*
X125722000Y-128016000D03*
%TD*%
D10*
%TO.C,J12*%
X95290000Y-136652000D03*
D11*
X92750000Y-136652000D03*
X95290000Y-134112000D03*
X92750000Y-134112000D03*
X95290000Y-131572000D03*
X92750000Y-131572000D03*
X95290000Y-129032000D03*
X92750000Y-129032000D03*
X95290000Y-126492000D03*
X92750000Y-126492000D03*
X95290000Y-123952000D03*
X92750000Y-123952000D03*
X95290000Y-121412000D03*
X92750000Y-121412000D03*
X95290000Y-118872000D03*
X92750000Y-118872000D03*
X95290000Y-116332000D03*
X92750000Y-116332000D03*
X95290000Y-113792000D03*
X92750000Y-113792000D03*
%TD*%
D20*
%TO.C,J11*%
X133390000Y-49637000D03*
D13*
X130850000Y-49637000D03*
X128310000Y-49637000D03*
%TD*%
D20*
%TO.C,J10*%
X120182000Y-49637000D03*
D13*
X117642000Y-49637000D03*
X115102000Y-49637000D03*
%TD*%
D10*
%TO.C,J9*%
X120690000Y-123063000D03*
D11*
X123230000Y-123063000D03*
X125770000Y-123063000D03*
%TD*%
D26*
%TO.C,J8*%
X127080000Y-39578000D03*
D27*
X132080000Y-39578000D03*
%TD*%
D26*
%TO.C,J7*%
X115904000Y-39578000D03*
D27*
X120904000Y-39578000D03*
%TD*%
D28*
%TO.C,J6*%
X92782000Y-106384000D03*
D29*
X94782000Y-106384000D03*
X96782000Y-106384000D03*
%TD*%
%TO.C,J5*%
X96782000Y-100100800D03*
X94782000Y-100100800D03*
D28*
X92782000Y-100100800D03*
%TD*%
D30*
%TO.C,J3*%
X98258000Y-88134400D03*
X95758000Y-88134400D03*
D31*
X93258000Y-88134400D03*
%TD*%
D29*
%TO.C,J2*%
X96750000Y-80451200D03*
X94750000Y-80451200D03*
D28*
X92750000Y-80451200D03*
%TD*%
D10*
%TO.C,JP4*%
X171570709Y-61333099D03*
D11*
X174110709Y-61333099D03*
%TD*%
D10*
%TO.C,JP2*%
X134914000Y-94991000D03*
D11*
X134914000Y-97531000D03*
%TD*%
D10*
%TO.C,OP6*%
X170840000Y-95123000D03*
D11*
X168300000Y-95123000D03*
X165760000Y-95123000D03*
%TD*%
D10*
%TO.C,OP3*%
X109387000Y-75072000D03*
D11*
X109387000Y-77612000D03*
X109387000Y-80152000D03*
%TD*%
D10*
%TO.C,OP2*%
X123179820Y-78741539D03*
D11*
X125719820Y-78741539D03*
X128259820Y-78741539D03*
%TD*%
D32*
%TO.C,H4*%
X93218000Y-40894000D03*
%TD*%
D10*
%TO.C,JP1*%
X124246000Y-48763000D03*
D11*
X124246000Y-51303000D03*
%TD*%
D10*
%TO.C,JP3*%
X105958000Y-111760000D03*
D11*
X105958000Y-109220000D03*
%TD*%
D30*
%TO.C,J4*%
X98258000Y-94817600D03*
X95758000Y-94817600D03*
D31*
X93258000Y-94817600D03*
%TD*%
D10*
%TO.C,OP4*%
X97815000Y-47752000D03*
D11*
X95275000Y-47752000D03*
X92735000Y-47752000D03*
%TD*%
D10*
%TO.C,OP1*%
X133913000Y-122428000D03*
D11*
X136453000Y-122428000D03*
X138993000Y-122428000D03*
%TD*%
D10*
%TO.C,J30*%
X195239000Y-81280000D03*
D11*
X192699000Y-81280000D03*
X190159000Y-81280000D03*
%TD*%
D10*
%TO.C,J31*%
X195239000Y-76708000D03*
D11*
X192699000Y-76708000D03*
X190159000Y-76708000D03*
%TD*%
D33*
%TO.C,U5*%
X149929000Y-36072000D03*
D34*
X150229000Y-39102000D03*
X155079000Y-39102000D03*
D33*
X155379000Y-36072000D03*
D11*
X143764000Y-35942000D03*
X143764000Y-38482000D03*
D10*
X143764000Y-41022000D03*
D11*
X143764000Y-43562000D03*
X143764000Y-46102000D03*
X143764000Y-48642000D03*
X143764000Y-51182000D03*
D10*
X143764000Y-53722000D03*
D11*
X143764000Y-56262000D03*
X143764000Y-58802000D03*
X143764000Y-61342000D03*
X143764000Y-63882000D03*
D10*
X143764000Y-66422000D03*
D11*
X143764000Y-68962000D03*
X143764000Y-71502000D03*
X143764000Y-74042000D03*
X143764000Y-76582000D03*
D10*
X143764000Y-79122000D03*
D11*
X143764000Y-81662000D03*
X143764000Y-84202000D03*
X161544000Y-84202000D03*
X161544000Y-81662000D03*
D10*
X161544000Y-79122000D03*
D11*
X161544000Y-76582000D03*
X161544000Y-74042000D03*
X161544000Y-71502000D03*
X161544000Y-68962000D03*
D10*
X161544000Y-66422000D03*
D11*
X161544000Y-63882000D03*
X161544000Y-61342000D03*
X161544000Y-58802000D03*
X161544000Y-56262000D03*
D10*
X161544000Y-53722000D03*
D11*
X161544000Y-51182000D03*
X161544000Y-48642000D03*
X161544000Y-46102000D03*
X161544000Y-43562000D03*
D10*
X161544000Y-41022000D03*
D11*
X161544000Y-38482000D03*
X161544000Y-35942000D03*
X150118000Y-84242000D03*
D10*
X152658000Y-84242000D03*
D11*
X155198000Y-84242000D03*
%TD*%
D10*
%TO.C,OP5*%
X110974912Y-101610729D03*
D11*
X113514912Y-101610729D03*
X116054912Y-101610729D03*
%TD*%
D32*
%TO.C,H2*%
X194818000Y-142494000D03*
%TD*%
%TO.C,H3*%
X194818000Y-40894000D03*
%TD*%
D10*
%TO.C,JP5*%
X193329000Y-48768000D03*
D11*
X195869000Y-48768000D03*
%TD*%
D32*
%TO.C,H1*%
X93218000Y-142494000D03*
%TD*%
D28*
%TO.C,J1*%
X92750000Y-74168000D03*
D29*
X94750000Y-74168000D03*
X96750000Y-74168000D03*
%TD*%
M02*
