%TF.GenerationSoftware,KiCad,Pcbnew,7.0.2*%
%TF.CreationDate,2024-12-03T13:42:34-08:00*%
%TF.ProjectId,AA_P_CtrlBd,41415f50-5f43-4747-926c-42642e6b6963,1.0*%
%TF.SameCoordinates,Original*%
%TF.FileFunction,Soldermask,Top*%
%TF.FilePolarity,Negative*%
%FSLAX46Y46*%
G04 Gerber Fmt 4.6, Leading zero omitted, Abs format (unit mm)*
G04 Created by KiCad (PCBNEW 7.0.2) date 2024-12-03 13:42:34*
%MOMM*%
%LPD*%
G01*
G04 APERTURE LIST*
G04 Aperture macros list*
%AMRoundRect*
0 Rectangle with rounded corners*
0 $1 Rounding radius*
0 $2 $3 $4 $5 $6 $7 $8 $9 X,Y pos of 4 corners*
0 Add a 4 corners polygon primitive as box body*
4,1,4,$2,$3,$4,$5,$6,$7,$8,$9,$2,$3,0*
0 Add four circle primitives for the rounded corners*
1,1,$1+$1,$2,$3*
1,1,$1+$1,$4,$5*
1,1,$1+$1,$6,$7*
1,1,$1+$1,$8,$9*
0 Add four rect primitives between the rounded corners*
20,1,$1+$1,$2,$3,$4,$5,0*
20,1,$1+$1,$4,$5,$6,$7,0*
20,1,$1+$1,$6,$7,$8,$9,0*
20,1,$1+$1,$8,$9,$2,$3,0*%
G04 Aperture macros list end*
%ADD10RoundRect,0.237500X-0.300000X-0.237500X0.300000X-0.237500X0.300000X0.237500X-0.300000X0.237500X0*%
%ADD11R,1.700000X1.700000*%
%ADD12O,1.700000X1.700000*%
%ADD13RoundRect,0.250000X-0.620000X-0.845000X0.620000X-0.845000X0.620000X0.845000X-0.620000X0.845000X0*%
%ADD14O,1.740000X2.190000*%
%ADD15RoundRect,0.225000X0.475000X-0.225000X0.475000X0.225000X-0.475000X0.225000X-0.475000X-0.225000X0*%
%ADD16O,1.400000X0.900000*%
%ADD17RoundRect,0.225000X0.225000X0.475000X-0.225000X0.475000X-0.225000X-0.475000X0.225000X-0.475000X0*%
%ADD18O,0.900000X1.400000*%
%ADD19RoundRect,0.250000X0.335000X0.685000X-0.335000X0.685000X-0.335000X-0.685000X0.335000X-0.685000X0*%
%ADD20O,1.170000X1.870000*%
%ADD21RoundRect,0.250000X0.620000X0.845000X-0.620000X0.845000X-0.620000X-0.845000X0.620000X-0.845000X0*%
%ADD22RoundRect,0.225000X-0.475000X0.225000X-0.475000X-0.225000X0.475000X-0.225000X0.475000X0.225000X0*%
%ADD23C,0.650000*%
%ADD24R,0.600000X1.150000*%
%ADD25R,0.300000X1.150000*%
%ADD26O,1.000000X1.800000*%
%ADD27O,1.000000X2.100000*%
%ADD28RoundRect,0.250000X-0.335000X-0.685000X0.335000X-0.685000X0.335000X0.685000X-0.335000X0.685000X0*%
%ADD29R,2.400000X2.400000*%
%ADD30C,2.400000*%
%ADD31RoundRect,0.250000X-0.350000X-0.625000X0.350000X-0.625000X0.350000X0.625000X-0.350000X0.625000X0*%
%ADD32O,1.200000X1.750000*%
%ADD33O,1.700000X1.850000*%
%ADD34RoundRect,0.250000X-0.600000X-0.675000X0.600000X-0.675000X0.600000X0.675000X-0.600000X0.675000X0*%
%ADD35RoundRect,0.250000X0.325000X0.450000X-0.325000X0.450000X-0.325000X-0.450000X0.325000X-0.450000X0*%
%ADD36RoundRect,0.250000X0.450000X-0.350000X0.450000X0.350000X-0.450000X0.350000X-0.450000X-0.350000X0*%
%ADD37RoundRect,0.237500X-0.237500X0.300000X-0.237500X-0.300000X0.237500X-0.300000X0.237500X0.300000X0*%
%ADD38RoundRect,0.250000X-0.350000X-0.450000X0.350000X-0.450000X0.350000X0.450000X-0.350000X0.450000X0*%
%ADD39RoundRect,0.250001X-0.499999X-0.924999X0.499999X-0.924999X0.499999X0.924999X-0.499999X0.924999X0*%
%ADD40RoundRect,0.150000X-0.587500X-0.150000X0.587500X-0.150000X0.587500X0.150000X-0.587500X0.150000X0*%
%ADD41R,1.500000X0.400000*%
%ADD42RoundRect,0.250000X0.350000X0.450000X-0.350000X0.450000X-0.350000X-0.450000X0.350000X-0.450000X0*%
%ADD43RoundRect,0.250000X-0.650000X1.000000X-0.650000X-1.000000X0.650000X-1.000000X0.650000X1.000000X0*%
%ADD44RoundRect,0.237500X0.237500X-0.300000X0.237500X0.300000X-0.237500X0.300000X-0.237500X-0.300000X0*%
%ADD45C,3.200000*%
%ADD46RoundRect,0.150000X0.512500X0.150000X-0.512500X0.150000X-0.512500X-0.150000X0.512500X-0.150000X0*%
%ADD47R,1.560000X0.650000*%
%ADD48RoundRect,0.150000X-0.512500X-0.150000X0.512500X-0.150000X0.512500X0.150000X-0.512500X0.150000X0*%
%ADD49RoundRect,0.100000X-0.100000X0.637500X-0.100000X-0.637500X0.100000X-0.637500X0.100000X0.637500X0*%
%ADD50RoundRect,0.250000X-0.450000X0.350000X-0.450000X-0.350000X0.450000X-0.350000X0.450000X0.350000X0*%
%ADD51O,1.800000X1.800000*%
%ADD52O,1.500000X1.500000*%
%ADD53R,3.500000X1.700000*%
%ADD54R,1.700000X3.500000*%
%ADD55RoundRect,0.150000X0.150000X-0.875000X0.150000X0.875000X-0.150000X0.875000X-0.150000X-0.875000X0*%
%ADD56RoundRect,0.250000X-0.450000X0.325000X-0.450000X-0.325000X0.450000X-0.325000X0.450000X0.325000X0*%
%ADD57R,1.200000X0.400000*%
%ADD58RoundRect,0.237500X0.300000X0.237500X-0.300000X0.237500X-0.300000X-0.237500X0.300000X-0.237500X0*%
%ADD59RoundRect,0.100000X0.637500X0.100000X-0.637500X0.100000X-0.637500X-0.100000X0.637500X-0.100000X0*%
G04 APERTURE END LIST*
D10*
%TO.C,C11*%
X102555500Y-53848000D03*
X104280500Y-53848000D03*
%TD*%
D11*
%TO.C,SPARE1*%
X108503000Y-142240000D03*
D12*
X111043000Y-142240000D03*
X113583000Y-142240000D03*
X116123000Y-142240000D03*
X118663000Y-142240000D03*
X121203000Y-142240000D03*
X123743000Y-142240000D03*
X126283000Y-142240000D03*
X128823000Y-142240000D03*
X131363000Y-142240000D03*
%TD*%
D11*
%TO.C,SPARE2*%
X108503000Y-139700000D03*
D12*
X108503000Y-137160000D03*
X111043000Y-139700000D03*
X111043000Y-137160000D03*
X113583000Y-139700000D03*
X113583000Y-137160000D03*
X116123000Y-139700000D03*
X116123000Y-137160000D03*
X118663000Y-139700000D03*
X118663000Y-137160000D03*
X121203000Y-139700000D03*
X121203000Y-137160000D03*
X123743000Y-139700000D03*
X123743000Y-137160000D03*
X126283000Y-139700000D03*
X126283000Y-137160000D03*
X128823000Y-139700000D03*
X128823000Y-137160000D03*
X131363000Y-139700000D03*
X131363000Y-137160000D03*
%TD*%
D13*
%TO.C,J38*%
X189016000Y-116606000D03*
D14*
X191556000Y-116606000D03*
X194096000Y-116606000D03*
%TD*%
D11*
%TO.C,J37*%
X195239000Y-109347000D03*
D12*
X195239000Y-106807000D03*
X195239000Y-104267000D03*
X195239000Y-101727000D03*
X195239000Y-99187000D03*
X195239000Y-96647000D03*
X195239000Y-94107000D03*
X195239000Y-91567000D03*
X195239000Y-89027000D03*
X195239000Y-86487000D03*
%TD*%
D15*
%TO.C,J36*%
X186095000Y-55880000D03*
D16*
X186095000Y-54630000D03*
%TD*%
D15*
%TO.C,J35*%
X186095000Y-62484000D03*
D16*
X186095000Y-61234000D03*
%TD*%
D11*
%TO.C,J34*%
X192699000Y-109347000D03*
D12*
X190159000Y-109347000D03*
X192699000Y-106807000D03*
X190159000Y-106807000D03*
X192699000Y-104267000D03*
X190159000Y-104267000D03*
X192699000Y-101727000D03*
X190159000Y-101727000D03*
X192699000Y-99187000D03*
X190159000Y-99187000D03*
X192699000Y-96647000D03*
X190159000Y-96647000D03*
X192699000Y-94107000D03*
X190159000Y-94107000D03*
X192699000Y-91567000D03*
X190159000Y-91567000D03*
X192699000Y-89027000D03*
X190159000Y-89027000D03*
X192699000Y-86487000D03*
X190159000Y-86487000D03*
%TD*%
D11*
%TO.C,J33*%
X195239000Y-67564000D03*
D12*
X192699000Y-67564000D03*
X190159000Y-67564000D03*
%TD*%
D11*
%TO.C,J32*%
X195239000Y-72136000D03*
D12*
X192699000Y-72136000D03*
X190159000Y-72136000D03*
%TD*%
D11*
%TO.C,J29*%
X138419200Y-136144000D03*
D12*
X138419200Y-138684000D03*
X140959200Y-136144000D03*
X140959200Y-138684000D03*
X143499200Y-136144000D03*
X143499200Y-138684000D03*
X146039200Y-136144000D03*
X146039200Y-138684000D03*
X148579200Y-136144000D03*
X148579200Y-138684000D03*
X151119200Y-136144000D03*
X151119200Y-138684000D03*
X153659200Y-136144000D03*
X153659200Y-138684000D03*
X156199200Y-136144000D03*
X156199200Y-138684000D03*
X158739200Y-136144000D03*
X158739200Y-138684000D03*
X161279200Y-136144000D03*
X161279200Y-138684000D03*
%TD*%
D17*
%TO.C,J28*%
X193348173Y-124502976D03*
D18*
X192098173Y-124502976D03*
X190848173Y-124502976D03*
X189598173Y-124502976D03*
%TD*%
D19*
%TO.C,J27*%
X193334000Y-131572000D03*
D20*
X191834000Y-131572000D03*
X190334000Y-131572000D03*
X188834000Y-131572000D03*
%TD*%
D11*
%TO.C,J26*%
X193334000Y-136906000D03*
D12*
X190794000Y-136906000D03*
X188254000Y-136906000D03*
X185714000Y-136906000D03*
%TD*%
D21*
%TO.C,J25*%
X188635000Y-37719000D03*
D14*
X186095000Y-37719000D03*
X183555000Y-37719000D03*
%TD*%
D11*
%TO.C,J24*%
X185714000Y-46736000D03*
D12*
X185714000Y-49276000D03*
%TD*%
D11*
%TO.C,J23*%
X173014000Y-46736000D03*
D12*
X173014000Y-49276000D03*
%TD*%
D11*
%TO.C,J22*%
X123738000Y-113269000D03*
D12*
X123738000Y-110729000D03*
X123738000Y-108189000D03*
%TD*%
D22*
%TO.C,J21*%
X113586000Y-108254000D03*
D16*
X113586000Y-109504000D03*
X113586000Y-110754000D03*
X113586000Y-112004000D03*
X113586000Y-113254000D03*
X113586000Y-114504000D03*
%TD*%
D11*
%TO.C,J20*%
X178602000Y-36957000D03*
D12*
X178602000Y-39497000D03*
%TD*%
D23*
%TO.C,J19*%
X107003156Y-40707242D03*
X101223156Y-40707242D03*
D24*
X107313156Y-41782242D03*
X106513156Y-41782242D03*
D25*
X105363156Y-41782242D03*
X104363156Y-41782242D03*
X103863156Y-41782242D03*
X102863156Y-41782242D03*
D24*
X100913156Y-41782242D03*
X101713156Y-41782242D03*
D25*
X102363156Y-41782242D03*
X103363156Y-41782242D03*
X104863156Y-41782242D03*
X105863156Y-41782242D03*
D26*
X108433156Y-37027242D03*
X99793156Y-37027242D03*
D27*
X108433156Y-41207242D03*
X99793156Y-41207242D03*
%TD*%
D11*
%TO.C,J18*%
X128310000Y-84328000D03*
%TD*%
%TO.C,J17*%
X128310000Y-81280000D03*
%TD*%
D22*
%TO.C,J16*%
X124507909Y-92950805D03*
D16*
X124507909Y-94200805D03*
X124507909Y-95450805D03*
X124507909Y-96700805D03*
X124507909Y-97950805D03*
X124507909Y-99200805D03*
%TD*%
D12*
%TO.C,J15*%
X95285000Y-67564000D03*
X92745000Y-67564000D03*
X95285000Y-65024000D03*
X92745000Y-65024000D03*
X95285000Y-62484000D03*
X92745000Y-62484000D03*
X95285000Y-59944000D03*
D11*
X92745000Y-59944000D03*
%TD*%
%TO.C,J14*%
X129961000Y-99949000D03*
D12*
X129961000Y-97409000D03*
X129961000Y-94869000D03*
X129961000Y-92329000D03*
%TD*%
D28*
%TO.C,J13*%
X122722000Y-128016000D03*
D20*
X124222000Y-128016000D03*
X125722000Y-128016000D03*
%TD*%
D11*
%TO.C,J12*%
X95290000Y-136652000D03*
D12*
X92750000Y-136652000D03*
X95290000Y-134112000D03*
X92750000Y-134112000D03*
X95290000Y-131572000D03*
X92750000Y-131572000D03*
X95290000Y-129032000D03*
X92750000Y-129032000D03*
X95290000Y-126492000D03*
X92750000Y-126492000D03*
X95290000Y-123952000D03*
X92750000Y-123952000D03*
X95290000Y-121412000D03*
X92750000Y-121412000D03*
X95290000Y-118872000D03*
X92750000Y-118872000D03*
X95290000Y-116332000D03*
X92750000Y-116332000D03*
X95290000Y-113792000D03*
X92750000Y-113792000D03*
%TD*%
D21*
%TO.C,J11*%
X133390000Y-49637000D03*
D14*
X130850000Y-49637000D03*
X128310000Y-49637000D03*
%TD*%
D21*
%TO.C,J10*%
X120182000Y-49637000D03*
D14*
X117642000Y-49637000D03*
X115102000Y-49637000D03*
%TD*%
D11*
%TO.C,J9*%
X120690000Y-123063000D03*
D12*
X123230000Y-123063000D03*
X125770000Y-123063000D03*
%TD*%
D29*
%TO.C,J8*%
X127080000Y-39578000D03*
D30*
X132080000Y-39578000D03*
%TD*%
D29*
%TO.C,J7*%
X115904000Y-39578000D03*
D30*
X120904000Y-39578000D03*
%TD*%
D31*
%TO.C,J6*%
X92782000Y-106384000D03*
D32*
X94782000Y-106384000D03*
X96782000Y-106384000D03*
%TD*%
%TO.C,J5*%
X96782000Y-100100800D03*
X94782000Y-100100800D03*
D31*
X92782000Y-100100800D03*
%TD*%
D33*
%TO.C,J3*%
X98258000Y-88134400D03*
X95758000Y-88134400D03*
D34*
X93258000Y-88134400D03*
%TD*%
D32*
%TO.C,J2*%
X96750000Y-80451200D03*
X94750000Y-80451200D03*
D31*
X92750000Y-80451200D03*
%TD*%
D35*
%TO.C,D7*%
X196351000Y-55880000D03*
X194301000Y-55880000D03*
%TD*%
D36*
%TO.C,R7*%
X132334000Y-80264000D03*
X132334000Y-78264000D03*
%TD*%
D11*
%TO.C,JP4*%
X171570709Y-61333099D03*
D12*
X174110709Y-61333099D03*
%TD*%
D11*
%TO.C,JP2*%
X134914000Y-94991000D03*
D12*
X134914000Y-97531000D03*
%TD*%
D37*
%TO.C,C10*%
X110998000Y-37391000D03*
X110998000Y-39116000D03*
%TD*%
D38*
%TO.C,R11*%
X103918000Y-74676000D03*
X105918000Y-74676000D03*
%TD*%
%TO.C,R4*%
X95282000Y-36068000D03*
X97282000Y-36068000D03*
%TD*%
D39*
%TO.C,C22*%
X177953000Y-45212000D03*
X181203000Y-45212000D03*
%TD*%
D40*
%TO.C,Q1*%
X169926000Y-36200000D03*
X169926000Y-38100000D03*
X171801000Y-37150000D03*
%TD*%
D41*
%TO.C,U10*%
X182312000Y-69454000D03*
X182312000Y-70104000D03*
X182312000Y-70754000D03*
X184972000Y-70754000D03*
X184972000Y-70104000D03*
X184972000Y-69454000D03*
%TD*%
D42*
%TO.C,R5*%
X114046000Y-121920000D03*
X112046000Y-121920000D03*
%TD*%
D43*
%TO.C,D5*%
X132334000Y-58960000D03*
X132334000Y-62960000D03*
%TD*%
D10*
%TO.C,C5*%
X127407500Y-71120000D03*
X129132500Y-71120000D03*
%TD*%
D11*
%TO.C,OP6*%
X170840000Y-95123000D03*
D12*
X168300000Y-95123000D03*
X165760000Y-95123000D03*
%TD*%
D42*
%TO.C,R2*%
X95274000Y-110998000D03*
X93274000Y-110998000D03*
%TD*%
D11*
%TO.C,OP3*%
X109387000Y-75072000D03*
D12*
X109387000Y-77612000D03*
X109387000Y-80152000D03*
%TD*%
D11*
%TO.C,OP2*%
X123179820Y-78741539D03*
D12*
X125719820Y-78741539D03*
X128259820Y-78741539D03*
%TD*%
D44*
%TO.C,C18*%
X171570000Y-57404000D03*
X171570000Y-55679000D03*
%TD*%
D45*
%TO.C,H4*%
X93218000Y-40894000D03*
%TD*%
D46*
%TO.C,U6*%
X176385000Y-56896000D03*
X176385000Y-55946000D03*
X176385000Y-54996000D03*
X174110000Y-54996000D03*
X174110000Y-56896000D03*
%TD*%
D37*
%TO.C,C8*%
X138914000Y-127307000D03*
X138914000Y-129032000D03*
%TD*%
D35*
%TO.C,D6*%
X196360000Y-60960000D03*
X194310000Y-60960000D03*
%TD*%
D36*
%TO.C,R3*%
X109474000Y-87344000D03*
X109474000Y-85344000D03*
%TD*%
D47*
%TO.C,U2*%
X116586000Y-89408000D03*
X116586000Y-88458000D03*
X116586000Y-87508000D03*
X113886000Y-87508000D03*
X113886000Y-89408000D03*
%TD*%
D48*
%TO.C,D3*%
X102627000Y-133162000D03*
X102627000Y-135062000D03*
X104902000Y-134112000D03*
%TD*%
D11*
%TO.C,JP1*%
X124246000Y-48763000D03*
D12*
X124246000Y-51303000D03*
%TD*%
D11*
%TO.C,JP3*%
X105958000Y-111760000D03*
D12*
X105958000Y-109220000D03*
%TD*%
D42*
%TO.C,R10*%
X145018000Y-89408000D03*
X143018000Y-89408000D03*
%TD*%
D49*
%TO.C,U7*%
X155437000Y-105241500D03*
X154787000Y-105241500D03*
X154137000Y-105241500D03*
X153487000Y-105241500D03*
X152837000Y-105241500D03*
X152187000Y-105241500D03*
X151537000Y-105241500D03*
X150887000Y-105241500D03*
X150887000Y-110966500D03*
X151537000Y-110966500D03*
X152187000Y-110966500D03*
X152837000Y-110966500D03*
X153487000Y-110966500D03*
X154137000Y-110966500D03*
X154787000Y-110966500D03*
X155437000Y-110966500D03*
%TD*%
D33*
%TO.C,J4*%
X98258000Y-94817600D03*
X95758000Y-94817600D03*
D34*
X93258000Y-94817600D03*
%TD*%
D11*
%TO.C,OP4*%
X97815000Y-47752000D03*
D12*
X95275000Y-47752000D03*
X92735000Y-47752000D03*
%TD*%
D50*
%TO.C,R6*%
X104902000Y-48292000D03*
X104902000Y-50292000D03*
%TD*%
D11*
%TO.C,OP1*%
X133913000Y-122428000D03*
D12*
X136453000Y-122428000D03*
X138993000Y-122428000D03*
%TD*%
D39*
%TO.C,C1*%
X115722500Y-68072000D03*
X118972500Y-68072000D03*
%TD*%
D38*
%TO.C,R1*%
X102659000Y-130048000D03*
X104659000Y-130048000D03*
%TD*%
D37*
%TO.C,C19*%
X169418000Y-47043000D03*
X169418000Y-48768000D03*
%TD*%
D47*
%TO.C,U4*%
X132658000Y-127132000D03*
X132658000Y-128082000D03*
X132658000Y-129032000D03*
X135358000Y-129032000D03*
X135358000Y-127132000D03*
%TD*%
D10*
%TO.C,C16*%
X169926000Y-42164000D03*
X171651000Y-42164000D03*
%TD*%
D11*
%TO.C,J30*%
X195239000Y-81280000D03*
D12*
X192699000Y-81280000D03*
X190159000Y-81280000D03*
%TD*%
D11*
%TO.C,J31*%
X195239000Y-76708000D03*
D12*
X192699000Y-76708000D03*
X190159000Y-76708000D03*
%TD*%
D51*
%TO.C,U5*%
X149929000Y-36072000D03*
D52*
X150229000Y-39102000D03*
X155079000Y-39102000D03*
D51*
X155379000Y-36072000D03*
D12*
X143764000Y-35942000D03*
D53*
X142864000Y-35942000D03*
D12*
X143764000Y-38482000D03*
D53*
X142864000Y-38482000D03*
D11*
X143764000Y-41022000D03*
D53*
X142864000Y-41022000D03*
D12*
X143764000Y-43562000D03*
D53*
X142864000Y-43562000D03*
D12*
X143764000Y-46102000D03*
D53*
X142864000Y-46102000D03*
D12*
X143764000Y-48642000D03*
D53*
X142864000Y-48642000D03*
D12*
X143764000Y-51182000D03*
D53*
X142864000Y-51182000D03*
D11*
X143764000Y-53722000D03*
D53*
X142864000Y-53722000D03*
D12*
X143764000Y-56262000D03*
D53*
X142864000Y-56262000D03*
D12*
X143764000Y-58802000D03*
D53*
X142864000Y-58802000D03*
D12*
X143764000Y-61342000D03*
D53*
X142864000Y-61342000D03*
D12*
X143764000Y-63882000D03*
D53*
X142864000Y-63882000D03*
D11*
X143764000Y-66422000D03*
D53*
X142864000Y-66422000D03*
D12*
X143764000Y-68962000D03*
D53*
X142864000Y-68962000D03*
D12*
X143764000Y-71502000D03*
D53*
X142864000Y-71502000D03*
D12*
X143764000Y-74042000D03*
D53*
X142864000Y-74042000D03*
D12*
X143764000Y-76582000D03*
D53*
X142864000Y-76582000D03*
D11*
X143764000Y-79122000D03*
D53*
X142864000Y-79122000D03*
D12*
X143764000Y-81662000D03*
D53*
X142864000Y-81662000D03*
D12*
X143764000Y-84202000D03*
D53*
X142864000Y-84202000D03*
D12*
X161544000Y-84202000D03*
D53*
X162444000Y-84202000D03*
D12*
X161544000Y-81662000D03*
D53*
X162444000Y-81662000D03*
D11*
X161544000Y-79122000D03*
D53*
X162444000Y-79122000D03*
D12*
X161544000Y-76582000D03*
D53*
X162444000Y-76582000D03*
D12*
X161544000Y-74042000D03*
D53*
X162444000Y-74042000D03*
D12*
X161544000Y-71502000D03*
D53*
X162444000Y-71502000D03*
D12*
X161544000Y-68962000D03*
D53*
X162444000Y-68962000D03*
D11*
X161544000Y-66422000D03*
D53*
X162444000Y-66422000D03*
D12*
X161544000Y-63882000D03*
D53*
X162444000Y-63882000D03*
D12*
X161544000Y-61342000D03*
D53*
X162444000Y-61342000D03*
D12*
X161544000Y-58802000D03*
D53*
X162444000Y-58802000D03*
D12*
X161544000Y-56262000D03*
D53*
X162444000Y-56262000D03*
D11*
X161544000Y-53722000D03*
D53*
X162444000Y-53722000D03*
D12*
X161544000Y-51182000D03*
D53*
X162444000Y-51182000D03*
D12*
X161544000Y-48642000D03*
D53*
X162444000Y-48642000D03*
D12*
X161544000Y-46102000D03*
D53*
X162444000Y-46102000D03*
D12*
X161544000Y-43562000D03*
D53*
X162444000Y-43562000D03*
D11*
X161544000Y-41022000D03*
D53*
X162444000Y-41022000D03*
D12*
X161544000Y-38482000D03*
D53*
X162444000Y-38482000D03*
D12*
X161544000Y-35942000D03*
D53*
X162444000Y-35942000D03*
D12*
X150118000Y-84242000D03*
D54*
X150118000Y-85142000D03*
D11*
X152658000Y-84242000D03*
D54*
X152658000Y-85142000D03*
D12*
X155198000Y-84242000D03*
D54*
X155198000Y-85142000D03*
%TD*%
D55*
%TO.C,U9*%
X167386000Y-111760000D03*
X168656000Y-111760000D03*
X169926000Y-111760000D03*
X171196000Y-111760000D03*
X172466000Y-111760000D03*
X173736000Y-111760000D03*
X175006000Y-111760000D03*
X176276000Y-111760000D03*
X177546000Y-111760000D03*
X177546000Y-102460000D03*
X176276000Y-102460000D03*
X175006000Y-102460000D03*
X173736000Y-102460000D03*
X172466000Y-102460000D03*
X171196000Y-102460000D03*
X169926000Y-102460000D03*
X168656000Y-102460000D03*
X167386000Y-102460000D03*
%TD*%
D50*
%TO.C,R13*%
X185166000Y-140224000D03*
X185166000Y-142224000D03*
%TD*%
D11*
%TO.C,OP5*%
X110974912Y-101610729D03*
D12*
X113514912Y-101610729D03*
X116054912Y-101610729D03*
%TD*%
D44*
%TO.C,C3*%
X107961000Y-131572000D03*
X107961000Y-129847000D03*
%TD*%
D45*
%TO.C,H2*%
X194818000Y-142494000D03*
%TD*%
D44*
%TO.C,C9*%
X135382000Y-78232000D03*
X135382000Y-76507000D03*
%TD*%
D56*
%TO.C,L1*%
X101854000Y-48242000D03*
X101854000Y-50292000D03*
%TD*%
D43*
%TO.C,D4*%
X121158000Y-58960000D03*
X121158000Y-62960000D03*
%TD*%
D50*
%TO.C,R8*%
X107950000Y-48292000D03*
X107950000Y-50292000D03*
%TD*%
D39*
%TO.C,C2*%
X127100500Y-68072000D03*
X130350500Y-68072000D03*
%TD*%
D36*
%TO.C,R14*%
X161798000Y-97028000D03*
X161798000Y-95028000D03*
%TD*%
D10*
%TO.C,C17*%
X177546000Y-50800000D03*
X179271000Y-50800000D03*
%TD*%
D43*
%TO.C,D2*%
X127254000Y-58928000D03*
X127254000Y-62928000D03*
%TD*%
D44*
%TO.C,C14*%
X178682000Y-57404000D03*
X178682000Y-55679000D03*
%TD*%
D57*
%TO.C,U3*%
X103318000Y-60642500D03*
X103318000Y-61277500D03*
X103318000Y-61912500D03*
X103318000Y-62547500D03*
X103318000Y-63182500D03*
X103318000Y-63817500D03*
X103318000Y-64452500D03*
X103318000Y-65087500D03*
X103318000Y-65722500D03*
X103318000Y-66357500D03*
X108518000Y-66357500D03*
X108518000Y-65722500D03*
X108518000Y-65087500D03*
X108518000Y-64452500D03*
X108518000Y-63817500D03*
X108518000Y-63182500D03*
X108518000Y-62547500D03*
X108518000Y-61912500D03*
X108518000Y-61277500D03*
X108518000Y-60642500D03*
%TD*%
D41*
%TO.C,U12*%
X137832000Y-109728000D03*
X137832000Y-109078000D03*
X137832000Y-108428000D03*
X135172000Y-108428000D03*
X135172000Y-109078000D03*
X135172000Y-109728000D03*
%TD*%
D45*
%TO.C,H3*%
X194818000Y-40894000D03*
%TD*%
D41*
%TO.C,U8*%
X172974000Y-67788000D03*
X172974000Y-68438000D03*
X172974000Y-69088000D03*
X175634000Y-69088000D03*
X175634000Y-68438000D03*
X175634000Y-67788000D03*
%TD*%
D11*
%TO.C,JP5*%
X193329000Y-48768000D03*
D12*
X195869000Y-48768000D03*
%TD*%
D44*
%TO.C,C20*%
X105918000Y-81280000D03*
X105918000Y-79555000D03*
%TD*%
D42*
%TO.C,R16*%
X191221000Y-55880000D03*
X189221000Y-55880000D03*
%TD*%
D45*
%TO.C,H1*%
X93218000Y-142494000D03*
%TD*%
D43*
%TO.C,D1*%
X115787500Y-58960000D03*
X115787500Y-62960000D03*
%TD*%
D42*
%TO.C,R15*%
X191262000Y-60960000D03*
X189262000Y-60960000D03*
%TD*%
D58*
%TO.C,C12*%
X101894000Y-57404000D03*
X100169000Y-57404000D03*
%TD*%
D37*
%TO.C,C13*%
X175514000Y-36068000D03*
X175514000Y-37793000D03*
%TD*%
D50*
%TO.C,R12*%
X188214000Y-140240000D03*
X188214000Y-142240000D03*
%TD*%
D31*
%TO.C,J1*%
X92750000Y-74168000D03*
D32*
X94750000Y-74168000D03*
X96750000Y-74168000D03*
%TD*%
D44*
%TO.C,C21*%
X189230000Y-48260000D03*
X189230000Y-46535000D03*
%TD*%
D41*
%TO.C,U11*%
X184972000Y-79248000D03*
X184972000Y-78598000D03*
X184972000Y-77948000D03*
X182312000Y-77948000D03*
X182312000Y-78598000D03*
X182312000Y-79248000D03*
%TD*%
D59*
%TO.C,U1*%
X108272500Y-125211000D03*
X108272500Y-124561000D03*
X108272500Y-123911000D03*
X108272500Y-123261000D03*
X108272500Y-122611000D03*
X108272500Y-121961000D03*
X108272500Y-121311000D03*
X108272500Y-120661000D03*
X102547500Y-120661000D03*
X102547500Y-121311000D03*
X102547500Y-121961000D03*
X102547500Y-122611000D03*
X102547500Y-123261000D03*
X102547500Y-123911000D03*
X102547500Y-124561000D03*
X102547500Y-125211000D03*
%TD*%
D38*
%TO.C,R9*%
X93274000Y-53086000D03*
X95274000Y-53086000D03*
%TD*%
D10*
%TO.C,C4*%
X116231500Y-71628000D03*
X117956500Y-71628000D03*
%TD*%
D39*
%TO.C,C6*%
X136680000Y-118364000D03*
X139930000Y-118364000D03*
%TD*%
M02*
